<svg xmlns="http://www.w3.org/2000/svg" xmlns:xlink="http://www.w3.org/1999/xlink" width="500" zoomAndPan="magnify" viewBox="0 0 375 374.999991" height="500" preserveAspectRatio="xMidYMid meet" version="1.0"><defs><clipPath id="21f5c28ecf"><path d="M 37.5 0 L 335 0 L 335 372.75 L 37.5 372.75 Z M 37.5 0 " clip-rule="nonzero"/></clipPath></defs><rect x="-37.5" width="450" fill="#ffffff" y="-37.499999" height="449.999989" fill-opacity="1"/><rect x="-37.5" width="450" fill="#ffffff" y="-37.499999" height="449.999989" fill-opacity="1"/><g clip-path="url(#21f5c28ecf)"><path fill="#fbbf28" d="M 334.292969 328.125 C 333.996094 325.300781 333.03125 322.664062 331.605469 320.230469 C 329.6875 316.953125 327.058594 314.371094 323.734375 312.484375 C 321.921875 311.449219 320.605469 310.097656 319.648438 308.289062 C 317.070312 303.429688 313.910156 298.96875 310.523438 294.652344 C 309.921875 293.878906 309.667969 293.117188 309.957031 292.105469 C 310.988281 288.511719 310.179688 285.011719 308.375 281.992188 C 306.867188 279.472656 305.078125 277.042969 303.214844 274.734375 C 300.222656 271.015625 297.074219 267.425781 293.648438 264.078125 C 291.859375 262.324219 290.707031 260.171875 290.277344 257.660156 C 289.714844 254.351562 289.773438 250.964844 288.753906 247.703125 C 287.761719 244.523438 286.378906 241.613281 284.375 238.949219 C 282.167969 236.015625 279.339844 233.695312 276.730469 231.179688 C 273.785156 228.320312 272.804688 224.964844 273.195312 221.050781 C 273.480469 218.28125 273.160156 215.554688 272.648438 212.859375 C 271.890625 208.820312 270.292969 205.074219 268.363281 201.460938 C 267.546875 199.921875 266.714844 198.386719 266.261719 196.65625 C 265.363281 193.179688 265.457031 189.621094 265.316406 186.09375 C 265.207031 183.273438 265.429688 180.433594 265.519531 177.605469 C 265.636719 173.9375 265.898438 170.261719 266.394531 166.628906 C 266.945312 162.613281 265.464844 159.402344 262.503906 157.011719 C 261.152344 155.921875 260.929688 154.902344 261.085938 153.476562 C 261.605469 148.5625 262.078125 143.644531 262.125 138.699219 C 262.132812 138.296875 261.953125 137.84375 262.324219 137.40625 C 264.070312 138.699219 265.808594 139.953125 267.84375 140.703125 C 268.199219 140.839844 268.429688 141.097656 268.429688 141.5 C 268.414062 143.652344 269.277344 145.605469 269.847656 147.617188 C 270.984375 151.636719 273.136719 155.050781 276.53125 157.578125 C 278.253906 158.855469 280.097656 159.945312 282.191406 160.546875 C 282.660156 160.679688 283.222656 160.734375 283.222656 161.503906 C 283.214844 162.417969 283.355469 163.332031 283.4375 164.253906 C 283.75 167.945312 284.542969 171.515625 286.289062 174.804688 C 287.921875 177.882812 290.285156 180.292969 293.613281 181.460938 C 296.324219 182.410156 299.128906 182.804688 301.960938 181.699219 C 302.507812 181.484375 303.167969 181.035156 303.824219 181.558594 C 305.777344 183.101562 308.070312 183.703125 310.46875 184.140625 C 314.792969 184.9375 319.984375 182.789062 322.476562 179.1875 C 323.710938 177.414062 324.519531 175.535156 324.757812 173.402344 C 324.839844 172.660156 325.21875 172.324219 325.917969 172.023438 C 329.074219 170.632812 331.574219 168.414062 332.980469 165.261719 C 336.179688 158.082031 333.648438 150.796875 327.707031 146.03125 C 323.28125 142.480469 318.058594 140.339844 312.855469 138.238281 C 312.253906 137.992188 311.976562 137.765625 311.882812 137.066406 C 310.976562 130.546875 307.597656 125.667969 301.871094 122.472656 C 300.703125 121.820312 300.296875 121.136719 300.304688 119.820312 C 300.324219 115.226562 298.972656 111.042969 296.226562 107.324219 C 294.257812 104.664062 291.785156 102.609375 288.933594 100.980469 C 288.273438 100.609375 287.976562 100.164062 288.234375 99.519531 C 288.5625 98.722656 288.058594 97.558594 289.476562 97.214844 C 292.578125 96.480469 295.667969 95.648438 298.707031 94.644531 C 306.355469 92.105469 313.3125 88.476562 318.632812 82.238281 C 322.574219 77.609375 324.203125 72.390625 322.382812 66.398438 C 320.816406 61.207031 317.28125 57.796875 312.222656 56.246094 C 307.714844 54.863281 302.953125 54.515625 298.289062 53.847656 C 293.234375 53.117188 288.132812 52.710938 283.214844 51.179688 C 280.378906 50.296875 277.503906 49.53125 274.652344 48.707031 C 273.6875 48.425781 273.285156 47.898438 273.121094 46.769531 C 272.839844 44.769531 273.027344 42.757812 272.597656 40.761719 C 271.941406 37.777344 271.273438 34.796875 270.597656 31.8125 C 268.75 23.613281 264.539062 16.847656 258.105469 11.613281 C 252.121094 6.734375 245.089844 3.785156 237.59375 1.957031 C 232.136719 0.628906 226.625 0.175781 221.109375 1.429688 C 213.238281 3.222656 205.707031 5.886719 199.195312 10.863281 C 198.308594 11.539062 197.738281 11.441406 196.945312 10.699219 C 195.242188 9.109375 193.339844 7.757812 191.277344 6.679688 C 184.949219 3.382812 178.230469 1.882812 171.0625 2.085938 C 165.996094 2.226562 161.042969 2.820312 156.195312 4.304688 C 150.007812 6.207031 145.257812 10.066406 141.445312 15.183594 C 136.945312 21.230469 135.410156 28.070312 136.5 35.429688 C 137.347656 41.125 140.527344 45.609375 144.75 49.398438 C 146.972656 51.386719 149.3125 53.222656 151.722656 54.960938 C 155.683594 57.804688 159.902344 60.210938 164.429688 62 C 166.808594 62.9375 166.75 62.964844 167.046875 65.421875 C 167.640625 70.25 169.734375 74.574219 175.324219 76.273438 C 175.972656 76.464844 176.238281 76.660156 176.0625 77.453125 C 175.742188 78.851562 175.332031 80.269531 175.464844 81.722656 C 175.949219 86.976562 177.867188 91.476562 182.402344 94.542969 C 182.699219 94.742188 182.921875 94.949219 183.085938 95.292969 C 185.171875 99.570312 187.75 103.527344 191.0625 106.960938 C 191.664062 107.574219 191.5 107.976562 190.964844 108.480469 C 190.074219 109.320312 189.160156 110.152344 188.382812 111.089844 C 184.875 115.292969 181.460938 119.570312 178.421875 124.136719 C 177.714844 125.199219 176.953125 126.214844 176.128906 127.382812 C 175.472656 125.28125 174.9375 123.378906 174.011719 121.625 C 173.765625 121.160156 173.816406 120.707031 173.945312 120.222656 C 174.433594 118.367188 174.351562 116.570312 173.871094 114.675781 C 172.75 110.226562 166.777344 106.214844 161.792969 107.835938 C 161.074219 108.066406 160.367188 108.238281 159.613281 107.96875 C 154.6875 106.195312 149.652344 105.742188 144.507812 106.738281 C 142.863281 107.054688 141.320312 107.226562 140.382812 105.371094 C 140.175781 104.960938 139.753906 104.628906 139.359375 104.359375 C 137.695312 103.222656 135.929688 102.199219 135.609375 99.925781 C 135.59375 99.84375 135.527344 99.777344 135.476562 99.703125 C 132.113281 94.378906 124.722656 93.519531 119.960938 97.445312 C 119.152344 98.113281 118.730469 99.175781 117.488281 99.472656 C 114.109375 100.28125 110.863281 101.492188 107.910156 103.363281 C 107.316406 103.742188 106.75 103.789062 106.058594 103.582031 C 103.625 102.835938 101.121094 102.304688 98.589844 102.324219 C 96.882812 102.339844 95.410156 102.066406 94.109375 100.953125 C 93.382812 100.328125 92.425781 100.28125 91.550781 100.023438 C 86.394531 98.464844 79.53125 102.117188 79.207031 107.992188 C 79.167969 108.652344 78.730469 109.121094 78.21875 109.484375 C 76.375 110.820312 75.003906 112.574219 73.726562 114.414062 C 73.28125 115.054688 72.910156 115.195312 72.113281 114.988281 C 70.398438 114.550781 68.707031 113.992188 66.835938 114.355469 C 62.207031 115.261719 59.097656 117.652344 58.339844 122.523438 C 58.203125 123.371094 57.773438 123.898438 57.070312 124.382812 C 52.480469 127.574219 49.308594 131.890625 47.214844 137.050781 C 46.984375 137.621094 46.902344 138.277344 46.144531 138.59375 C 40.976562 140.800781 37.507812 146.214844 37.96875 151.664062 C 38.199219 154.375 38.191406 157.09375 38.324219 159.796875 C 38.578125 164.742188 38.679688 169.691406 38.894531 174.644531 C 39.082031 178.972656 39.253906 183.308594 39.410156 187.648438 C 39.570312 192.378906 39.773438 197.109375 39.941406 201.832031 C 40.113281 206.515625 40.277344 211.203125 40.484375 215.882812 C 40.738281 221.660156 40.871094 227.445312 41.066406 233.230469 C 41.144531 235.589844 41.375 237.921875 42.015625 240.226562 C 43.566406 245.765625 49.449219 250.191406 55.191406 249.730469 C 58.121094 249.492188 61.054688 249.507812 63.980469 249.382812 C 70.808594 249.09375 77.640625 248.816406 84.472656 248.558594 C 89.417969 248.371094 94.371094 248.230469 99.316406 248.015625 C 105.53125 247.746094 111.761719 247.644531 117.980469 247.414062 C 123.800781 247.199219 129.625 246.929688 135.4375 246.648438 C 136.625 246.589844 136.894531 246.929688 136.507812 248.089844 C 135.453125 251.253906 133.582031 253.835938 131.152344 256.074219 C 129.632812 257.46875 128.273438 259.019531 126.964844 260.609375 C 122.347656 266.226562 120.058594 272.914062 117.992188 279.734375 C 116.777344 283.75 114.90625 287.425781 111.683594 290.324219 C 109.808594 292.007812 107.65625 293.488281 106.542969 295.878906 C 106.03125 296.984375 105.503906 296.878906 104.574219 296.257812 C 99.21875 292.667969 93.859375 289.0625 87.359375 287.785156 C 85.316406 287.382812 83.359375 286.675781 81.175781 287.308594 C 76.652344 288.613281 72.863281 291.164062 69.195312 293.96875 C 66.253906 296.21875 64.441406 299.265625 63.542969 302.761719 C 62.488281 306.863281 62.289062 311.042969 63.195312 315.238281 C 64.582031 321.707031 66.699219 327.914062 70.332031 333.476562 C 74.863281 340.421875 79.726562 347.046875 86.351562 352.296875 C 91.386719 356.285156 95.9375 360.878906 101.195312 364.625 C 105.339844 367.570312 109.492188 370.402344 114.652344 371.515625 C 118.730469 372.390625 122.621094 372.125 126.347656 370.550781 C 131.226562 368.484375 135.214844 365.210938 137.71875 360.441406 C 138.535156 358.890625 139.664062 357.785156 141.046875 356.863281 C 142.597656 355.839844 143.835938 354.449219 145.078125 353.128906 C 147.148438 350.9375 148.777344 348.351562 150.359375 345.777344 C 151.621094 343.726562 151.589844 343.710938 153.921875 344.140625 C 154.183594 344.1875 154.441406 344.230469 154.695312 344.296875 C 159.589844 345.546875 164.1875 344.722656 168.425781 342.097656 C 171.855469 339.976562 175.117188 337.605469 177.679688 334.398438 C 180.53125 330.832031 183.125 327.113281 185.015625 322.925781 C 187.289062 317.925781 188.597656 312.585938 190.660156 307.515625 C 191.335938 305.859375 191.449219 303.921875 192.523438 302.488281 C 195.226562 298.886719 198.152344 295.449219 200.917969 291.890625 C 203.796875 288.175781 206.480469 284.335938 207.875 279.761719 C 208.394531 278.054688 208.804688 276.289062 209.925781 274.445312 C 210.109375 274.765625 210.183594 274.929688 210.296875 275.070312 C 212.5625 278.097656 215.078125 280.898438 218.003906 283.3125 C 221.273438 286.007812 223.246094 289.351562 223.996094 293.613281 C 224.96875 299.101562 226.953125 304.246094 230.785156 308.480469 C 234.972656 313.105469 238.226562 318.214844 240.292969 324.195312 C 241.5 327.699219 244.316406 330.304688 247.925781 331.53125 C 249.46875 332.058594 249.003906 332.4375 248.402344 333.238281 C 244.859375 337.957031 243.5 343.4375 242.890625 349.160156 C 242.570312 352.117188 243.558594 354.835938 244.40625 357.621094 C 245.519531 361.296875 247.421875 364.355469 250.242188 366.949219 C 254.03125 370.429688 258.714844 371.53125 263.558594 371.679688 C 268 371.8125 272.410156 370.964844 276.792969 370.03125 C 282.515625 368.8125 288.09375 367.082031 293.359375 364.632812 C 305.175781 359.136719 316.753906 353.136719 326.726562 344.574219 C 331.679688 340.308594 335.023438 335.082031 334.292969 328.125 Z M 334.292969 328.125 " fill-opacity="1" fill-rule="nonzero"/></g><path fill="#ffc654" d="M 243.386719 65.945312 C 241.054688 66.070312 239.347656 67.175781 238.175781 69.21875 C 237.363281 70.628906 236.355469 71.023438 235.121094 70.457031 C 227.214844 66.863281 222.148438 61.019531 220.96875 52.234375 C 220.722656 50.421875 220.433594 48.8125 218.496094 48.070312 C 218.21875 47.964844 217.980469 47.726562 217.757812 47.519531 C 214.847656 44.792969 211.625 42.410156 208.972656 39.402344 C 208.566406 38.933594 208.179688 38.6875 207.503906 38.984375 C 200.054688 42.210938 193.890625 46.804688 190.710938 54.605469 C 190.132812 56.023438 189.695312 57.5 189.125 58.925781 C 188.574219 60.308594 188.367188 61.339844 189.152344 62.996094 C 190.972656 66.796875 191.464844 70.984375 190.007812 75.152344 C 189.441406 76.765625 188.753906 78.339844 188.253906 79.972656 C 187.644531 81.976562 188.246094 83.328125 189.960938 84.472656 C 191.492188 85.496094 193.066406 86.492188 193.707031 88.371094 C 193.921875 89.015625 194.269531 89.054688 194.910156 88.847656 C 196.121094 88.453125 197.316406 88.050781 198.421875 87.390625 C 199.832031 86.542969 201.085938 86.753906 201.785156 87.835938 C 202.511719 88.972656 202.089844 90.21875 200.648438 91.15625 C 199.5 91.90625 198.273438 92.492188 196.9375 92.796875 C 196.246094 92.953125 196.179688 93.167969 196.558594 93.742188 C 197.5 95.179688 198.503906 96.554688 199.707031 97.78125 C 201.5625 99.660156 203.707031 100.882812 206.433594 100.929688 C 208.402344 100.957031 210.25 100.453125 212.078125 99.828125 C 213.222656 99.4375 214.238281 99.511719 215.035156 100.535156 C 216.570312 102.503906 217.507812 104.664062 217.261719 107.226562 C 217.21875 107.878906 216.90625 108.710938 217.195312 109.148438 C 217.589844 109.75 218.488281 109.046875 219.132812 109.269531 C 219.996094 109.574219 220.351562 109.148438 220.753906 108.460938 C 222.015625 106.289062 223.464844 104.226562 225.335938 102.546875 C 230.214844 98.175781 235.722656 95.566406 242.496094 96.824219 C 242.75 96.867188 243.03125 97.058594 243.179688 96.71875 C 243.640625 95.632812 244.125 94.550781 244.496094 93.429688 C 244.695312 92.8125 244.042969 92.433594 243.820312 91.921875 C 243.433594 91.039062 242.933594 90.199219 242.628906 89.292969 C 242.355469 88.488281 241.941406 88.238281 241.109375 88.304688 C 239.652344 88.421875 238.210938 88.191406 236.835938 87.703125 C 235.417969 87.199219 234.714844 86.046875 235.046875 84.894531 C 235.410156 83.632812 236.570312 83.121094 238.144531 83.535156 C 239.296875 83.832031 240.445312 84.152344 241.644531 83.988281 C 246.417969 83.328125 249.960938 79.964844 250.933594 75.203125 C 251.90625 70.414062 248.066406 65.691406 243.386719 65.945312 Z M 206.785156 72.324219 C 205.964844 74.230469 203.925781 74.824219 202.214844 73.636719 C 201.363281 73.042969 200.761719 72.234375 200.359375 71.296875 C 199.988281 70.414062 199.632812 69.507812 199.410156 68.578125 C 199.066406 67.175781 198.652344 66.128906 196.832031 66.136719 C 195.398438 66.144531 194.558594 65.023438 194.65625 63.847656 C 194.753906 62.652344 195.6875 61.890625 197.171875 61.917969 C 198.445312 61.941406 199.714844 62.039062 200.96875 62.179688 C 204.917969 62.632812 206.613281 64.363281 207.027344 68.289062 C 207.082031 68.765625 207.082031 69.25 207.109375 69.730469 C 207.132812 70.613281 207.140625 71.492188 206.785156 72.324219 Z M 208.707031 53.535156 C 208.222656 54.605469 207.125 55.035156 205.824219 54.625 C 205.15625 54.417969 204.519531 54.128906 203.851562 53.929688 C 202.3125 53.453125 200.902344 53.414062 199.59375 54.683594 C 198.554688 55.695312 197.253906 55.570312 196.445312 54.648438 C 195.679688 53.777344 195.742188 52.578125 196.652344 51.558594 C 198.078125 49.96875 199.824219 49.109375 201.808594 49.277344 C 203.992188 49.191406 205.804688 49.835938 207.539062 50.699219 C 208.765625 51.304688 209.191406 52.472656 208.707031 53.535156 Z M 245.355469 71.640625 C 244.285156 72.25 244.101562 72.960938 244.347656 74.121094 C 245.015625 77.34375 243.597656 80.082031 240.945312 80.972656 C 240.535156 81.109375 240.097656 81.167969 239.832031 81.234375 C 238.265625 81.167969 237.113281 80.625 236.296875 79.480469 C 235.671875 78.605469 235.640625 77.667969 236.355469 76.816406 C 237.03125 76.007812 237.90625 75.894531 238.859375 76.25 C 239.867188 76.628906 240.222656 76.378906 240.15625 75.316406 C 240.136719 75.011719 240.039062 74.714844 239.980469 74.417969 C 239.386719 71.425781 240.402344 69.328125 243.121094 67.910156 C 244.496094 67.199219 245.816406 67.464844 246.46875 68.585938 C 247.101562 69.65625 246.753906 70.835938 245.355469 71.640625 Z M 228.511719 180.167969 C 229.210938 180.957031 228.957031 181.875 228.5 182.738281 C 225.417969 188.546875 221.242188 193.460938 216.371094 197.84375 C 208.171875 205.226562 198.316406 208.707031 187.625 210.3125 C 185.527344 210.625 183.433594 210.707031 181.320312 210.785156 C 174.984375 210.644531 168.738281 209.820312 162.566406 208.402344 C 161.957031 208.261719 161.765625 208.089844 161.882812 207.347656 C 163.503906 197.464844 166.117188 187.824219 168.699219 178.164062 C 168.984375 177.101562 169.332031 176.78125 170.558594 176.9375 C 175.636719 177.597656 180.703125 178.4375 185.878906 177.957031 C 193.964844 177.191406 200.851562 174.109375 206.269531 167.972656 C 206.761719 167.425781 207.207031 167.179688 207.964844 167.453125 C 212.644531 169.125 217.179688 171.085938 221.398438 173.738281 C 224.152344 175.476562 226.382812 177.777344 228.511719 180.167969 Z M 146.628906 325.449219 C 138.871094 321.089844 130.953125 316.960938 124.386719 310.796875 C 123.847656 310.285156 123.535156 310.292969 123.058594 310.886719 C 121.738281 312.527344 120.40625 314.160156 118.773438 315.519531 C 116.769531 317.191406 114.570312 318.378906 111.867188 318.335938 C 111.140625 318.394531 110.316406 317.992188 109.898438 319.085938 C 108.828125 321.90625 106.949219 324.246094 105.257812 326.703125 C 104.582031 327.683594 102.976562 328.457031 103.222656 329.480469 C 103.484375 330.542969 104.84375 331.359375 105.753906 332.238281 C 112.15625 338.371094 119.269531 343.527344 126.890625 348.046875 C 128.925781 349.257812 130.417969 349.050781 132.148438 347.863281 C 135.039062 345.886719 137.160156 343.226562 138.980469 340.296875 C 141.59375 336.078125 144.320312 331.949219 147.171875 327.886719 C 148.285156 326.320312 148.257812 326.363281 146.628906 325.449219 Z M 141.121094 332.996094 C 139.34375 334.695312 137.117188 335.253906 134.890625 335.378906 C 130.464844 335.28125 126.898438 332.542969 125.8125 328.5 C 125.703125 328.085938 125.621094 327.640625 125.628906 327.210938 C 125.644531 325.910156 126.488281 324.9375 127.640625 324.847656 C 128.769531 324.757812 129.660156 325.457031 129.921875 326.757812 C 130.335938 328.84375 131.488281 330.253906 133.558594 330.828125 C 134.984375 331.21875 136.335938 330.921875 137.601562 330.195312 C 137.941406 329.996094 138.261719 329.765625 138.609375 329.578125 C 139.738281 329 140.925781 329.222656 141.542969 330.152344 C 142.234375 331.210938 141.957031 332.191406 141.121094 332.996094 Z M 307.113281 322.078125 C 299.894531 327.320312 292.179688 331.761719 284.457031 336.195312 C 283.816406 336.558594 283.527344 336.46875 283.132812 335.839844 C 281.003906 332.410156 278.269531 329.519531 274.933594 327.226562 C 274.585938 326.988281 274.230469 326.847656 274.511719 326.222656 C 276.433594 321.90625 275.738281 317.652344 274.097656 313.449219 C 273.761719 312.59375 273.367188 311.75 272.894531 310.96875 C 272.519531 310.351562 272.683594 310.078125 273.234375 309.734375 C 280.503906 305.265625 287.308594 300.171875 293.6875 294.503906 C 294.15625 294.089844 294.390625 294.175781 294.71875 294.617188 C 296.261719 296.695312 297.898438 298.707031 299.34375 300.855469 C 300.652344 302.792969 300.488281 305.398438 299.183594 306.875 C 297.898438 308.332031 295.046875 308.910156 293.09375 308.101562 C 292.890625 308.019531 292.699219 307.910156 292.492188 307.835938 C 291.265625 307.394531 290.160156 307.753906 289.652344 308.753906 C 289.15625 309.734375 289.484375 310.945312 290.515625 311.636719 C 292.5 312.964844 294.703125 313.105469 296.96875 312.691406 C 300.242188 312.089844 302.738281 310.433594 304.105469 307.054688 C 305.851562 309.519531 307.433594 311.835938 308.597656 314.398438 C 308.835938 314.917969 309.035156 315.453125 309.191406 316.003906 C 310.113281 319.242188 309.816406 320.109375 307.113281 322.078125 Z M 307.113281 322.078125 " fill-opacity="1" fill-rule="nonzero"/><path fill="#3cb87e" d="M 279.53125 300.191406 C 270.804688 306.230469 262.035156 312.238281 251.996094 316.03125 C 250.910156 316.441406 250.578125 316.300781 250.167969 315.203125 C 248.625 311.003906 246.386719 307.160156 243.292969 303.921875 C 239.296875 299.738281 236.6875 294.972656 235.730469 289.203125 C 234.75 283.261719 231.691406 278.34375 227.058594 274.5625 C 220.773438 269.457031 216.667969 263.023438 214.988281 255.175781 C 213.320312 247.363281 209.359375 241.042969 203.730469 235.515625 C 198.421875 230.296875 195.695312 223.796875 195.140625 216.386719 C 195.085938 215.734375 194.992188 215.078125 194.910156 214.433594 C 194.707031 213.378906 195.152344 213.039062 196.199219 212.808594 C 204.75 210.90625 212.382812 207.179688 219 201.363281 C 225.179688 195.933594 230.078125 189.601562 233.742188 182.203125 C 236.363281 176.90625 238.648438 171.523438 240.054688 165.789062 C 240.351562 164.574219 240.832031 164.371094 242.058594 164.625 C 245.320312 165.285156 248.617188 165.753906 251.898438 166.265625 C 253.761719 166.554688 253.882812 166.683594 253.644531 168.480469 C 252.613281 176.292969 252.679688 184.148438 252.96875 192 C 253.175781 197.664062 254.617188 203.078125 257.542969 208.03125 C 260.046875 212.273438 261.113281 216.871094 260.726562 221.777344 C 260.386719 226.078125 261.011719 230.175781 263.171875 233.949219 C 265.132812 237.375 267.6875 240.34375 270.710938 242.847656 C 274.816406 246.253906 277.230469 250.398438 277.421875 255.835938 C 277.691406 263.210938 280.757812 269.304688 286.050781 274.421875 C 289.230469 277.496094 292.320312 280.707031 294.644531 284.523438 C 296.085938 286.890625 295.839844 286.476562 294.09375 288.140625 C 289.542969 292.5 284.730469 296.597656 279.53125 300.191406 Z M 199.148438 241.734375 C 197.464844 240.269531 195.6875 239.03125 193.261719 239.480469 C 192.792969 239.570312 192.292969 239.496094 191.8125 239.496094 C 191.8125 239.480469 191.8125 239.46875 191.8125 239.453125 C 185.722656 239.71875 179.640625 240.03125 173.550781 240.253906 C 166.753906 240.507812 159.960938 240.683594 153.164062 240.863281 C 152.453125 240.878906 152.058594 241.09375 151.746094 241.738281 C 150.757812 243.8125 149.988281 245.964844 149.503906 248.195312 C 148.027344 255.070312 144.667969 260.832031 139.515625 265.59375 C 138.222656 266.789062 137.101562 268.132812 136.019531 269.523438 C 133.144531 273.210938 131.828125 277.601562 130.515625 281.960938 C 128.503906 288.628906 125.589844 294.71875 120.3125 299.457031 C 119.804688 299.910156 119.796875 300.246094 120.273438 300.75 C 124.351562 305.0625 128.636719 309.1875 133.558594 312.492188 C 142.648438 318.582031 152.257812 323.777344 162.160156 328.425781 C 164.609375 329.578125 164.9375 329.542969 166.800781 327.609375 C 170.097656 324.1875 172.675781 320.257812 174.351562 315.832031 C 176.34375 310.589844 178.09375 305.25 179.945312 299.949219 C 180.703125 297.773438 181.726562 295.738281 183.152344 293.941406 C 185.144531 291.429688 187.199219 288.980469 189.210938 286.492188 C 192.28125 282.695312 195.199219 278.835938 196.550781 273.992188 C 198.421875 267.292969 201.925781 261.539062 207.089844 256.835938 C 207.695312 256.28125 207.785156 255.777344 207.5625 255.003906 C 206.035156 249.761719 203.277344 245.3125 199.148438 241.734375 Z M 89.484375 214.261719 C 95.535156 211.8125 101.039062 208.367188 106.476562 204.816406 C 108.355469 203.589844 110.054688 202.136719 111.835938 200.792969 C 112.898438 199.988281 113.953125 200.183594 114.761719 201.125 C 115.515625 201.996094 115.515625 203.027344 114.660156 203.976562 C 114.074219 204.625 113.425781 205.230469 112.734375 205.765625 C 109.804688 208.078125 106.648438 210.074219 103.476562 212.027344 C 97.972656 215.421875 92.328125 218.519531 85.957031 220.003906 C 84.984375 220.234375 85.316406 220.722656 85.617188 221.25 C 87.042969 223.828125 89.921875 225.132812 93.011719 224.652344 C 98.671875 223.769531 103.691406 221.324219 108.511719 218.375 C 112.789062 215.761719 116.316406 212.292969 119.730469 208.679688 C 120.792969 207.554688 121.871094 207.46875 122.875 208.285156 C 123.75 208.996094 123.882812 210.40625 123.050781 211.492188 C 122.21875 212.5625 121.320312 213.59375 120.355469 214.542969 C 117.089844 217.746094 113.582031 220.648438 109.585938 222.9375 C 109.328125 223.085938 108.964844 223.226562 109.132812 223.613281 C 109.269531 223.917969 109.59375 224.003906 109.921875 223.976562 C 110.179688 223.953125 110.441406 223.902344 110.703125 223.855469 C 115.691406 223.105469 120.171875 221.042969 124.453125 218.472656 C 128.828125 215.851562 132.683594 212.488281 137.035156 209.835938 C 139.398438 208.394531 141.667969 206.804688 144.378906 206.078125 C 148.414062 204.996094 152.386719 205.484375 156.300781 206.652344 C 157.332031 206.960938 157.628906 206.613281 157.761719 205.722656 C 159.160156 196.433594 161.707031 187.410156 164.097656 178.347656 C 164.789062 175.75 164.789062 175.816406 162.089844 175.222656 C 155.792969 173.832031 149.503906 172.398438 143.898438 168.96875 C 143.074219 168.464844 142.554688 167.929688 142.464844 166.941406 C 142.351562 165.769531 142.203125 164.585938 141.988281 163.429688 C 140.964844 158.007812 137.160156 155.148438 131.703125 155.773438 C 129.179688 156.0625 126.710938 156.679688 124.277344 157.445312 C 119.070312 159.085938 114.214844 161.550781 109.203125 163.644531 C 104.671875 165.539062 100.03125 167.140625 95.03125 167.34375 C 93.917969 167.386719 92.894531 167.816406 91.996094 168.488281 C 89.648438 170.253906 89.75 173.492188 92.164062 175.15625 C 93.84375 176.304688 95.746094 176.683594 97.683594 176.5 C 101.996094 176.078125 106.113281 174.875 109.898438 172.703125 C 111.199219 171.960938 112.320312 170.972656 113.449219 169.992188 C 114.480469 169.101562 115.816406 169.167969 116.648438 170.046875 C 117.511719 170.953125 117.445312 172.148438 116.449219 173.21875 C 116.0625 173.632812 115.632812 174.011719 115.195312 174.375 C 111.242188 177.65625 106.578125 179.375 101.648438 180.457031 C 101.03125 180.589844 100.476562 180.777344 99.949219 181.109375 C 98.089844 182.285156 96.101562 183.214844 94.058594 184.03125 C 89.582031 185.820312 84.992188 187.3125 80.433594 188.878906 C 77.609375 189.851562 75.09375 191.328125 73.382812 193.914062 C 71.972656 196.046875 72.21875 199.664062 75.78125 200.835938 C 77.683594 201.460938 79.585938 201.4375 81.472656 200.894531 C 86.765625 199.363281 91.734375 197.070312 96.578125 194.472656 C 99.671875 192.808594 102.523438 190.757812 105.4375 188.804688 C 106.757812 187.921875 107.992188 188.121094 108.703125 189.132812 C 109.425781 190.148438 109.113281 191.605469 107.917969 192.480469 C 100.289062 198.09375 91.957031 202.335938 82.914062 205.136719 C 80.972656 205.738281 78.9375 206.027344 76.933594 205.675781 C 75.5 205.425781 74.78125 206.078125 74.164062 207.101562 C 73.585938 208.070312 73.390625 209.144531 73.445312 210.109375 C 73.4375 213.863281 75.351562 215.859375 78.960938 216.082031 C 82.609375 216.3125 86.105469 215.628906 89.484375 214.261719 Z M 203.804688 27.207031 C 204.882812 28.367188 206.0625 29.429688 207.09375 30.617188 C 209.820312 33.773438 212.472656 37.003906 215.621094 39.742188 C 218.054688 41.859375 220.367188 44.175781 223.210938 45.78125 C 228.683594 48.863281 234.335938 51.484375 240.441406 53.171875 C 248.371094 55.355469 256.070312 58.375 264.300781 59.410156 C 264.871094 59.484375 265.757812 59.957031 265.925781 59.335938 C 266.128906 58.621094 265.109375 58.621094 264.582031 58.4375 C 261.417969 57.328125 260.765625 56.421875 260.789062 53.015625 C 260.789062 52.398438 260.789062 51.789062 260.789062 51.171875 C 260.800781 45.617188 259.949219 40.195312 258.515625 34.835938 C 257.132812 29.660156 254.652344 25.195312 250.523438 21.683594 C 247.949219 19.492188 244.992188 18.007812 241.941406 16.648438 C 237.410156 14.636719 232.753906 13.210938 227.746094 13.238281 C 224.5625 13.261719 221.511719 14.09375 218.503906 15.058594 C 213.015625 16.824219 207.980469 19.402344 203.777344 23.433594 C 203.144531 24.035156 202.046875 24.632812 202.023438 25.261719 C 201.984375 26.058594 203.183594 26.546875 203.804688 27.207031 Z M 152.832031 39.714844 C 156.960938 43.292969 161.289062 46.523438 166.199219 48.972656 C 169.511719 50.625 172.941406 51.921875 176.484375 52.941406 C 177.277344 53.171875 177.902344 53.082031 178.199219 52.085938 C 178.511719 51.039062 179.007812 50.050781 179.433594 49.042969 C 183.136719 40.261719 188.753906 33.207031 197.550781 29.058594 C 198.449219 28.632812 198.449219 28.359375 197.707031 27.75 C 195.167969 25.664062 192.5625 23.636719 190.171875 21.394531 C 185.097656 16.632812 179.023438 14.648438 172.214844 14.507812 C 169.792969 14.523438 167.402344 14.789062 165.011719 15.058594 C 158.980469 15.742188 154.144531 18.460938 150.9375 23.644531 C 147.722656 28.835938 147.59375 35.175781 152.832031 39.714844 Z M 321.832031 329.550781 C 321.4375 326.777344 319.871094 324.527344 317.25 323.363281 C 314.949219 322.339844 312.867188 323.320312 311.003906 324.691406 C 300.570312 332.414062 289.296875 338.773438 277.824219 344.742188 C 271.296875 348.144531 264.589844 351.234375 257.625 353.675781 C 256.445312 354.09375 256.523438 354.574219 256.976562 355.496094 C 258.515625 358.585938 261.351562 358.964844 264.121094 359.15625 C 271.777344 358.71875 278.980469 357.078125 285.828125 354.117188 C 295.757812 349.832031 305.273438 344.75 314.132812 338.519531 C 316.210938 337.058594 318.238281 335.503906 319.953125 333.605469 C 321.015625 332.445312 322.046875 331.054688 321.832031 329.550781 Z M 125.960938 352.554688 C 119.65625 348.753906 113.417969 344.882812 107.820312 340.019531 C 102.363281 335.28125 97.371094 330.164062 93.117188 324.328125 C 88.035156 317.363281 84.078125 309.839844 81.695312 301.53125 C 81.539062 300.988281 81.335938 300.875 80.882812 301.15625 C 76.703125 303.816406 75.226562 304.320312 75.277344 309.675781 C 75.1875 310.84375 75.417969 312.230469 75.695312 313.605469 C 76.828125 319.242188 79.25 324.3125 82.464844 329.027344 C 85.042969 332.792969 87.605469 336.589844 91.042969 339.640625 C 94.808594 342.992188 98.617188 346.296875 102.464844 349.546875 C 106.214844 352.71875 110.03125 355.792969 114.371094 358.171875 C 119.414062 360.933594 123.585938 358.75 126.453125 354.828125 C 127.203125 353.8125 127.070312 353.222656 125.960938 352.554688 Z M 265.832031 78.339844 C 267.167969 79.101562 268.609375 79.636719 270.0625 80.121094 C 273.457031 81.25 276.515625 82.867188 278.597656 85.929688 C 278.871094 86.335938 279.234375 86.507812 279.726562 86.476562 C 281.1875 86.210938 282.664062 86.007812 284.105469 85.667969 C 290.558594 84.167969 296.984375 82.554688 302.769531 79.164062 C 305.65625 77.46875 308.429688 75.582031 310.078125 72.53125 C 311.183594 70.480469 310.246094 68.492188 307.953125 68.050781 C 306.066406 67.695312 304.148438 67.371094 302.242188 67.28125 C 296.375 67.003906 290.507812 66.863281 284.640625 66.65625 C 281.492188 66.546875 278.359375 66.167969 275.246094 65.726562 C 272.90625 65.394531 270.589844 64.933594 268.25 64.605469 C 267.710938 64.53125 266.90625 64.152344 266.804688 65.3125 C 266.460938 69.152344 265.777344 72.9375 265.050781 76.71875 C 264.910156 77.46875 265.167969 77.960938 265.832031 78.339844 Z M 213.363281 137.734375 C 213.777344 134.792969 214.226562 131.84375 214.671875 128.910156 C 214.804688 128.066406 214.550781 127.746094 213.636719 127.773438 C 211.625 127.84375 209.613281 127.917969 207.601562 128.074219 C 205.757812 128.214844 204.703125 126.660156 205.394531 124.921875 C 205.632812 124.316406 205.972656 123.742188 206.308594 123.179688 C 208.460938 119.546875 210.167969 115.699219 211.738281 111.785156 C 211.855469 111.480469 212.300781 111.015625 211.8125 110.761719 C 211.410156 110.5625 210.980469 110.910156 210.667969 111.238281 C 210.546875 111.363281 210.472656 111.527344 210.386719 111.683594 C 209.835938 112.582031 209.292969 113.488281 208.742188 114.378906 C 204.917969 120.578125 201.519531 127.019531 197.878906 133.324219 C 192.96875 141.839844 188.21875 150.417969 184.332031 159.472656 C 183.292969 161.890625 182.527344 164.261719 182.804688 166.933594 C 182.996094 168.804688 183.054688 170.699219 183.054688 172.578125 C 183.054688 173.558594 183.449219 173.773438 184.320312 173.675781 C 187.191406 173.34375 190.066406 172.972656 192.816406 172.035156 C 195.792969 171.019531 198.40625 169.386719 200.746094 167.179688 C 200.367188 166.75 200.03125 166.851562 199.75 166.859375 C 197.476562 166.917969 195.414062 166.207031 193.527344 165.035156 C 190.570312 163.191406 188.558594 160.519531 188.996094 156.996094 C 189.703125 151.316406 192.25 146.214844 195.109375 141.304688 C 195.710938 140.28125 196.667969 139.796875 197.84375 139.730469 C 202.519531 139.464844 207.167969 138.75 211.871094 138.929688 C 212.8125 138.960938 213.238281 138.640625 213.363281 137.734375 Z M 207.875 143.371094 C 205.871094 143.550781 202.601562 143.851562 199.335938 144.121094 C 198.742188 144.171875 198.355469 144.410156 198.09375 144.929688 C 196.371094 148.390625 194.789062 151.910156 193.714844 155.625 C 192.925781 158.335938 193.839844 160.132812 196.347656 161.484375 C 198.445312 162.605469 200.65625 162.332031 202.898438 162.226562 C 205.214844 162.121094 206.34375 160.851562 207.25 158.90625 C 209.128906 154.867188 210.394531 150.632812 211.515625 146.347656 C 212.308594 143.324219 212.273438 143.320312 207.875 143.371094 Z M 92.105469 303.132812 C 90.425781 302.0625 88.644531 301.238281 86.78125 300.660156 C 86.230469 300.570312 86.128906 300.808594 86.269531 301.261719 C 86.371094 301.597656 86.425781 301.945312 86.542969 302.28125 C 89.417969 310.621094 93.695312 318.171875 99.25 325.011719 C 99.933594 325.851562 100.386719 325.722656 100.972656 324.972656 C 103.1875 322.128906 105.28125 319.210938 106.5 315.765625 C 106.667969 315.28125 106.796875 314.851562 106.386719 314.429688 C 105.445312 313.449219 104.539062 312.4375 103.570312 311.480469 C 100.171875 308.117188 96.101562 305.671875 92.105469 303.132812 Z M 278.65625 339.316406 C 279.28125 338.996094 279.820312 338.75 279.226562 337.859375 C 277.265625 334.949219 274.914062 332.476562 271.972656 330.542969 C 271.4375 330.195312 271.035156 330.179688 270.574219 330.582031 C 268.117188 332.707031 265.398438 334.480469 262.75 336.335938 C 258.464844 339.335938 256.355469 343.628906 255.53125 348.65625 C 255.394531 349.445312 255.574219 349.734375 256.421875 349.386719 C 258.160156 348.664062 259.933594 348.039062 261.671875 347.3125 C 267.449219 344.914062 273.070312 342.152344 278.65625 339.316406 Z M 278.65625 339.316406 " fill-opacity="1" fill-rule="nonzero"/><path fill="#a293dd" d="M 249.78125 128.835938 C 249.996094 138.507812 249.121094 148.160156 248.230469 157.816406 C 248.222656 157.902344 248.214844 157.992188 248.214844 158.074219 C 247.992188 161.1875 247.992188 161.1875 244.96875 160.644531 C 241.382812 160 241.40625 160.003906 242.183594 156.417969 C 244.027344 147.984375 245.480469 139.457031 247.546875 131.066406 C 247.671875 130.558594 247.710938 130.019531 247.671875 129.5 C 247.597656 128.414062 246.988281 127.695312 245.921875 127.476562 C 244.820312 127.261719 244.035156 127.789062 243.597656 128.769531 C 243.367188 129.28125 243.277344 129.863281 243.148438 130.410156 C 240.601562 141.121094 238.785156 151.984375 236.289062 162.707031 C 235.257812 167.15625 233.917969 171.515625 232.019531 175.691406 C 231.625 176.542969 231.394531 176.902344 230.585938 175.949219 C 227.28125 172.082031 223.164062 169.257812 218.582031 167.128906 C 216 165.925781 213.429688 164.691406 210.726562 163.761719 C 210.304688 163.613281 209.730469 163.609375 210.164062 162.828125 C 213.875 156.136719 215.589844 148.808594 217.164062 141.402344 C 218.433594 135.433594 218.886719 129.335938 219.972656 123.34375 C 220.996094 117.699219 222.964844 112.433594 226.5 107.851562 C 229.226562 104.316406 232.746094 102.011719 237.148438 101.078125 C 241.277344 100.203125 244.636719 101.703125 246.625 105.453125 C 248.75 109.445312 249.597656 113.777344 249.699219 118.253906 C 249.773438 121.773438 250.035156 125.28125 249.78125 128.835938 Z M 109.953125 128.183594 C 112.359375 126.378906 112.445312 126.253906 111.207031 123.46875 C 110.953125 122.910156 110.671875 122.363281 110.34375 121.839844 C 106.980469 116.523438 102.085938 114.355469 95.902344 114.851562 C 95.078125 114.921875 93.976562 114.816406 93.597656 115.449219 C 93.25 116.027344 94.222656 116.652344 94.625 117.253906 C 95.425781 118.441406 95.382812 119.53125 94.480469 120.328125 C 93.578125 121.128906 92.460938 121.078125 91.398438 120.148438 C 90.664062 119.511719 90.117188 118.699219 89.65625 117.855469 C 89.253906 117.105469 88.867188 117.109375 88.222656 117.550781 C 85.117188 119.621094 83.007812 122.449219 81.6875 125.910156 C 81.351562 126.773438 81.433594 127.242188 82.460938 127.664062 C 88.445312 130.152344 92.292969 134.503906 93.820312 140.875 C 94.050781 141.824219 93.546875 143.175781 94.460938 143.644531 C 95.253906 144.054688 96.429688 143.726562 97.429688 143.726562 C 97.429688 143.699219 97.429688 143.667969 97.429688 143.636719 C 98.484375 143.585938 99.53125 143.511719 100.585938 143.480469 C 101.160156 143.46875 101.417969 143.289062 101.464844 142.648438 C 101.878906 136.433594 105.101562 131.816406 109.953125 128.183594 Z M 160.875 125.570312 C 159.921875 126.417969 158.933594 127.226562 157.746094 127.730469 C 156.457031 128.28125 155.253906 127.917969 154.671875 126.839844 C 154.128906 125.820312 154.515625 124.695312 155.660156 123.90625 C 156.382812 123.410156 157.085938 122.890625 157.808594 122.398438 C 158.410156 121.984375 158.355469 121.679688 157.777344 121.234375 C 155.332031 119.355469 152.578125 118.566406 149.519531 118.855469 C 148.902344 118.855469 148.285156 118.804688 147.675781 118.863281 C 142.671875 119.339844 138.707031 121.648438 135.757812 125.710938 C 135.410156 126.195312 135.171875 126.578125 135.78125 127.160156 C 139.738281 130.9375 141.863281 135.558594 141.90625 141.070312 C 141.914062 141.839844 142.175781 142.019531 142.910156 141.988281 C 149.304688 141.722656 155.707031 141.476562 162.097656 141.261719 C 162.902344 141.230469 163.363281 141.015625 163.660156 140.222656 C 165.625 135.046875 164.660156 130.25 161.867188 125.667969 C 161.542969 125.09375 161.28125 125.207031 160.875 125.570312 Z M 123.683594 127.566406 C 119.144531 127.992188 114.117188 129.796875 110.121094 133.871094 C 107.863281 136.167969 106.3125 138.886719 105.898438 142.160156 C 105.785156 143.058594 106.015625 143.371094 106.996094 143.324219 C 113.65625 143.027344 120.320312 142.792969 126.980469 142.523438 C 130.179688 142.398438 133.375 142.25 136.574219 142.136719 C 137.207031 142.117188 137.464844 141.96875 137.519531 141.253906 C 137.992188 133.953125 131.941406 127.433594 123.683594 127.566406 Z M 75.152344 130.769531 C 71.585938 131.042969 67.644531 132.164062 64.21875 134.644531 C 61.011719 136.96875 58.992188 140.140625 58.285156 144.097656 C 58.136719 144.9375 58.277344 145.160156 59.164062 145.117188 C 63.285156 144.914062 67.40625 144.789062 71.527344 144.632812 C 77.269531 144.410156 83.007812 144.164062 88.757812 143.957031 C 89.515625 143.925781 89.765625 143.832031 89.65625 142.933594 C 88.769531 136.078125 82.652344 130.664062 75.152344 130.769531 Z M 115.929688 123.511719 C 116.21875 124.566406 116.597656 124.863281 117.617188 124.394531 C 118.285156 124.09375 119.203125 124.136719 119.6875 123.683594 C 120.265625 123.132812 119.546875 122.308594 119.539062 121.582031 C 119.523438 120.378906 119.953125 119.496094 121.144531 119.183594 C 122.273438 118.886719 123.097656 119.429688 123.636719 120.414062 C 123.941406 120.957031 124.070312 121.566406 124.144531 122.175781 C 124.230469 122.851562 124.558594 123.097656 125.273438 123.105469 C 127.078125 123.132812 128.851562 123.429688 130.539062 124.113281 C 131.144531 124.359375 131.472656 124.253906 131.808594 123.691406 C 132.503906 122.523438 133.34375 121.449219 134.347656 120.519531 C 134.753906 120.140625 134.828125 119.808594 134.636719 119.257812 C 132.824219 114.15625 128.925781 111.304688 123.503906 111.171875 C 120.421875 111.097656 114.59375 113.398438 112.171875 115.574219 C 111.660156 116.035156 111.636719 116.316406 112.105469 116.828125 C 113.859375 118.78125 115.238281 120.972656 115.929688 123.511719 Z M 201.695312 115.683594 C 199.699219 117.28125 198.027344 119.199219 196.371094 121.128906 C 190.90625 127.5 186.613281 134.734375 181.535156 141.394531 C 180.953125 142.152344 180.828125 142.738281 181.429688 143.5625 C 181.980469 144.3125 182.089844 145.257812 182.082031 146.199219 C 182.070312 148.316406 182.074219 150.425781 182.074219 152.832031 C 182.527344 152.488281 182.625 152.460938 182.65625 152.394531 C 187.105469 142.449219 193.007812 133.285156 198.152344 123.714844 C 199.75 120.75 201.445312 117.839844 203.09375 114.90625 C 202.4375 114.816406 202.113281 115.359375 201.695312 115.683594 Z M 203.101562 114.90625 C 203.101562 114.90625 203.105469 114.90625 203.101562 114.90625 C 203.105469 114.90625 203.105469 114.898438 203.105469 114.898438 C 203.105469 114.898438 203.105469 114.90625 203.101562 114.90625 Z M 214.96875 123.519531 C 215.507812 123.660156 215.472656 123.179688 215.523438 122.851562 C 215.992188 119.800781 216.972656 116.894531 218.085938 113.910156 C 215.761719 114.171875 215.597656 114.15625 215.382812 114.667969 C 214.171875 117.617188 212.804688 120.496094 211.269531 123.410156 C 212.621094 123.527344 213.800781 123.222656 214.96875 123.519531 Z M 203.128906 114.710938 C 203.121094 114.773438 203.113281 114.839844 203.105469 114.898438 C 203.152344 114.847656 203.203125 114.792969 203.25 114.742188 C 203.210938 114.734375 203.167969 114.71875 203.128906 114.710938 Z M 203.128906 114.710938 " fill-opacity="1" fill-rule="nonzero"/><path fill="#2c2b29" d="M 314.902344 318.558594 C 314.226562 318.640625 314.003906 318.4375 313.953125 317.742188 C 313.761719 315.253906 312.964844 312.949219 311.726562 310.78125 C 308.835938 305.738281 305.421875 301.0625 301.675781 296.636719 C 300.667969 295.441406 300.503906 294.527344 301.328125 293.101562 C 302.597656 290.894531 302.894531 288.273438 301.367188 286.207031 C 299.25 283.363281 297.503906 280.253906 295.082031 277.625 C 292.707031 275.039062 290.398438 272.394531 287.921875 269.894531 C 283.957031 265.882812 282.042969 260.929688 281.847656 255.300781 C 281.65625 249.820312 279.679688 245.148438 275.640625 241.382812 C 274.386719 240.21875 273.175781 239.007812 271.90625 237.855469 C 266.816406 233.246094 264.523438 227.585938 265.117188 220.679688 C 265.480469 216.417969 264.722656 212.289062 262.71875 208.433594 C 261.886719 206.835938 261.105469 205.21875 260.304688 203.613281 C 257.050781 197.113281 257.269531 190.066406 257.253906 183.101562 C 257.238281 177.40625 257.632812 171.703125 258.390625 166.042969 C 258.613281 164.34375 257.652344 163.042969 256.011719 162.582031 C 255.171875 162.34375 254.304688 162.167969 253.441406 162.03125 C 252.679688 161.914062 252.351562 161.648438 252.433594 160.761719 C 252.828125 156.621094 253.160156 152.460938 253.464844 148.308594 C 254.328125 136.65625 254.839844 124.992188 253.652344 113.339844 C 253.207031 108.933594 252.011719 104.546875 248.964844 101.25 C 247.042969 99.167969 247.332031 97.585938 248.4375 95.566406 C 249.078125 94.402344 249.691406 93.226562 250.960938 92.34375 C 251.28125 95.308594 251.625 98.078125 252.34375 100.789062 C 253.300781 104.417969 255.34375 107.191406 258.738281 108.898438 C 260 109.527344 261.328125 109.980469 262.703125 110.269531 C 263.355469 110.414062 263.542969 110.65625 263.410156 111.339844 C 262.824219 114.246094 262.828125 117.191406 262.890625 120.132812 C 262.972656 124.023438 263.957031 127.574219 266.863281 130.410156 C 269.1875 132.683594 272.046875 133.828125 275.113281 134.527344 C 276.109375 134.75 276.351562 135.179688 276.300781 136.136719 C 276.167969 138.425781 276.414062 140.695312 276.886719 142.941406 C 277.914062 147.757812 280.257812 151.488281 285.25 153.015625 C 286.765625 153.484375 288.332031 153.730469 289.914062 153.8125 C 290.894531 153.863281 291.117188 154.257812 291.132812 155.195312 C 291.160156 157.785156 291.226562 160.378906 291.453125 162.953125 C 291.71875 166.109375 292.128906 169.265625 294.09375 171.925781 C 296.449219 175.097656 300.058594 175.007812 302.257812 171.730469 C 302.753906 170.988281 303.15625 170.1875 303.652344 169.324219 C 304.023438 169.914062 304.304688 170.402344 304.625 170.871094 C 306.117188 173.023438 307.804688 174.984375 310.394531 175.859375 C 313.582031 176.945312 316.277344 175.363281 316.863281 172.058594 C 317.078125 170.839844 317.066406 169.609375 316.8125 168.390625 C 316.550781 167.179688 316.261719 165.96875 315.964844 164.667969 C 316.6875 164.832031 317.273438 164.996094 317.875 165.101562 C 321.988281 165.796875 325.472656 163.75 326.230469 160.148438 C 326.703125 157.898438 325.835938 156.003906 324.5 154.289062 C 322.984375 152.339844 320.957031 151.011719 318.796875 149.914062 C 314.375 147.664062 309.921875 145.480469 305.019531 144.441406 C 304.328125 144.292969 304.046875 144 304.148438 143.28125 C 304.378906 141.699219 304.105469 140.125 303.90625 138.558594 C 303.199219 133.046875 299.722656 129.386719 294.273438 128.332031 C 293.25 128.132812 291.761719 128.296875 291.300781 127.679688 C 290.738281 126.929688 291.621094 125.660156 291.84375 124.605469 C 293.640625 116.28125 290.457031 110.203125 282.5625 107.027344 C 281.589844 106.632812 280.609375 106.1875 279.589844 105.980469 C 278.328125 105.71875 278.3125 105.183594 278.664062 104.09375 C 279.976562 100 281.34375 95.894531 280.78125 91.484375 C 280.699219 90.859375 281.054688 90.777344 281.550781 90.703125 C 284.078125 90.347656 286.542969 89.714844 289.007812 89.097656 C 295.335938 87.507812 301.484375 85.480469 306.972656 81.828125 C 309.585938 80.082031 311.949219 78.054688 313.648438 75.375 C 314.753906 73.628906 315.4375 71.730469 314.96875 69.628906 C 314.175781 66.046875 311.652344 64.199219 308.273438 63.566406 C 304.179688 62.800781 300.035156 62.335938 295.914062 61.703125 C 291.800781 61.070312 287.605469 60.820312 283.578125 59.71875 C 277.785156 58.144531 272.007812 56.484375 266.371094 54.367188 C 265.535156 54.054688 265.214844 53.71875 265.230469 52.8125 C 265.316406 47.222656 264.6875 41.71875 263.511719 36.230469 C 261.597656 27.28125 257.261719 20.054688 249.277344 15.355469 C 244.800781 12.71875 240 10.75 234.90625 9.621094 C 232.027344 8.984375 229.101562 8.558594 226.152344 8.917969 C 216.859375 10.039062 208.519531 13.433594 201.429688 19.648438 C 200.507812 20.449219 199.511719 21.214844 198.957031 22.351562 C 198.613281 23.050781 198.324219 22.515625 198.074219 22.304688 C 196.394531 20.894531 194.699219 19.492188 193.066406 18.027344 C 190.050781 15.347656 186.746094 13.210938 182.894531 11.871094 C 176.289062 9.585938 169.613281 9.859375 162.871094 10.960938 C 157.695312 11.796875 153.3125 14.070312 149.777344 17.941406 C 145.183594 22.96875 143.257812 28.78125 144.878906 35.53125 C 145.613281 38.601562 147.675781 40.863281 149.898438 42.960938 C 157.125 49.777344 165.558594 54.46875 175.109375 57.160156 C 176.171875 57.457031 176.386719 57.796875 176.074219 58.859375 C 175.519531 60.753906 175.140625 62.707031 175.199219 64.695312 C 175.273438 67.503906 177.117188 69.046875 179.878906 68.667969 C 181.773438 68.410156 183.351562 67.519531 184.777344 66.292969 C 185.023438 66.085938 185.164062 65.675781 185.609375 65.765625 C 186.679688 69.011719 186.761719 72.203125 185.351562 75.382812 C 184.851562 76.503906 184.386719 77.648438 184.050781 78.828125 C 182.960938 82.675781 184.320312 86.359375 187.617188 88.117188 C 188.839844 88.773438 189.523438 89.679688 190.082031 90.851562 C 191.65625 94.148438 193.417969 97.320312 195.835938 100.097656 C 200.03125 104.902344 205.214844 106.285156 211.296875 104.722656 C 211.617188 104.640625 212.070312 104.160156 212.324219 104.710938 C 212.574219 105.242188 212.167969 105.660156 211.714844 105.867188 C 210.84375 106.277344 209.953125 106.675781 209.035156 106.945312 C 203.566406 108.546875 199.046875 111.601562 195.265625 115.796875 C 190.699219 120.863281 186.695312 126.355469 182.898438 132.015625 C 181.238281 134.488281 179.574219 136.976562 177.589844 139.21875 C 177.039062 139.84375 176.46875 140.644531 175.628906 140.683594 C 173.195312 140.785156 170.742188 140.71875 168.328125 140.71875 C 169.957031 134.5625 169.132812 128.601562 165.476562 123.148438 C 164.675781 121.953125 164.578125 121.144531 165.398438 119.933594 C 166.605469 118.144531 166.414062 116.761719 165.167969 116.019531 C 163.957031 115.304688 162.902344 115.773438 161.71875 117.632812 C 161.402344 118.128906 161.207031 118.308594 160.628906 117.882812 C 153.871094 112.960938 146.785156 113.496094 139.597656 116.761719 C 138.667969 117.183594 138.453125 116.941406 138.105469 116.183594 C 136.351562 112.359375 133.632812 109.46875 129.652344 107.953125 C 128.605469 107.554688 128.21875 107.242188 128.6875 106.0625 C 129.179688 104.835938 128.515625 103.691406 127.394531 103.285156 C 126.339844 102.90625 125.273438 103.386719 124.679688 104.53125 C 124.453125 104.960938 124.269531 105.40625 124.136719 105.867188 C 123.933594 106.550781 123.542969 106.765625 122.804688 106.824219 C 117.511719 107.226562 112.898438 109.335938 108.890625 112.75 C 108.289062 113.265625 107.9375 113.242188 107.328125 112.894531 C 103.066406 110.464844 98.492188 109.8125 93.726562 110.792969 C 92.277344 111.089844 91.460938 111.140625 91.132812 109.386719 C 90.910156 108.164062 89.625 107.589844 88.585938 107.871094 C 87.539062 108.164062 86.878906 109.210938 87.019531 110.449219 C 87.070312 110.878906 87.144531 111.324219 87.316406 111.726562 C 87.644531 112.523438 87.441406 112.960938 86.675781 113.40625 C 82.925781 115.589844 80.15625 118.699219 78.335938 122.636719 C 77.789062 123.816406 77.730469 125.539062 76.835938 126.164062 C 75.878906 126.832031 74.199219 126.328125 72.878906 126.667969 C 72.246094 126.832031 71.90625 126.648438 71.652344 126.050781 C 71.238281 125.085938 70.851562 124.097656 70.117188 123.304688 C 69.234375 122.347656 68.089844 122.144531 67.160156 122.769531 C 66.226562 123.394531 65.980469 124.515625 66.535156 125.6875 C 66.6875 126.007812 66.855469 126.320312 67.058594 126.601562 C 67.746094 127.589844 67.523438 128.074219 66.367188 128.546875 C 59.792969 131.257812 55.539062 136.011719 54.039062 143.050781 C 53.5625 145.277344 53.613281 145.285156 51.386719 145.433594 C 48.214844 145.644531 46.019531 147.996094 46.128906 151.175781 C 46.402344 159.203125 46.714844 167.230469 47.019531 175.257812 C 47.605469 190.742188 48.195312 206.226562 48.78125 221.710938 C 48.957031 226.492188 49.113281 231.277344 49.332031 236.058594 C 49.484375 239.554688 51.855469 241.761719 55.316406 241.652344 C 60.976562 241.464844 66.632812 241.257812 72.292969 241.035156 C 87.035156 240.460938 101.769531 239.867188 116.507812 239.296875 C 125.234375 238.957031 133.96875 238.621094 142.703125 238.308594 C 144.601562 238.242188 146.511719 238.300781 148.523438 238.300781 C 146.890625 241.390625 145.761719 244.613281 145.011719 247.957031 C 143.808594 253.296875 141.195312 257.816406 137.296875 261.628906 C 135.789062 263.097656 134.316406 264.605469 132.988281 266.253906 C 129.617188 270.414062 127.835938 275.316406 126.4375 280.363281 C 124.402344 287.746094 120.644531 293.960938 114.644531 298.773438 C 113.21875 299.917969 112.871094 301.449219 113.121094 303.148438 C 113.367188 304.835938 114.101562 306.320312 115.253906 307.597656 C 116.078125 308.519531 117.066406 309.253906 118.070312 310.0625 C 116.84375 311.570312 115.484375 312.875 113.710938 313.628906 C 112.691406 314.058594 111.503906 314.660156 111.101562 312.839844 C 111.058594 312.648438 110.84375 312.492188 110.695312 312.335938 C 106.023438 307.402344 100.792969 303.183594 94.949219 299.671875 C 91.429688 297.554688 87.671875 296.25 83.757812 295.230469 C 83.214844 295.089844 82.703125 295.253906 82.230469 295.5 C 79.605469 296.835938 77.015625 298.21875 74.691406 300.050781 C 73.042969 301.351562 71.945312 302.976562 71.386719 304.988281 C 70.53125 308.070312 70.71875 311.183594 71.34375 314.25 C 73.652344 325.5 79.859375 334.589844 87.769531 342.523438 C 92.285156 347.046875 97.347656 351.035156 102.273438 355.140625 C 105.578125 357.894531 109 360.507812 112.914062 362.386719 C 119.886719 365.746094 127.804688 362.863281 131.042969 355.800781 C 130.761719 353.074219 133.09375 352.59375 134.726562 351.488281 C 137.835938 349.386719 140.214844 346.585938 142.234375 343.464844 C 144.410156 340.117188 146.464844 336.691406 148.761719 333.417969 C 149.175781 332.832031 149.421875 332.683594 150.0625 333.179688 C 151.628906 334.398438 153.351562 335.347656 155.207031 336.070312 C 158.386719 337.292969 161.414062 337.019531 164.269531 335.1875 C 167.15625 333.328125 169.824219 331.210938 172.007812 328.5 C 175.398438 324.277344 177.945312 319.613281 179.683594 314.496094 C 181.15625 310.179688 182.671875 305.882812 184.140625 301.558594 C 184.847656 299.496094 185.878906 297.636719 187.265625 295.960938 C 189.25 293.554688 191.179688 291.109375 193.171875 288.703125 C 196.789062 284.335938 199.789062 279.636719 201.265625 274.082031 C 201.53125 273.070312 201.964844 272.097656 202.351562 271.117188 C 204.265625 266.277344 207.464844 262.394531 211.445312 258.933594 C 211.617188 259.398438 211.75 259.757812 211.871094 260.121094 C 212.820312 262.90625 213.867188 265.644531 215.429688 268.164062 C 217.722656 271.859375 220.691406 274.957031 223.984375 277.757812 C 228.125 281.277344 230.769531 285.628906 231.648438 291.019531 C 232.523438 296.464844 234.808594 301.21875 238.582031 305.242188 C 239.15625 305.851562 239.667969 306.503906 240.222656 307.128906 C 242.859375 310.078125 244.8125 313.425781 246.179688 317.132812 C 246.558594 318.164062 246.9375 319.1875 247.359375 320.207031 C 248.59375 323.199219 250.859375 324.640625 253.941406 324.378906 C 254.765625 324.304688 255.597656 324.179688 256.40625 323.972656 C 261.160156 322.753906 265.554688 320.683594 269.773438 318.214844 C 270.703125 317.675781 270.945312 317.75 271.148438 318.839844 C 271.769531 322.308594 270.6875 324.980469 267.925781 327.164062 C 265.199219 329.320312 262.183594 331.085938 259.5625 333.34375 C 253.070312 338.914062 249.515625 345.628906 251.914062 354.457031 C 253.214844 359.230469 256.011719 362.441406 261.0625 363.316406 C 262.710938 363.597656 264.375 363.726562 266.046875 363.554688 C 271.15625 363.019531 276.242188 362.285156 281.121094 360.597656 C 294.414062 356.015625 306.617188 349.347656 318.03125 341.1875 C 320.316406 339.550781 322.507812 337.785156 324.195312 335.484375 C 325.410156 333.820312 326.363281 331.917969 326.339844 329.933594 C 326.234375 324.230469 320.59375 317.882812 314.902344 318.558594 Z M 299.183594 306.867188 C 297.898438 308.324219 295.046875 308.902344 293.09375 308.09375 C 292.890625 308.011719 292.699219 307.902344 292.492188 307.828125 C 291.265625 307.390625 290.160156 307.746094 289.652344 308.746094 C 289.15625 309.726562 289.484375 310.9375 290.515625 311.628906 C 292.5 312.957031 294.703125 313.101562 296.96875 312.683594 C 300.242188 312.082031 302.738281 310.425781 304.105469 307.046875 C 305.851562 309.511719 307.433594 311.828125 308.597656 314.390625 C 308.835938 314.910156 309.035156 315.445312 309.191406 315.996094 C 310.105469 319.242188 309.808594 320.117188 307.105469 322.078125 C 299.886719 327.320312 292.171875 331.761719 284.449219 336.195312 C 283.808594 336.558594 283.519531 336.46875 283.125 335.839844 C 280.996094 332.410156 278.261719 329.519531 274.925781 327.226562 C 274.578125 326.988281 274.222656 326.847656 274.503906 326.222656 C 276.425781 321.90625 275.730469 317.652344 274.089844 313.449219 C 273.753906 312.59375 273.359375 311.75 272.886719 310.96875 C 272.515625 310.351562 272.675781 310.078125 273.226562 309.734375 C 280.496094 305.265625 287.300781 300.171875 293.679688 294.503906 C 294.148438 294.089844 294.382812 294.175781 294.710938 294.617188 C 296.257812 296.695312 297.890625 298.707031 299.339844 300.855469 C 300.652344 302.777344 300.488281 305.390625 299.183594 306.867188 Z M 249.691406 118.269531 C 249.773438 121.773438 250.027344 125.289062 249.773438 128.835938 C 249.988281 138.507812 249.113281 148.160156 248.222656 157.816406 C 248.214844 157.902344 248.207031 157.992188 248.207031 158.074219 C 247.984375 161.1875 247.984375 161.1875 244.960938 160.644531 C 241.375 160 241.398438 160.003906 242.175781 156.417969 C 244.019531 147.984375 245.476562 139.457031 247.539062 131.066406 C 247.664062 130.558594 247.703125 130.019531 247.664062 129.5 C 247.589844 128.414062 246.980469 127.695312 245.914062 127.476562 C 244.8125 127.261719 244.027344 127.789062 243.589844 128.769531 C 243.359375 129.28125 243.269531 129.863281 243.144531 130.410156 C 240.59375 141.121094 238.777344 151.984375 236.28125 162.707031 C 235.25 167.15625 233.910156 171.515625 232.011719 175.691406 C 231.617188 176.542969 231.386719 176.902344 230.578125 175.949219 C 227.273438 172.082031 223.160156 169.257812 218.578125 167.128906 C 215.992188 165.925781 213.421875 164.691406 210.71875 163.761719 C 210.296875 163.613281 209.722656 163.609375 210.15625 162.828125 C 213.867188 156.136719 215.582031 148.808594 217.15625 141.402344 C 218.429688 135.433594 218.882812 129.335938 219.964844 123.34375 C 220.988281 117.699219 222.957031 112.433594 226.492188 107.851562 C 229.21875 104.316406 232.738281 102.011719 237.140625 101.078125 C 241.269531 100.203125 244.628906 101.703125 246.617188 105.453125 C 248.742188 109.460938 249.597656 113.785156 249.691406 118.269531 Z M 122.859375 208.285156 C 121.855469 207.46875 120.777344 207.554688 119.71875 208.679688 C 116.308594 212.292969 112.773438 215.761719 108.496094 218.375 C 103.675781 221.324219 98.65625 223.761719 92.996094 224.652344 C 89.90625 225.132812 87.027344 223.835938 85.601562 221.25 C 85.3125 220.722656 84.96875 220.234375 85.941406 220.003906 C 92.3125 218.523438 97.957031 215.421875 103.460938 212.027344 C 106.632812 210.074219 109.789062 208.078125 112.722656 205.765625 C 113.410156 205.226562 114.058594 204.625 114.644531 203.976562 C 115.5 203.027344 115.5 201.996094 114.75 201.125 C 113.9375 200.183594 112.886719 199.988281 111.824219 200.792969 C 110.039062 202.136719 108.332031 203.589844 106.460938 204.816406 C 101.023438 208.375 95.523438 211.820312 89.46875 214.261719 C 86.089844 215.628906 82.601562 216.304688 78.9375 216.082031 C 75.328125 215.859375 73.40625 213.863281 73.421875 210.109375 C 73.363281 209.136719 73.554688 208.070312 74.140625 207.105469 C 74.757812 206.078125 75.484375 205.425781 76.910156 205.675781 C 78.910156 206.035156 80.953125 205.738281 82.890625 205.136719 C 91.941406 202.335938 100.265625 198.09375 107.894531 192.480469 C 109.089844 191.597656 109.402344 190.140625 108.679688 189.132812 C 107.96875 188.128906 106.734375 187.921875 105.414062 188.804688 C 102.496094 190.757812 99.652344 192.808594 96.554688 194.472656 C 91.710938 197.078125 86.742188 199.367188 81.449219 200.894531 C 79.5625 201.445312 77.667969 201.46875 75.761719 200.835938 C 72.195312 199.664062 71.957031 196.046875 73.363281 193.914062 C 75.070312 191.328125 77.585938 189.851562 80.410156 188.878906 C 84.96875 187.3125 89.558594 185.828125 94.035156 184.03125 C 96.078125 183.214844 98.0625 182.285156 99.925781 181.113281 C 100.453125 180.777344 101.011719 180.589844 101.625 180.457031 C 106.566406 179.375 111.222656 177.65625 115.171875 174.375 C 115.609375 174.011719 116.039062 173.632812 116.425781 173.21875 C 117.429688 172.148438 117.488281 170.953125 116.628906 170.046875 C 115.796875 169.167969 114.460938 169.101562 113.425781 169.992188 C 112.296875 170.972656 111.175781 171.953125 109.878906 172.703125 C 106.082031 174.875 101.976562 176.078125 97.660156 176.5 C 95.722656 176.691406 93.820312 176.3125 92.144531 175.15625 C 89.722656 173.492188 89.625 170.253906 91.972656 168.488281 C 92.871094 167.8125 93.894531 167.386719 95.007812 167.34375 C 100.007812 167.140625 104.65625 165.539062 109.179688 163.644531 C 114.191406 161.550781 119.046875 159.078125 124.253906 157.445312 C 126.683594 156.679688 129.148438 156.0625 131.679688 155.773438 C 137.140625 155.148438 140.949219 158.007812 141.964844 163.429688 C 142.183594 164.585938 142.335938 165.761719 142.441406 166.941406 C 142.53125 167.921875 143.050781 168.464844 143.875 168.96875 C 149.480469 172.398438 155.765625 173.832031 162.070312 175.222656 C 164.765625 175.816406 164.765625 175.75 164.074219 178.347656 C 161.683594 187.410156 159.136719 196.433594 157.738281 205.722656 C 157.605469 206.613281 157.308594 206.953125 156.277344 206.652344 C 152.363281 205.476562 148.390625 204.988281 144.359375 206.078125 C 141.640625 206.804688 139.367188 208.402344 137.011719 209.835938 C 132.660156 212.488281 128.808594 215.859375 124.433594 218.472656 C 120.148438 221.035156 115.667969 223.101562 110.679688 223.855469 C 110.417969 223.894531 110.160156 223.953125 109.898438 223.976562 C 109.574219 224 109.238281 223.910156 109.113281 223.613281 C 108.949219 223.226562 109.3125 223.085938 109.566406 222.9375 C 113.554688 220.65625 117.066406 217.753906 120.332031 214.542969 C 121.296875 213.59375 122.203125 212.570312 123.027344 211.492188 C 123.875 210.414062 123.734375 208.996094 122.859375 208.285156 Z M 161.882812 207.355469 C 163.503906 197.472656 166.117188 187.832031 168.703125 178.171875 C 168.984375 177.109375 169.332031 176.789062 170.558594 176.945312 C 175.636719 177.605469 180.703125 178.445312 185.878906 177.960938 C 193.964844 177.199219 200.851562 174.117188 206.269531 167.980469 C 206.761719 167.433594 207.207031 167.1875 207.964844 167.460938 C 212.644531 169.132812 217.179688 171.09375 221.398438 173.746094 C 224.144531 175.46875 226.367188 177.769531 228.5 180.167969 C 229.195312 180.957031 228.945312 181.875 228.484375 182.738281 C 225.402344 188.546875 221.226562 193.460938 216.355469 197.84375 C 208.15625 205.226562 198.300781 208.707031 187.609375 210.3125 C 185.515625 210.625 183.421875 210.707031 181.304688 210.785156 C 174.96875 210.644531 168.722656 209.820312 162.550781 208.402344 C 161.957031 208.269531 161.757812 208.097656 161.882812 207.355469 Z M 202.898438 162.234375 C 200.65625 162.335938 198.445312 162.613281 196.347656 161.492188 C 193.832031 160.148438 192.925781 158.347656 193.714844 155.632812 C 194.789062 151.917969 196.378906 148.390625 198.09375 144.9375 C 198.355469 144.410156 198.742188 144.171875 199.335938 144.128906 C 202.601562 143.851562 205.878906 143.554688 207.875 143.378906 C 212.265625 143.320312 212.300781 143.332031 211.507812 146.363281 C 210.386719 150.648438 209.128906 154.882812 207.242188 158.921875 C 206.34375 160.859375 205.214844 162.128906 202.898438 162.234375 Z M 282.363281 111.726562 C 285.242188 113.144531 287.21875 115.300781 287.789062 118.558594 C 288.003906 119.777344 287.945312 120.996094 287.746094 122.21875 C 287.382812 124.441406 286.816406 126.59375 285.964844 128.675781 C 285.28125 130.34375 285.964844 131.660156 287.769531 131.925781 C 289.238281 132.140625 290.730469 132.246094 292.207031 132.4375 C 297.824219 133.175781 299.546875 136.078125 299.769531 141.128906 C 299.828125 142.480469 299.714844 143.847656 299.679688 145.203125 C 299.613281 147.722656 300.15625 148.21875 302.621094 148.457031 C 303.957031 148.582031 305.277344 149.015625 306.570312 149.414062 C 310.699219 150.6875 314.5625 152.566406 318.289062 154.71875 C 319.589844 155.46875 320.777344 156.394531 321.527344 157.742188 C 322.34375 159.203125 321.734375 160.457031 320.085938 160.753906 C 318.871094 160.980469 317.726562 160.644531 316.648438 160.109375 C 315.273438 159.433594 313.929688 158.675781 312.558594 158 C 310.878906 157.175781 309.628906 157.308594 308.84375 158.320312 C 308.09375 159.285156 308.242188 160.519531 309.363281 161.90625 C 311.40625 164.425781 312.386719 167.320312 312.519531 170.519531 C 312.570312 171.835938 312.199219 172.027344 311.0625 171.324219 C 309.480469 170.34375 308.414062 168.894531 307.632812 167.253906 C 306.898438 165.710938 306.28125 164.113281 305.605469 162.546875 C 305.382812 162.027344 305.167969 161.492188 304.894531 160.992188 C 304.328125 160.011719 303.527344 159.328125 302.324219 159.574219 C 301.015625 159.835938 300.4375 160.800781 300.347656 162.046875 C 300.230469 163.800781 300.148438 165.5625 299.554688 167.230469 C 299.234375 168.121094 299.019531 169.519531 298.097656 169.519531 C 297.167969 169.519531 296.886719 168.144531 296.640625 167.222656 C 295.535156 163.074219 295.34375 158.816406 295.460938 154.554688 C 295.566406 150.625 295 149.855469 291.074219 149.503906 C 289.632812 149.378906 288.191406 149.246094 286.789062 148.867188 C 284.476562 148.242188 282.800781 146.847656 281.976562 144.582031 C 280.726562 141.148438 280.253906 137.609375 280.78125 133.96875 C 281.0625 132.023438 280.03125 130.820312 278.078125 130.605469 C 275.617188 130.335938 273.25 129.632812 271.164062 128.25 C 269.335938 127.039062 268.109375 125.332031 267.671875 123.171875 C 266.796875 118.839844 267.085938 114.519531 268.167969 110.273438 C 268.726562 108.09375 268.132812 106.929688 265.898438 106.453125 C 265.464844 106.367188 265.035156 106.285156 264.605469 106.203125 C 259.167969 105.183594 256.933594 102.851562 256.058594 97.351562 C 255.625 94.660156 255.246094 91.980469 255.226562 89.238281 C 255.210938 86.910156 253.800781 86.007812 251.632812 86.773438 C 250.464844 87.191406 249.386719 87.746094 248.40625 88.519531 C 248.050781 88.792969 247.621094 89.691406 247.128906 88.699219 C 246.839844 88.105469 246.054688 87.433594 247.324219 86.8125 C 250.429688 85.273438 252.574219 82.75 254.066406 79.667969 C 256.464844 74.699219 255.769531 69.351562 252.261719 65.421875 C 247.605469 60.21875 239.765625 60.359375 235.753906 65.113281 C 235.425781 65.5 235.183594 65.683594 234.675781 65.378906 C 229.8125 62.519531 226.605469 58.449219 225.476562 52.851562 C 225.4375 52.652344 225.46875 52.433594 225.46875 52.191406 C 225.675781 52.226562 225.808594 52.21875 225.921875 52.273438 C 237.261719 57.597656 249.292969 60.753906 261.449219 63.476562 C 262.207031 63.648438 262.453125 63.84375 262.390625 64.644531 C 262.125 68.417969 261.382812 72.113281 260.726562 75.828125 C 260.195312 78.851562 260.980469 80.691406 263.648438 82.222656 C 265.90625 83.515625 268.429688 84.191406 270.8125 85.191406 C 273.53125 86.335938 275.335938 88.28125 276.203125 91.113281 C 276.71875 92.761719 276.554688 94.402344 276.257812 96.058594 C 275.832031 98.441406 275.089844 100.734375 274.363281 103.039062 C 274.058594 104.003906 273.746094 104.960938 273.507812 105.941406 C 273.046875 107.84375 273.628906 108.867188 275.542969 109.386719 C 277.859375 110.003906 280.183594 110.65625 282.363281 111.726562 Z M 266.804688 65.304688 C 266.90625 64.144531 267.710938 64.523438 268.25 64.597656 C 270.589844 64.933594 272.90625 65.394531 275.246094 65.722656 C 278.367188 66.167969 281.492188 66.539062 284.640625 66.648438 C 290.507812 66.855469 296.375 67 302.242188 67.273438 C 304.15625 67.363281 306.066406 67.6875 307.953125 68.046875 C 310.238281 68.476562 311.175781 70.472656 310.078125 72.523438 C 308.429688 75.582031 305.65625 77.460938 302.769531 79.15625 C 296.984375 82.550781 290.558594 84.160156 284.105469 85.660156 C 282.660156 85.996094 281.1875 86.203125 279.726562 86.46875 C 279.234375 86.5 278.871094 86.335938 278.597656 85.921875 C 276.515625 82.859375 273.457031 81.25 270.0625 80.113281 C 268.609375 79.628906 267.175781 79.09375 265.832031 78.332031 C 265.167969 77.953125 264.910156 77.460938 265.058594 76.703125 C 265.777344 72.933594 266.460938 69.144531 266.804688 65.304688 Z M 203.777344 23.441406 C 207.980469 19.410156 213.015625 16.832031 218.503906 15.066406 C 221.511719 14.09375 224.5625 13.261719 227.746094 13.246094 C 232.753906 13.214844 237.410156 14.640625 241.941406 16.65625 C 245 18.015625 247.949219 19.492188 250.523438 21.691406 C 254.652344 25.203125 257.132812 29.660156 258.515625 34.84375 C 259.949219 40.195312 260.800781 45.625 260.789062 51.179688 C 260.789062 51.796875 260.789062 52.40625 260.789062 53.023438 C 260.773438 56.421875 261.425781 57.335938 264.582031 58.441406 C 265.109375 58.628906 266.121094 58.621094 265.925781 59.339844 C 265.757812 59.964844 264.871094 59.488281 264.300781 59.414062 C 256.070312 58.382812 248.363281 55.367188 240.441406 53.179688 C 234.328125 51.492188 228.683594 48.871094 223.210938 45.789062 C 220.367188 44.183594 218.054688 41.867188 215.621094 39.75 C 212.472656 37.011719 209.820312 33.78125 207.09375 30.625 C 206.0625 29.429688 204.882812 28.367188 203.804688 27.214844 C 203.1875 26.554688 201.984375 26.0625 202.023438 25.277344 C 202.046875 24.636719 203.144531 24.042969 203.777344 23.441406 Z M 178.199219 52.085938 C 177.902344 53.082031 177.277344 53.164062 176.484375 52.941406 C 172.941406 51.921875 169.503906 50.625 166.199219 48.972656 C 161.289062 46.53125 156.960938 43.300781 152.832031 39.714844 C 147.59375 35.175781 147.722656 28.835938 150.9375 23.652344 C 154.144531 18.46875 158.980469 15.742188 165.011719 15.066406 C 167.402344 14.796875 169.792969 14.523438 172.214844 14.515625 C 179.023438 14.65625 185.097656 16.640625 190.171875 21.402344 C 192.5625 23.644531 195.167969 25.679688 197.707031 27.757812 C 198.449219 28.367188 198.449219 28.640625 197.550781 29.0625 C 188.757812 33.222656 183.136719 40.269531 179.433594 49.046875 C 179.007812 50.050781 178.511719 51.046875 178.199219 52.085938 Z M 185.359375 56.46875 C 184.832031 58.28125 184.035156 59.996094 182.980469 61.578125 C 182.34375 62.542969 181.542969 63.335938 180.496094 63.863281 C 179.886719 64.167969 179.453125 64.226562 179.59375 63.539062 C 179.960938 60.835938 180.597656 58.421875 181.445312 56.074219 C 183.65625 49.941406 186.199219 43.992188 190.875 39.230469 C 193.484375 36.578125 196.363281 34.328125 199.839844 32.910156 C 200.085938 32.816406 200.390625 32.746094 200.539062 32.5625 C 201.800781 31.070312 202.507812 32.183594 203.324219 33.089844 C 205.136719 35.085938 205.15625 35.085938 202.796875 36.289062 C 194.253906 40.648438 188.089844 47.058594 185.359375 56.46875 Z M 212.085938 99.824219 C 210.257812 100.445312 208.410156 100.953125 206.441406 100.921875 C 203.714844 100.878906 201.570312 99.652344 199.714844 97.773438 C 198.503906 96.546875 197.5 95.167969 196.566406 93.734375 C 196.1875 93.152344 196.253906 92.9375 196.945312 92.789062 C 198.28125 92.492188 199.503906 91.898438 200.65625 91.148438 C 202.097656 90.214844 202.511719 88.964844 201.792969 87.828125 C 201.09375 86.746094 199.839844 86.535156 198.429688 87.382812 C 197.324219 88.042969 196.132812 88.445312 194.917969 88.839844 C 194.277344 89.046875 193.929688 89.011719 193.714844 88.363281 C 193.074219 86.476562 191.5 85.480469 189.96875 84.464844 C 188.253906 83.3125 187.652344 81.960938 188.261719 79.964844 C 188.757812 78.332031 189.449219 76.757812 190.015625 75.144531 C 191.46875 70.972656 190.980469 66.789062 189.160156 62.988281 C 188.367188 61.332031 188.574219 60.300781 189.132812 58.917969 C 189.703125 57.492188 190.140625 56.015625 190.71875 54.597656 C 193.898438 46.796875 200.0625 42.203125 207.511719 38.980469 C 208.1875 38.6875 208.566406 38.933594 208.980469 39.394531 C 211.632812 42.402344 214.855469 44.785156 217.765625 47.511719 C 217.988281 47.71875 218.226562 47.957031 218.503906 48.0625 C 220.441406 48.804688 220.730469 50.40625 220.976562 52.226562 C 222.15625 61.019531 227.226562 66.863281 235.128906 70.453125 C 236.363281 71.007812 237.371094 70.621094 238.183594 69.210938 C 239.355469 67.167969 241.0625 66.0625 243.394531 65.9375 C 248.074219 65.683594 251.914062 70.414062 250.941406 75.195312 C 249.96875 79.957031 246.425781 83.320312 241.648438 83.980469 C 240.453125 84.144531 239.296875 83.828125 238.152344 83.527344 C 236.578125 83.121094 235.417969 83.632812 235.054688 84.886719 C 234.722656 86.039062 235.433594 87.191406 236.84375 87.695312 C 238.21875 88.191406 239.660156 88.414062 241.117188 88.296875 C 241.953125 88.230469 242.363281 88.484375 242.636719 89.285156 C 242.949219 90.191406 243.441406 91.039062 243.824219 91.914062 C 244.046875 92.425781 244.710938 92.804688 244.5 93.421875 C 244.128906 94.542969 243.648438 95.625 243.1875 96.710938 C 243.046875 97.046875 242.757812 96.859375 242.503906 96.816406 C 235.730469 95.558594 230.222656 98.167969 225.34375 102.539062 C 223.46875 104.21875 222.023438 106.285156 220.761719 108.453125 C 220.359375 109.144531 220.003906 109.566406 219.140625 109.261719 C 218.496094 109.039062 217.605469 109.746094 217.203125 109.144531 C 216.914062 108.703125 217.226562 107.871094 217.269531 107.21875 C 217.515625 104.65625 216.570312 102.496094 215.042969 100.527344 C 214.238281 99.503906 213.222656 99.4375 212.085938 99.824219 Z M 215.382812 114.667969 C 215.597656 114.148438 215.761719 114.171875 218.085938 113.910156 C 216.972656 116.894531 215.992188 119.800781 215.523438 122.851562 C 215.472656 123.179688 215.507812 123.660156 214.96875 123.519531 C 213.800781 123.222656 212.621094 123.527344 211.269531 123.410156 C 212.804688 120.496094 214.171875 117.617188 215.382812 114.667969 Z M 210.394531 111.675781 C 210.480469 111.527344 210.554688 111.355469 210.675781 111.230469 C 210.988281 110.902344 211.417969 110.554688 211.820312 110.753906 C 212.308594 111.007812 211.863281 111.480469 211.746094 111.777344 C 210.175781 115.691406 208.460938 119.53125 206.316406 123.171875 C 205.980469 123.734375 205.640625 124.308594 205.402344 124.917969 C 204.710938 126.652344 205.757812 128.214844 207.609375 128.066406 C 209.621094 127.910156 211.632812 127.835938 213.644531 127.769531 C 214.558594 127.738281 214.8125 128.058594 214.675781 128.902344 C 214.226562 131.84375 213.785156 134.785156 213.371094 137.726562 C 213.246094 138.632812 212.820312 138.945312 211.886719 138.90625 C 207.183594 138.730469 202.535156 139.433594 197.855469 139.710938 C 196.691406 139.777344 195.726562 140.25 195.125 141.285156 C 192.257812 146.191406 189.71875 151.292969 189.011719 156.976562 C 188.574219 160.496094 190.585938 163.167969 193.542969 165.011719 C 195.429688 166.191406 197.492188 166.898438 199.765625 166.839844 C 200.054688 166.832031 200.382812 166.734375 200.761719 167.15625 C 198.421875 169.363281 195.808594 170.996094 192.828125 172.015625 C 190.082031 172.957031 187.207031 173.320312 184.332031 173.65625 C 183.464844 173.757812 183.070312 173.542969 183.070312 172.554688 C 183.0625 170.675781 183.011719 168.785156 182.820312 166.914062 C 182.535156 164.238281 183.308594 161.863281 184.347656 159.449219 C 188.226562 150.394531 192.976562 141.820312 197.894531 133.300781 C 201.53125 126.996094 204.933594 120.558594 208.757812 114.355469 C 209.308594 113.480469 209.84375 112.574219 210.394531 111.675781 Z M 203.25 114.742188 C 203.203125 114.792969 203.152344 114.847656 203.105469 114.898438 C 203.113281 114.839844 203.121094 114.773438 203.128906 114.710938 C 203.167969 114.71875 203.210938 114.734375 203.25 114.742188 Z M 181.535156 141.394531 C 186.613281 134.742188 190.90625 127.507812 196.371094 121.128906 C 198.027344 119.199219 199.699219 117.28125 201.695312 115.683594 C 202.113281 115.359375 202.4375 114.816406 203.101562 114.90625 C 201.453125 117.839844 199.757812 120.75 198.160156 123.714844 C 193.007812 133.277344 187.109375 142.441406 182.664062 152.394531 C 182.632812 152.460938 182.535156 152.488281 182.082031 152.832031 C 182.082031 150.433594 182.074219 148.316406 182.089844 146.199219 C 182.097656 145.257812 181.988281 144.304688 181.4375 143.5625 C 180.828125 142.738281 180.953125 142.152344 181.535156 141.394531 Z M 135.765625 125.703125 C 138.714844 121.640625 142.679688 119.339844 147.683594 118.855469 C 148.292969 118.796875 148.910156 118.847656 149.527344 118.847656 C 152.585938 118.558594 155.332031 119.347656 157.785156 121.226562 C 158.371094 121.671875 158.421875 121.976562 157.8125 122.390625 C 157.09375 122.890625 156.386719 123.410156 155.667969 123.898438 C 154.523438 124.6875 154.136719 125.808594 154.679688 126.832031 C 155.253906 127.917969 156.460938 128.28125 157.753906 127.722656 C 158.941406 127.21875 159.929688 126.410156 160.882812 125.5625 C 161.289062 125.199219 161.550781 125.085938 161.882812 125.652344 C 164.675781 130.242188 165.640625 135.03125 163.671875 140.207031 C 163.367188 141 162.917969 141.21875 162.113281 141.246094 C 155.710938 141.460938 149.320312 141.707031 142.925781 141.972656 C 142.1875 142.003906 141.929688 141.824219 141.921875 141.054688 C 141.878906 135.542969 139.753906 130.925781 135.796875 127.144531 C 135.179688 126.574219 135.417969 126.1875 135.765625 125.703125 Z M 137.511719 141.253906 C 137.464844 141.972656 137.199219 142.121094 136.566406 142.136719 C 133.367188 142.25 130.171875 142.398438 126.972656 142.523438 C 120.3125 142.785156 113.648438 143.023438 106.988281 143.324219 C 106.007812 143.371094 105.777344 143.058594 105.890625 142.160156 C 106.304688 138.886719 107.855469 136.167969 110.113281 133.871094 C 114.117188 129.796875 119.144531 127.992188 123.675781 127.566406 C 131.941406 127.433594 137.992188 133.953125 137.511719 141.253906 Z M 112.179688 115.582031 C 114.601562 113.398438 120.429688 111.101562 123.511719 111.175781 C 128.925781 111.304688 132.824219 114.15625 134.644531 119.265625 C 134.835938 119.8125 134.761719 120.148438 134.355469 120.527344 C 133.351562 121.457031 132.519531 122.53125 131.816406 123.699219 C 131.472656 124.261719 131.152344 124.367188 130.542969 124.121094 C 128.867188 123.445312 127.082031 123.140625 125.28125 123.113281 C 124.566406 123.097656 124.238281 122.859375 124.152344 122.183594 C 124.070312 121.574219 123.941406 120.972656 123.644531 120.421875 C 123.097656 119.4375 122.277344 118.902344 121.148438 119.191406 C 119.960938 119.503906 119.53125 120.386719 119.546875 121.589844 C 119.554688 122.316406 120.273438 123.148438 119.695312 123.691406 C 119.210938 124.144531 118.292969 124.097656 117.621094 124.402344 C 116.605469 124.871094 116.21875 124.574219 115.9375 123.519531 C 115.246094 120.980469 113.863281 118.789062 112.121094 116.84375 C 111.652344 116.316406 111.667969 116.042969 112.179688 115.582031 Z M 81.6875 125.917969 C 83.007812 122.457031 85.117188 119.628906 88.222656 117.558594 C 88.867188 117.125 89.253906 117.117188 89.65625 117.859375 C 90.109375 118.707031 90.664062 119.515625 91.402344 120.15625 C 92.46875 121.085938 93.578125 121.136719 94.480469 120.335938 C 95.382812 119.53125 95.425781 118.441406 94.625 117.257812 C 94.222656 116.664062 93.242188 116.042969 93.597656 115.453125 C 93.976562 114.832031 95.078125 114.929688 95.902344 114.859375 C 102.085938 114.355469 106.980469 116.53125 110.34375 121.847656 C 110.671875 122.367188 110.953125 122.917969 111.207031 123.476562 C 112.445312 126.253906 112.359375 126.386719 109.953125 128.191406 C 105.101562 131.824219 101.878906 136.433594 101.457031 142.664062 C 101.410156 143.3125 101.160156 143.480469 100.578125 143.496094 C 99.523438 143.527344 98.476562 143.601562 97.421875 143.652344 C 97.421875 143.683594 97.421875 143.710938 97.421875 143.742188 C 96.421875 143.742188 95.246094 144.0625 94.453125 143.660156 C 93.53125 143.191406 94.035156 141.832031 93.8125 140.890625 C 92.285156 134.519531 88.4375 130.160156 82.453125 127.679688 C 81.433594 127.25 81.351562 126.78125 81.6875 125.917969 Z M 58.277344 144.105469 C 58.992188 140.148438 61.003906 136.976562 64.210938 134.652344 C 67.636719 132.171875 71.578125 131.042969 75.144531 130.777344 C 82.652344 130.671875 88.769531 136.085938 89.640625 142.933594 C 89.75 143.839844 89.5 143.933594 88.742188 143.957031 C 83 144.164062 77.261719 144.410156 71.511719 144.632812 C 67.390625 144.796875 63.269531 144.914062 59.148438 145.117188 C 58.269531 145.167969 58.128906 144.9375 58.277344 144.105469 Z M 136.589844 234.449219 C 128.695312 234.746094 120.792969 235.019531 112.898438 235.316406 C 104.648438 235.628906 96.40625 235.96875 88.15625 236.28125 C 80.34375 236.578125 72.539062 236.867188 64.726562 237.152344 C 61.613281 237.261719 58.496094 237.367188 55.382812 237.453125 C 53.792969 237.5 53.488281 237.171875 53.421875 235.574219 C 52.84375 220.789062 52.25 206.011719 51.675781 191.226562 C 51.378906 183.457031 51.113281 175.699219 50.832031 167.929688 C 50.628906 162.484375 50.421875 157.050781 50.234375 151.605469 C 50.175781 149.855469 50.488281 149.535156 52.25 149.46875 C 64.925781 148.992188 77.609375 148.539062 90.285156 148.050781 C 104.894531 147.484375 119.5 146.867188 134.109375 146.3125 C 144.855469 145.902344 155.609375 145.539062 166.355469 145.167969 C 169.6875 145.054688 173.007812 144.757812 176.351562 144.878906 C 177.574219 144.921875 177.953125 145.449219 177.992188 146.554688 C 178.175781 151.734375 178.398438 156.910156 178.585938 162.085938 C 178.710938 165.464844 178.785156 168.84375 178.933594 172.222656 C 178.972656 173.054688 178.839844 173.328125 177.894531 173.300781 C 175.082031 173.210938 172.296875 172.90625 169.546875 172.3125 C 164.445312 171.203125 159.335938 170.171875 154.324219 168.6875 C 152.257812 168.070312 150.285156 167.246094 148.324219 166.347656 C 147.105469 165.789062 146.59375 164.980469 146.472656 163.667969 C 146.242188 161.082031 145.257812 158.75 143.832031 156.589844 C 140.84375 152.066406 136.367188 150.988281 131.390625 151.414062 C 124.320312 152.007812 117.898438 154.816406 111.5625 157.742188 C 106.921875 159.886719 102.214844 161.75 97.164062 162.664062 C 96.300781 162.820312 95.417969 162.851562 94.550781 162.917969 C 89.335938 163.339844 85.496094 167.566406 85.84375 172.617188 C 86.046875 175.570312 87.738281 177.636719 90.183594 179.152344 C 90.65625 179.449219 91.164062 179.699219 91.882812 180.101562 C 88.09375 181.542969 84.515625 182.847656 80.878906 183.992188 C 76.710938 185.300781 72.863281 187.121094 70.152344 190.757812 C 67.183594 194.753906 67.355469 199.195312 70.742188 202.832031 C 71.304688 203.441406 71.023438 203.730469 70.710938 204.25 C 68.339844 208.164062 68.253906 212.160156 70.585938 216.089844 C 72.402344 219.15625 75.351562 220.402344 78.796875 220.464844 C 80.074219 220.484375 80.714844 220.761719 81.195312 222.121094 C 83.054688 227.332031 88.527344 230.007812 94.527344 228.90625 C 97.042969 228.445312 99.457031 227.675781 101.835938 226.769531 C 102.28125 226.597656 102.710938 226.324219 103.199219 226.640625 C 107.316406 229.351562 111.601562 228.460938 115.878906 227.199219 C 121.894531 225.425781 127.203125 222.28125 132.191406 218.554688 C 135.148438 216.347656 138.253906 214.359375 141.335938 212.332031 C 145.054688 209.882812 149.035156 209.382812 153.300781 210.453125 C 158.570312 211.773438 163.753906 213.46875 169.183594 214.097656 C 172.710938 214.507812 176.214844 215.214844 179.789062 215.027344 C 180.425781 214.996094 180.644531 215.226562 180.664062 215.835938 C 180.84375 220.925781 181.035156 226.019531 181.222656 231.105469 C 181.257812 232.195312 180.730469 232.6875 179.640625 232.730469 C 173.847656 232.953125 168.0625 233.222656 162.269531 233.453125 C 153.699219 233.800781 145.144531 234.128906 136.589844 234.449219 Z M 86.773438 300.660156 C 88.644531 301.238281 90.425781 302.0625 92.097656 303.132812 C 96.09375 305.679688 100.164062 308.125 103.558594 311.488281 C 104.523438 312.445312 105.429688 313.457031 106.371094 314.4375 C 106.78125 314.859375 106.652344 315.289062 106.484375 315.773438 C 105.265625 319.21875 103.171875 322.136719 100.957031 324.980469 C 100.378906 325.730469 99.917969 325.859375 99.234375 325.019531 C 93.679688 318.171875 89.402344 310.621094 86.527344 302.285156 C 86.417969 301.960938 86.359375 301.605469 86.253906 301.269531 C 86.121094 300.808594 86.230469 300.570312 86.773438 300.660156 Z M 126.460938 354.820312 C 123.585938 358.742188 119.414062 360.925781 114.378906 358.164062 C 110.039062 355.785156 106.222656 352.710938 102.472656 349.539062 C 98.625 346.289062 94.816406 342.984375 91.050781 339.632812 C 87.613281 336.574219 85.050781 332.785156 82.472656 329.023438 C 79.25 324.304688 76.828125 319.226562 75.699219 313.597656 C 75.425781 312.222656 75.195312 310.84375 75.285156 309.667969 C 75.234375 304.308594 76.710938 303.800781 80.890625 301.152344 C 81.34375 300.859375 81.546875 300.980469 81.703125 301.523438 C 84.078125 309.832031 88.042969 317.355469 93.125 324.320312 C 97.378906 330.15625 102.367188 335.273438 107.828125 340.011719 C 113.425781 344.878906 119.664062 348.753906 125.96875 352.546875 C 127.070312 353.222656 127.203125 353.8125 126.460938 354.820312 Z M 147.1875 327.894531 C 144.34375 331.957031 141.609375 336.085938 138.996094 340.300781 C 137.183594 343.234375 135.050781 345.886719 132.164062 347.871094 C 130.425781 349.058594 128.941406 349.265625 126.90625 348.054688 C 119.285156 343.53125 112.171875 338.378906 105.769531 332.246094 C 104.847656 331.359375 103.496094 330.550781 103.238281 329.488281 C 102.984375 328.457031 104.597656 327.691406 105.273438 326.710938 C 106.957031 324.253906 108.835938 321.90625 109.914062 319.09375 C 110.332031 317.992188 111.160156 318.402344 111.882812 318.34375 C 114.585938 318.386719 116.785156 317.199219 118.789062 315.527344 C 120.421875 314.167969 121.75 312.535156 123.074219 310.894531 C 123.550781 310.300781 123.859375 310.292969 124.402344 310.804688 C 130.96875 316.976562 138.882812 321.105469 146.644531 325.457031 C 148.257812 326.363281 148.285156 326.320312 147.1875 327.894531 Z M 207.082031 256.832031 C 201.925781 261.53125 198.421875 267.285156 196.542969 273.984375 C 195.191406 278.820312 192.273438 282.679688 189.207031 286.484375 C 187.191406 288.972656 185.136719 291.429688 183.144531 293.933594 C 181.71875 295.738281 180.695312 297.773438 179.9375 299.941406 C 178.09375 305.242188 176.335938 310.574219 174.34375 315.824219 C 172.667969 320.25 170.089844 324.179688 166.792969 327.601562 C 164.9375 329.535156 164.601562 329.570312 162.152344 328.421875 C 152.25 323.769531 142.632812 318.574219 133.550781 312.484375 C 128.628906 309.179688 124.34375 305.058594 120.265625 300.742188 C 119.792969 300.238281 119.796875 299.902344 120.304688 299.449219 C 125.582031 294.710938 128.503906 288.621094 130.507812 281.953125 C 131.820312 277.59375 133.136719 273.207031 136.011719 269.515625 C 137.09375 268.125 138.214844 266.78125 139.507812 265.585938 C 144.664062 260.824219 148.019531 255.0625 149.496094 248.1875 C 149.980469 245.957031 150.75 243.804688 151.738281 241.734375 C 152.050781 241.085938 152.4375 240.871094 153.15625 240.855469 C 159.953125 240.683594 166.75 240.5 173.542969 240.246094 C 179.632812 240.023438 185.714844 239.710938 191.804688 239.445312 C 191.804688 239.460938 191.804688 239.476562 191.804688 239.488281 C 192.289062 239.488281 192.785156 239.5625 193.253906 239.476562 C 195.6875 239.023438 197.457031 240.261719 199.140625 241.726562 C 203.269531 245.304688 206.019531 249.753906 207.546875 254.988281 C 207.777344 255.769531 207.691406 256.273438 207.082031 256.832031 Z M 252.003906 316.03125 C 250.917969 316.441406 250.585938 316.300781 250.175781 315.203125 C 248.632812 311.003906 246.394531 307.160156 243.296875 303.921875 C 239.304688 299.738281 236.695312 294.972656 235.738281 289.203125 C 234.757812 283.261719 231.699219 278.34375 227.066406 274.5625 C 220.78125 269.457031 216.675781 263.023438 214.996094 255.175781 C 213.324219 247.363281 209.367188 241.042969 203.738281 235.515625 C 198.429688 230.296875 195.703125 223.796875 195.144531 216.386719 C 195.09375 215.734375 194.996094 215.078125 194.917969 214.433594 C 194.714844 213.378906 195.160156 213.039062 196.207031 212.808594 C 204.757812 210.90625 212.390625 207.179688 219.007812 201.363281 C 225.1875 195.933594 230.085938 189.601562 233.75 182.203125 C 236.371094 176.90625 238.65625 171.523438 240.0625 165.789062 C 240.359375 164.574219 240.839844 164.371094 242.066406 164.625 C 245.328125 165.285156 248.625 165.753906 251.90625 166.265625 C 253.769531 166.554688 253.890625 166.683594 253.652344 168.480469 C 252.617188 176.292969 252.6875 184.148438 252.976562 192 C 253.183594 197.664062 254.625 203.078125 257.550781 208.03125 C 260.050781 212.273438 261.121094 216.871094 260.734375 221.777344 C 260.394531 226.078125 261.019531 230.175781 263.179688 233.949219 C 265.140625 237.375 267.695312 240.34375 270.71875 242.847656 C 274.824219 246.253906 277.238281 250.398438 277.429688 255.835938 C 277.699219 263.210938 280.765625 269.304688 286.058594 274.421875 C 289.238281 277.496094 292.328125 280.707031 294.652344 284.523438 C 296.09375 286.890625 295.847656 286.476562 294.101562 288.140625 C 289.519531 292.507812 284.707031 296.613281 279.507812 300.207031 C 270.804688 306.230469 262.035156 312.238281 252.003906 316.03125 Z M 255.523438 348.664062 C 256.347656 343.636719 258.457031 339.34375 262.742188 336.34375 C 265.390625 334.488281 268.109375 332.710938 270.566406 330.589844 C 271.035156 330.1875 271.429688 330.195312 271.964844 330.550781 C 274.90625 332.484375 277.265625 334.960938 279.21875 337.867188 C 279.8125 338.757812 279.28125 339.003906 278.648438 339.320312 C 273.0625 342.160156 267.441406 344.921875 261.65625 347.328125 C 259.917969 348.046875 258.144531 348.671875 256.40625 349.398438 C 255.566406 349.742188 255.390625 349.453125 255.523438 348.664062 Z M 319.960938 333.605469 C 318.238281 335.503906 316.21875 337.058594 314.136719 338.519531 C 305.277344 344.75 295.765625 349.832031 285.835938 354.117188 C 278.988281 357.070312 271.785156 358.710938 264.128906 359.15625 C 261.359375 358.964844 258.523438 358.585938 256.984375 355.496094 C 256.523438 354.574219 256.449219 354.09375 257.632812 353.675781 C 264.597656 351.234375 271.304688 348.144531 277.832031 344.742188 C 289.3125 338.773438 300.578125 332.414062 311.011719 324.691406 C 312.875 323.316406 314.957031 322.339844 317.257812 323.363281 C 319.886719 324.527344 321.445312 326.777344 321.839844 329.550781 C 322.046875 331.054688 321.015625 332.445312 319.960938 333.605469 Z M 207.117188 69.738281 C 207.132812 70.613281 207.140625 71.492188 206.785156 72.324219 C 205.964844 74.230469 203.925781 74.824219 202.214844 73.636719 C 201.363281 73.042969 200.761719 72.234375 200.359375 71.296875 C 199.988281 70.414062 199.632812 69.507812 199.410156 68.578125 C 199.066406 67.175781 198.652344 66.128906 196.832031 66.136719 C 195.398438 66.144531 194.558594 65.023438 194.65625 63.847656 C 194.753906 62.652344 195.6875 61.890625 197.171875 61.917969 C 198.445312 61.941406 199.714844 62.039062 200.96875 62.179688 C 204.917969 62.632812 206.613281 64.363281 207.027344 68.289062 C 207.089844 68.773438 207.089844 69.253906 207.117188 69.738281 Z M 236.296875 79.472656 C 235.671875 78.597656 235.640625 77.664062 236.355469 76.808594 C 237.03125 76 237.90625 75.886719 238.859375 76.242188 C 239.867188 76.621094 240.222656 76.371094 240.15625 75.308594 C 240.136719 75.003906 240.039062 74.707031 239.980469 74.410156 C 239.386719 71.417969 240.402344 69.324219 243.121094 67.902344 C 244.496094 67.191406 245.816406 67.457031 246.46875 68.578125 C 247.101562 69.664062 246.753906 70.84375 245.363281 71.640625 C 244.292969 72.25 244.109375 72.960938 244.351562 74.121094 C 245.023438 77.34375 243.601562 80.082031 240.953125 80.972656 C 240.542969 81.109375 240.105469 81.167969 239.839844 81.234375 C 238.265625 81.167969 237.105469 80.617188 236.296875 79.472656 Z M 208.707031 53.535156 C 208.222656 54.605469 207.125 55.035156 205.824219 54.625 C 205.15625 54.417969 204.519531 54.128906 203.851562 53.929688 C 202.3125 53.453125 200.902344 53.414062 199.59375 54.683594 C 198.554688 55.695312 197.253906 55.570312 196.445312 54.648438 C 195.679688 53.777344 195.742188 52.578125 196.652344 51.558594 C 198.078125 49.96875 199.824219 49.109375 201.808594 49.277344 C 203.992188 49.191406 205.804688 49.835938 207.539062 50.699219 C 208.765625 51.304688 209.191406 52.472656 208.707031 53.535156 Z M 141.535156 330.152344 C 142.234375 331.207031 141.957031 332.191406 141.121094 332.996094 C 139.34375 334.695312 137.117188 335.253906 134.890625 335.378906 C 130.464844 335.28125 126.898438 332.542969 125.8125 328.5 C 125.703125 328.085938 125.621094 327.640625 125.628906 327.210938 C 125.644531 325.910156 126.488281 324.9375 127.640625 324.847656 C 128.769531 324.757812 129.660156 325.457031 129.921875 326.757812 C 130.335938 328.84375 131.488281 330.253906 133.558594 330.828125 C 134.984375 331.21875 136.335938 330.921875 137.601562 330.195312 C 137.941406 329.996094 138.261719 329.765625 138.609375 329.578125 C 139.738281 328.992188 140.917969 329.222656 141.535156 330.152344 Z M 141.535156 330.152344 " fill-opacity="1" fill-rule="nonzero"/></svg>