<svg xmlns="http://www.w3.org/2000/svg" xmlns:xlink="http://www.w3.org/1999/xlink" width="500" zoomAndPan="magnify" viewBox="0 0 375 374.999991" height="500" preserveAspectRatio="xMidYMid meet" version="1.0"><defs><clipPath id="865810458a"><path d="M 125.519531 103.035156 L 253 103.035156 L 253 262.785156 L 125.519531 262.785156 Z M 125.519531 103.035156 " clip-rule="nonzero"/></clipPath></defs><g clip-path="url(#865810458a)"><path fill="#fbbf28" d="M 252.757812 243.707031 C 252.628906 242.496094 252.214844 241.363281 251.605469 240.320312 C 250.78125 238.917969 249.65625 237.808594 248.230469 237 C 247.453125 236.558594 246.890625 235.976562 246.476562 235.203125 C 245.375 233.121094 244.015625 231.207031 242.566406 229.355469 C 242.308594 229.023438 242.199219 228.695312 242.324219 228.265625 C 242.765625 226.722656 242.417969 225.222656 241.644531 223.929688 C 241 222.847656 240.230469 221.808594 239.433594 220.816406 C 238.148438 219.222656 236.800781 217.683594 235.332031 216.25 C 234.566406 215.496094 234.070312 214.574219 233.886719 213.496094 C 233.644531 212.078125 233.671875 210.625 233.234375 209.226562 C 232.808594 207.867188 232.214844 206.617188 231.355469 205.476562 C 230.410156 204.21875 229.195312 203.222656 228.078125 202.144531 C 226.816406 200.917969 226.394531 199.480469 226.5625 197.800781 C 226.683594 196.613281 226.546875 195.445312 226.328125 194.289062 C 226.003906 192.558594 225.320312 190.953125 224.492188 189.402344 C 224.140625 188.742188 223.785156 188.085938 223.589844 187.34375 C 223.203125 185.851562 223.246094 184.328125 223.1875 182.816406 C 223.136719 181.605469 223.234375 180.390625 223.273438 179.175781 C 223.324219 177.605469 223.433594 176.027344 223.648438 174.472656 C 223.882812 172.75 223.25 171.375 221.980469 170.347656 C 221.398438 169.878906 221.304688 169.445312 221.371094 168.832031 C 221.59375 166.726562 221.796875 164.617188 221.816406 162.496094 C 221.820312 162.324219 221.742188 162.132812 221.902344 161.941406 C 222.652344 162.496094 223.394531 163.035156 224.269531 163.355469 C 224.421875 163.414062 224.519531 163.527344 224.519531 163.699219 C 224.511719 164.621094 224.882812 165.457031 225.128906 166.320312 C 225.613281 168.042969 226.539062 169.507812 227.992188 170.589844 C 228.730469 171.136719 229.523438 171.605469 230.417969 171.863281 C 230.621094 171.921875 230.863281 171.941406 230.863281 172.273438 C 230.859375 172.667969 230.917969 173.058594 230.953125 173.453125 C 231.089844 175.035156 231.429688 176.566406 232.175781 177.976562 C 232.878906 179.292969 233.890625 180.328125 235.316406 180.828125 C 236.476562 181.238281 237.679688 181.40625 238.894531 180.929688 C 239.128906 180.839844 239.414062 180.648438 239.695312 180.871094 C 240.53125 181.53125 241.515625 181.789062 242.542969 181.980469 C 244.394531 182.320312 246.621094 181.398438 247.691406 179.855469 C 248.21875 179.09375 248.566406 178.289062 248.667969 177.375 C 248.703125 177.054688 248.867188 176.914062 249.164062 176.78125 C 250.519531 176.1875 251.589844 175.234375 252.191406 173.886719 C 253.566406 170.808594 252.480469 167.683594 249.933594 165.640625 C 248.035156 164.117188 245.796875 163.199219 243.566406 162.300781 C 243.308594 162.195312 243.1875 162.097656 243.148438 161.796875 C 242.757812 159 241.3125 156.910156 238.855469 155.539062 C 238.355469 155.261719 238.179688 154.96875 238.183594 154.402344 C 238.195312 152.433594 237.613281 150.640625 236.4375 149.046875 C 235.59375 147.90625 234.53125 147.023438 233.308594 146.328125 C 233.027344 146.167969 232.898438 145.976562 233.011719 145.699219 C 233.152344 145.359375 232.933594 144.859375 233.542969 144.710938 C 234.875 144.398438 236.199219 144.039062 237.5 143.609375 C 240.777344 142.523438 243.761719 140.964844 246.042969 138.289062 C 247.734375 136.308594 248.429688 134.070312 247.648438 131.5 C 246.976562 129.273438 245.460938 127.8125 243.292969 127.148438 C 241.363281 126.554688 239.320312 126.40625 237.320312 126.121094 C 235.152344 125.808594 232.964844 125.632812 230.859375 124.976562 C 229.640625 124.597656 228.410156 124.269531 227.1875 123.917969 C 226.773438 123.796875 226.601562 123.570312 226.53125 123.085938 C 226.410156 122.230469 226.492188 121.367188 226.304688 120.507812 C 226.027344 119.230469 225.738281 117.953125 225.449219 116.671875 C 224.65625 113.160156 222.851562 110.257812 220.09375 108.011719 C 217.527344 105.921875 214.511719 104.65625 211.300781 103.875 C 208.960938 103.304688 206.597656 103.109375 204.234375 103.648438 C 200.859375 104.414062 197.628906 105.558594 194.835938 107.691406 C 194.457031 107.980469 194.214844 107.941406 193.871094 107.621094 C 193.144531 106.941406 192.328125 106.359375 191.445312 105.898438 C 188.730469 104.484375 185.851562 103.84375 182.777344 103.929688 C 180.605469 103.988281 178.484375 104.242188 176.402344 104.878906 C 173.75 105.695312 171.714844 107.351562 170.082031 109.542969 C 168.152344 112.136719 167.492188 115.070312 167.960938 118.222656 C 168.324219 120.664062 169.6875 122.589844 171.496094 124.210938 C 172.449219 125.066406 173.453125 125.851562 174.488281 126.597656 C 176.183594 127.816406 177.992188 128.847656 179.933594 129.617188 C 180.953125 130.015625 180.929688 130.027344 181.054688 131.082031 C 181.308594 133.152344 182.207031 135.003906 184.605469 135.734375 C 184.882812 135.816406 184.996094 135.898438 184.921875 136.242188 C 184.785156 136.839844 184.609375 137.449219 184.664062 138.070312 C 184.871094 140.320312 185.695312 142.25 187.640625 143.566406 C 187.765625 143.652344 187.863281 143.742188 187.933594 143.886719 C 188.828125 145.722656 189.929688 147.417969 191.351562 148.890625 C 191.609375 149.152344 191.539062 149.324219 191.308594 149.542969 C 190.929688 149.902344 190.535156 150.257812 190.203125 150.660156 C 188.699219 152.460938 187.234375 154.296875 185.933594 156.253906 C 185.628906 156.710938 185.300781 157.144531 184.949219 157.644531 C 184.667969 156.742188 184.441406 155.929688 184.042969 155.175781 C 183.9375 154.976562 183.957031 154.78125 184.011719 154.574219 C 184.222656 153.78125 184.1875 153.007812 183.980469 152.199219 C 183.5 150.289062 180.941406 148.570312 178.804688 149.265625 C 178.496094 149.363281 178.191406 149.4375 177.867188 149.324219 C 175.757812 148.5625 173.597656 148.367188 171.390625 148.792969 C 170.6875 148.929688 170.027344 149.003906 169.625 148.207031 C 169.535156 148.035156 169.355469 147.890625 169.1875 147.777344 C 168.472656 147.289062 167.714844 146.847656 167.578125 145.875 C 167.570312 145.839844 167.542969 145.8125 167.519531 145.777344 C 166.078125 143.496094 162.910156 143.128906 160.871094 144.8125 C 160.523438 145.097656 160.339844 145.554688 159.808594 145.679688 C 158.359375 146.027344 156.96875 146.546875 155.703125 147.347656 C 155.449219 147.511719 155.207031 147.53125 154.910156 147.441406 C 153.867188 147.121094 152.792969 146.894531 151.707031 146.902344 C 150.976562 146.910156 150.34375 146.792969 149.789062 146.3125 C 149.476562 146.046875 149.066406 146.027344 148.6875 145.917969 C 146.480469 145.246094 143.539062 146.8125 143.398438 149.332031 C 143.382812 149.617188 143.195312 149.816406 142.972656 149.972656 C 142.183594 150.546875 141.59375 151.296875 141.046875 152.085938 C 140.855469 152.359375 140.699219 152.421875 140.355469 152.332031 C 139.621094 152.144531 138.894531 151.90625 138.09375 152.0625 C 136.109375 152.449219 134.777344 153.472656 134.453125 155.5625 C 134.394531 155.925781 134.210938 156.152344 133.90625 156.359375 C 131.9375 157.726562 130.578125 159.578125 129.683594 161.789062 C 129.582031 162.035156 129.546875 162.316406 129.222656 162.453125 C 127.007812 163.398438 125.519531 165.71875 125.71875 168.054688 C 125.816406 169.21875 125.8125 170.382812 125.871094 171.542969 C 125.980469 173.664062 126.023438 175.78125 126.117188 177.90625 C 126.195312 179.761719 126.269531 181.621094 126.335938 183.480469 C 126.40625 185.507812 126.492188 187.539062 126.566406 189.5625 C 126.636719 191.570312 126.707031 193.582031 126.796875 195.585938 C 126.90625 198.0625 126.964844 200.542969 127.046875 203.023438 C 127.082031 204.035156 127.179688 205.035156 127.453125 206.023438 C 128.117188 208.398438 130.640625 210.292969 133.101562 210.097656 C 134.359375 209.996094 135.617188 210.003906 136.871094 209.949219 C 139.796875 209.824219 142.726562 209.707031 145.65625 209.59375 C 147.773438 209.515625 149.898438 209.453125 152.019531 209.363281 C 154.683594 209.246094 157.355469 209.203125 160.019531 209.105469 C 162.515625 209.011719 165.011719 208.898438 167.503906 208.777344 C 168.015625 208.75 168.128906 208.898438 167.964844 209.394531 C 167.511719 210.75 166.710938 211.859375 165.667969 212.816406 C 165.015625 213.414062 164.433594 214.082031 163.871094 214.761719 C 161.890625 217.167969 160.910156 220.039062 160.027344 222.960938 C 159.503906 224.683594 158.703125 226.257812 157.320312 227.5 C 156.519531 228.222656 155.59375 228.855469 155.117188 229.882812 C 154.898438 230.355469 154.671875 230.3125 154.273438 230.042969 C 151.976562 228.507812 149.679688 226.957031 146.894531 226.410156 C 146.019531 226.238281 145.175781 225.9375 144.242188 226.207031 C 142.300781 226.769531 140.679688 227.859375 139.105469 229.0625 C 137.84375 230.027344 137.066406 231.332031 136.683594 232.832031 C 136.230469 234.589844 136.144531 236.382812 136.535156 238.179688 C 137.128906 240.953125 138.035156 243.617188 139.59375 246 C 141.535156 248.976562 143.621094 251.816406 146.460938 254.070312 C 148.617188 255.777344 150.570312 257.75 152.824219 259.351562 C 154.601562 260.617188 156.382812 261.832031 158.59375 262.308594 C 160.339844 262.683594 162.011719 262.570312 163.609375 261.894531 C 165.699219 261.007812 167.410156 259.605469 168.484375 257.5625 C 168.832031 256.894531 169.316406 256.421875 169.910156 256.027344 C 170.574219 255.585938 171.105469 254.992188 171.636719 254.425781 C 172.527344 253.484375 173.222656 252.378906 173.902344 251.273438 C 174.441406 250.394531 174.429688 250.386719 175.429688 250.574219 C 175.539062 250.589844 175.652344 250.609375 175.761719 250.640625 C 177.859375 251.175781 179.828125 250.820312 181.648438 249.695312 C 183.117188 248.785156 184.515625 247.769531 185.613281 246.394531 C 186.835938 244.867188 187.949219 243.273438 188.761719 241.476562 C 189.734375 239.332031 190.292969 237.042969 191.179688 234.871094 C 191.46875 234.160156 191.515625 233.328125 191.980469 232.714844 C 193.136719 231.171875 194.390625 229.695312 195.578125 228.171875 C 196.8125 226.578125 197.960938 224.933594 198.558594 222.972656 C 198.78125 222.242188 198.957031 221.484375 199.4375 220.691406 C 199.519531 220.828125 199.550781 220.898438 199.597656 220.960938 C 200.570312 222.257812 201.648438 223.460938 202.902344 224.496094 C 204.304688 225.648438 205.148438 227.082031 205.472656 228.910156 C 205.886719 231.261719 206.738281 233.46875 208.382812 235.285156 C 210.175781 237.269531 211.570312 239.457031 212.457031 242.019531 C 212.976562 243.523438 214.183594 244.640625 215.730469 245.167969 C 216.390625 245.394531 216.191406 245.554688 215.933594 245.898438 C 214.414062 247.921875 213.832031 250.269531 213.570312 252.726562 C 213.433594 253.992188 213.855469 255.15625 214.21875 256.351562 C 214.699219 257.925781 215.511719 259.238281 216.722656 260.351562 C 218.347656 261.84375 220.355469 262.3125 222.429688 262.378906 C 224.335938 262.433594 226.226562 262.074219 228.105469 261.671875 C 230.558594 261.148438 232.949219 260.40625 235.207031 259.355469 C 240.273438 257 245.238281 254.429688 249.511719 250.757812 C 251.636719 248.929688 253.070312 246.6875 252.757812 243.707031 Z M 252.757812 243.707031 " fill-opacity="1" fill-rule="nonzero"/></g><path fill="#ffc654" d="M 213.785156 131.304688 C 212.785156 131.359375 212.050781 131.835938 211.550781 132.710938 C 211.203125 133.316406 210.769531 133.484375 210.242188 133.242188 C 206.851562 131.699219 204.679688 129.195312 204.171875 125.429688 C 204.066406 124.652344 203.941406 123.960938 203.113281 123.640625 C 202.996094 123.597656 202.890625 123.496094 202.796875 123.40625 C 201.550781 122.238281 200.167969 121.214844 199.03125 119.925781 C 198.855469 119.726562 198.691406 119.621094 198.398438 119.75 C 195.207031 121.128906 192.5625 123.101562 191.203125 126.445312 C 190.953125 127.050781 190.765625 127.6875 190.519531 128.296875 C 190.285156 128.890625 190.195312 129.332031 190.53125 130.042969 C 191.3125 131.671875 191.523438 133.46875 190.898438 135.253906 C 190.65625 135.945312 190.359375 136.621094 190.148438 137.320312 C 189.886719 138.179688 190.144531 138.757812 190.878906 139.25 C 191.535156 139.6875 192.210938 140.117188 192.484375 140.921875 C 192.578125 141.199219 192.726562 141.214844 193 141.125 C 193.519531 140.957031 194.03125 140.785156 194.507812 140.5 C 195.113281 140.136719 195.648438 140.226562 195.949219 140.691406 C 196.261719 141.179688 196.078125 141.714844 195.460938 142.113281 C 194.96875 142.4375 194.441406 142.6875 193.871094 142.816406 C 193.574219 142.886719 193.546875 142.976562 193.707031 143.222656 C 194.113281 143.839844 194.542969 144.429688 195.058594 144.953125 C 195.851562 145.761719 196.773438 146.285156 197.941406 146.304688 C 198.785156 146.316406 199.578125 146.101562 200.363281 145.832031 C 200.851562 145.664062 201.289062 145.695312 201.628906 146.136719 C 202.289062 146.980469 202.6875 147.90625 202.582031 149.003906 C 202.566406 149.285156 202.429688 149.640625 202.554688 149.828125 C 202.722656 150.085938 203.109375 149.785156 203.386719 149.878906 C 203.753906 150.011719 203.90625 149.828125 204.082031 149.53125 C 204.621094 148.601562 205.242188 147.71875 206.042969 147 C 208.136719 145.125 210.5 144.003906 213.402344 144.542969 C 213.511719 144.5625 213.632812 144.644531 213.695312 144.5 C 213.890625 144.035156 214.097656 143.570312 214.257812 143.089844 C 214.34375 142.824219 214.0625 142.664062 213.96875 142.441406 C 213.804688 142.0625 213.589844 141.703125 213.460938 141.316406 C 213.339844 140.972656 213.164062 140.863281 212.808594 140.890625 C 212.183594 140.941406 211.566406 140.84375 210.976562 140.632812 C 210.367188 140.417969 210.066406 139.925781 210.207031 139.429688 C 210.363281 138.890625 210.863281 138.667969 211.535156 138.847656 C 212.03125 138.976562 212.523438 139.113281 213.035156 139.042969 C 215.082031 138.757812 216.601562 137.316406 217.019531 135.277344 C 217.4375 133.222656 215.789062 131.199219 213.785156 131.304688 Z M 198.089844 134.039062 C 197.742188 134.859375 196.867188 135.113281 196.132812 134.605469 C 195.765625 134.347656 195.507812 134.003906 195.335938 133.601562 C 195.179688 133.222656 195.027344 132.835938 194.929688 132.4375 C 194.785156 131.835938 194.605469 131.386719 193.824219 131.386719 C 193.210938 131.390625 192.851562 130.910156 192.890625 130.40625 C 192.933594 129.894531 193.335938 129.566406 193.972656 129.582031 C 194.515625 129.589844 195.058594 129.632812 195.597656 129.691406 C 197.292969 129.886719 198.019531 130.628906 198.195312 132.3125 C 198.21875 132.515625 198.21875 132.722656 198.230469 132.929688 C 198.242188 133.308594 198.246094 133.683594 198.089844 134.039062 Z M 198.917969 125.984375 C 198.710938 126.445312 198.238281 126.628906 197.679688 126.453125 C 197.394531 126.363281 197.121094 126.242188 196.832031 126.15625 C 196.175781 125.949219 195.570312 125.933594 195.007812 126.480469 C 194.5625 126.914062 194.007812 126.859375 193.660156 126.464844 C 193.332031 126.089844 193.355469 125.574219 193.75 125.140625 C 194.359375 124.457031 195.109375 124.089844 195.957031 124.160156 C 196.894531 124.125 197.671875 124.398438 198.417969 124.769531 C 198.941406 125.03125 199.121094 125.53125 198.917969 125.984375 Z M 214.628906 133.746094 C 214.167969 134.007812 214.089844 134.316406 214.195312 134.8125 C 214.480469 136.191406 213.875 137.367188 212.738281 137.75 C 212.5625 137.808594 212.375 137.832031 212.257812 137.859375 C 211.585938 137.832031 211.09375 137.601562 210.742188 137.109375 C 210.476562 136.734375 210.464844 136.332031 210.769531 135.96875 C 211.058594 135.621094 211.433594 135.570312 211.84375 135.726562 C 212.273438 135.886719 212.429688 135.777344 212.398438 135.324219 C 212.390625 135.191406 212.347656 135.066406 212.324219 134.9375 C 212.066406 133.65625 212.503906 132.757812 213.667969 132.148438 C 214.257812 131.84375 214.824219 131.957031 215.105469 132.4375 C 215.375 132.898438 215.226562 133.402344 214.628906 133.746094 Z M 207.40625 180.273438 C 207.707031 180.613281 207.597656 181.007812 207.402344 181.375 C 206.078125 183.867188 204.289062 185.972656 202.203125 187.851562 C 198.6875 191.015625 194.460938 192.511719 189.878906 193.199219 C 188.980469 193.332031 188.082031 193.367188 187.175781 193.402344 C 184.457031 193.339844 181.78125 192.988281 179.136719 192.378906 C 178.875 192.320312 178.792969 192.246094 178.84375 191.929688 C 179.535156 187.691406 180.65625 183.558594 181.765625 179.414062 C 181.886719 178.960938 182.035156 178.824219 182.5625 178.890625 C 184.738281 179.171875 186.910156 179.535156 189.128906 179.328125 C 192.597656 179 195.546875 177.675781 197.871094 175.046875 C 198.082031 174.8125 198.273438 174.707031 198.597656 174.824219 C 200.601562 175.539062 202.546875 176.382812 204.355469 177.519531 C 205.539062 178.261719 206.492188 179.25 207.40625 180.273438 Z M 172.304688 242.558594 C 168.976562 240.691406 165.582031 238.921875 162.769531 236.277344 C 162.535156 236.058594 162.402344 236.0625 162.199219 236.316406 C 161.632812 237.019531 161.0625 237.71875 160.359375 238.300781 C 159.5 239.019531 158.558594 239.527344 157.398438 239.507812 C 157.085938 239.535156 156.734375 239.363281 156.554688 239.832031 C 156.097656 241.039062 155.292969 242.042969 154.566406 243.097656 C 154.277344 243.515625 153.589844 243.847656 153.695312 244.289062 C 153.804688 244.742188 154.386719 245.09375 154.78125 245.46875 C 157.523438 248.097656 160.574219 250.308594 163.839844 252.246094 C 164.714844 252.765625 165.351562 252.675781 166.09375 252.167969 C 167.332031 251.320312 168.242188 250.179688 169.023438 248.921875 C 170.144531 247.113281 171.3125 245.34375 172.535156 243.601562 C 173.011719 242.929688 173 242.949219 172.304688 242.558594 Z M 169.941406 245.792969 C 169.179688 246.523438 168.222656 246.761719 167.269531 246.816406 C 165.371094 246.773438 163.84375 245.597656 163.378906 243.867188 C 163.332031 243.6875 163.296875 243.5 163.300781 243.3125 C 163.304688 242.757812 163.667969 242.339844 164.164062 242.300781 C 164.644531 242.261719 165.027344 242.5625 165.140625 243.121094 C 165.316406 244.015625 165.8125 244.617188 166.699219 244.863281 C 167.3125 245.03125 167.890625 244.90625 168.429688 244.59375 C 168.578125 244.507812 168.714844 244.410156 168.863281 244.328125 C 169.347656 244.082031 169.859375 244.175781 170.121094 244.574219 C 170.417969 245.03125 170.300781 245.449219 169.941406 245.792969 Z M 241.105469 241.113281 C 238.007812 243.363281 234.703125 245.265625 231.390625 247.164062 C 231.117188 247.320312 230.992188 247.285156 230.824219 247.011719 C 229.910156 245.542969 228.738281 244.304688 227.308594 243.320312 C 227.160156 243.21875 227.007812 243.15625 227.128906 242.890625 C 227.953125 241.039062 227.652344 239.214844 226.949219 237.414062 C 226.804688 237.046875 226.636719 236.683594 226.433594 236.351562 C 226.273438 236.085938 226.34375 235.96875 226.578125 235.820312 C 229.695312 233.90625 232.613281 231.722656 235.347656 229.292969 C 235.546875 229.113281 235.648438 229.152344 235.789062 229.339844 C 236.453125 230.230469 237.152344 231.09375 237.773438 232.015625 C 238.335938 232.84375 238.265625 233.964844 237.703125 234.597656 C 237.152344 235.21875 235.929688 235.46875 235.09375 235.121094 C 235.007812 235.085938 234.925781 235.039062 234.835938 235.007812 C 234.308594 234.820312 233.835938 234.972656 233.617188 235.402344 C 233.40625 235.820312 233.546875 236.339844 233.988281 236.636719 C 234.839844 237.207031 235.785156 237.269531 236.753906 237.089844 C 238.160156 236.832031 239.230469 236.121094 239.816406 234.671875 C 240.5625 235.730469 241.242188 236.722656 241.742188 237.820312 C 241.84375 238.042969 241.929688 238.273438 241.996094 238.507812 C 242.390625 239.898438 242.261719 240.269531 241.105469 241.113281 Z M 241.105469 241.113281 " fill-opacity="1" fill-rule="nonzero"/><path fill="#3cb87e" d="M 229.28125 231.730469 C 225.539062 234.320312 221.777344 236.894531 217.472656 238.523438 C 217.007812 238.695312 216.867188 238.636719 216.691406 238.164062 C 216.027344 236.367188 215.070312 234.71875 213.742188 233.328125 C 212.03125 231.535156 210.914062 229.492188 210.5 227.019531 C 210.082031 224.472656 208.769531 222.363281 206.78125 220.742188 C 204.089844 218.554688 202.328125 215.796875 201.609375 212.429688 C 200.894531 209.082031 199.195312 206.371094 196.78125 204.003906 C 194.507812 201.765625 193.339844 198.980469 193.097656 195.800781 C 193.078125 195.523438 193.035156 195.242188 193 194.964844 C 192.914062 194.511719 193.105469 194.367188 193.554688 194.269531 C 197.21875 193.453125 200.492188 191.855469 203.328125 189.363281 C 205.976562 187.035156 208.078125 184.320312 209.648438 181.148438 C 210.773438 178.878906 211.753906 176.570312 212.355469 174.113281 C 212.480469 173.589844 212.6875 173.503906 213.214844 173.613281 C 214.613281 173.894531 216.027344 174.09375 217.433594 174.316406 C 218.230469 174.4375 218.28125 174.492188 218.179688 175.265625 C 217.738281 178.613281 217.765625 181.980469 217.890625 185.347656 C 217.980469 187.777344 218.597656 190.097656 219.851562 192.21875 C 220.925781 194.039062 221.382812 196.007812 221.21875 198.113281 C 221.070312 199.957031 221.339844 201.714844 222.265625 203.332031 C 223.105469 204.800781 224.203125 206.074219 225.496094 207.144531 C 227.257812 208.609375 228.292969 210.382812 228.375 212.714844 C 228.488281 215.875 229.804688 218.488281 232.074219 220.683594 C 233.4375 222 234.761719 223.375 235.757812 225.011719 C 236.375 226.027344 236.269531 225.851562 235.523438 226.5625 C 233.570312 228.433594 231.507812 230.191406 229.28125 231.730469 Z M 194.820312 206.667969 C 194.097656 206.042969 193.335938 205.507812 192.292969 205.703125 C 192.09375 205.742188 191.878906 205.710938 191.671875 205.710938 C 191.671875 205.703125 191.671875 205.699219 191.671875 205.691406 C 189.0625 205.804688 186.453125 205.941406 183.84375 206.035156 C 180.929688 206.144531 178.019531 206.21875 175.105469 206.296875 C 174.800781 206.300781 174.628906 206.394531 174.496094 206.671875 C 174.074219 207.558594 173.742188 208.484375 173.535156 209.4375 C 172.902344 212.386719 171.460938 214.855469 169.253906 216.898438 C 168.699219 217.410156 168.21875 217.988281 167.753906 218.582031 C 166.519531 220.164062 165.957031 222.046875 165.394531 223.914062 C 164.53125 226.773438 163.285156 229.382812 161.019531 231.414062 C 160.804688 231.609375 160.800781 231.753906 161.003906 231.96875 C 162.75 233.820312 164.589844 235.585938 166.699219 237.003906 C 170.597656 239.613281 174.714844 241.84375 178.960938 243.835938 C 180.011719 244.328125 180.152344 244.3125 180.949219 243.484375 C 182.363281 242.019531 183.46875 240.332031 184.1875 238.4375 C 185.042969 236.1875 185.792969 233.898438 186.585938 231.625 C 186.910156 230.691406 187.347656 229.820312 187.960938 229.050781 C 188.8125 227.972656 189.695312 226.921875 190.558594 225.855469 C 191.875 224.230469 193.125 222.574219 193.703125 220.5 C 194.507812 217.628906 196.007812 215.160156 198.222656 213.144531 C 198.484375 212.90625 198.519531 212.6875 198.425781 212.359375 C 197.769531 210.109375 196.589844 208.203125 194.820312 206.667969 Z M 147.804688 194.890625 C 150.398438 193.839844 152.757812 192.363281 155.089844 190.84375 C 155.894531 190.316406 156.621094 189.691406 157.386719 189.117188 C 157.84375 188.773438 158.292969 188.855469 158.640625 189.261719 C 158.964844 189.632812 158.964844 190.074219 158.597656 190.480469 C 158.34375 190.757812 158.070312 191.019531 157.773438 191.25 C 156.515625 192.238281 155.160156 193.097656 153.800781 193.933594 C 151.441406 195.386719 149.023438 196.714844 146.292969 197.351562 C 145.875 197.453125 146.019531 197.660156 146.144531 197.886719 C 146.757812 198.992188 147.992188 199.554688 149.316406 199.347656 C 151.742188 198.96875 153.894531 197.917969 155.960938 196.65625 C 157.792969 195.535156 159.308594 194.046875 160.769531 192.496094 C 161.226562 192.015625 161.6875 191.980469 162.117188 192.328125 C 162.492188 192.632812 162.550781 193.238281 162.195312 193.703125 C 161.839844 194.164062 161.453125 194.605469 161.039062 195.011719 C 159.636719 196.386719 158.136719 197.628906 156.421875 198.609375 C 156.3125 198.675781 156.15625 198.734375 156.226562 198.898438 C 156.285156 199.03125 156.425781 199.070312 156.566406 199.054688 C 156.675781 199.046875 156.789062 199.023438 156.898438 199.003906 C 159.039062 198.683594 160.960938 197.796875 162.796875 196.695312 C 164.671875 195.574219 166.324219 194.132812 168.191406 192.996094 C 169.203125 192.375 170.175781 191.695312 171.339844 191.382812 C 173.066406 190.917969 174.769531 191.128906 176.449219 191.628906 C 176.890625 191.761719 177.019531 191.613281 177.074219 191.230469 C 177.675781 187.246094 178.765625 183.378906 179.792969 179.496094 C 180.085938 178.378906 180.085938 178.410156 178.929688 178.15625 C 176.230469 177.558594 173.535156 176.945312 171.132812 175.472656 C 170.777344 175.257812 170.554688 175.027344 170.515625 174.605469 C 170.46875 174.101562 170.40625 173.59375 170.3125 173.097656 C 169.875 170.773438 168.242188 169.550781 165.902344 169.816406 C 164.820312 169.941406 163.765625 170.203125 162.71875 170.53125 C 160.488281 171.238281 158.40625 172.292969 156.257812 173.191406 C 154.316406 174.003906 152.324219 174.691406 150.183594 174.777344 C 149.703125 174.796875 149.265625 174.980469 148.878906 175.265625 C 147.875 176.023438 147.917969 177.414062 148.953125 178.125 C 149.671875 178.621094 150.488281 178.78125 151.320312 178.703125 C 153.167969 178.519531 154.933594 178.003906 156.554688 177.074219 C 157.113281 176.757812 157.59375 176.332031 158.078125 175.914062 C 158.519531 175.53125 159.09375 175.558594 159.449219 175.9375 C 159.820312 176.324219 159.789062 176.835938 159.363281 177.296875 C 159.199219 177.472656 159.015625 177.636719 158.824219 177.792969 C 157.132812 179.199219 155.132812 179.933594 153.019531 180.398438 C 152.753906 180.457031 152.515625 180.535156 152.289062 180.679688 C 151.492188 181.183594 150.640625 181.582031 149.765625 181.929688 C 147.84375 182.699219 145.878906 183.339844 143.921875 184.007812 C 142.714844 184.425781 141.632812 185.058594 140.902344 186.167969 C 140.296875 187.082031 140.402344 188.632812 141.929688 189.136719 C 142.746094 189.402344 143.558594 189.394531 144.367188 189.160156 C 146.640625 188.503906 148.769531 187.519531 150.84375 186.40625 C 152.171875 185.695312 153.394531 184.816406 154.644531 183.976562 C 155.210938 183.597656 155.738281 183.683594 156.042969 184.117188 C 156.351562 184.554688 156.21875 185.179688 155.707031 185.554688 C 152.4375 187.960938 148.863281 189.777344 144.988281 190.980469 C 144.15625 191.238281 143.28125 191.359375 142.421875 191.210938 C 141.808594 191.101562 141.5 191.382812 141.234375 191.824219 C 140.988281 192.238281 140.90625 192.699219 140.925781 193.113281 C 140.925781 194.71875 141.746094 195.578125 143.292969 195.671875 C 144.855469 195.769531 146.355469 195.476562 147.804688 194.890625 Z M 196.816406 114.699219 C 197.277344 115.195312 197.78125 115.652344 198.226562 116.160156 C 199.394531 117.515625 200.53125 118.898438 201.878906 120.074219 C 202.925781 120.980469 203.914062 121.972656 205.132812 122.660156 C 207.480469 123.984375 209.902344 125.105469 212.519531 125.828125 C 215.921875 126.765625 219.222656 128.0625 222.75 128.503906 C 222.996094 128.535156 223.375 128.738281 223.445312 128.472656 C 223.53125 128.167969 223.097656 128.167969 222.871094 128.085938 C 221.515625 127.613281 221.234375 127.222656 221.242188 125.761719 C 221.242188 125.5 221.242188 125.238281 221.242188 124.972656 C 221.25 122.59375 220.882812 120.269531 220.269531 117.96875 C 219.675781 115.75 218.613281 113.835938 216.84375 112.332031 C 215.738281 111.390625 214.472656 110.753906 213.164062 110.171875 C 211.222656 109.308594 209.226562 108.699219 207.078125 108.710938 C 205.714844 108.71875 204.40625 109.078125 203.117188 109.492188 C 200.761719 110.25 198.605469 111.351562 196.800781 113.082031 C 196.53125 113.339844 196.058594 113.59375 196.050781 113.863281 C 196.035156 114.207031 196.546875 114.414062 196.816406 114.699219 Z M 174.960938 120.0625 C 176.730469 121.59375 178.585938 122.980469 180.691406 124.03125 C 182.113281 124.738281 183.582031 125.292969 185.101562 125.730469 C 185.441406 125.828125 185.710938 125.792969 185.835938 125.363281 C 185.972656 124.917969 186.183594 124.492188 186.367188 124.058594 C 187.953125 120.296875 190.359375 117.273438 194.132812 115.492188 C 194.519531 115.3125 194.519531 115.191406 194.199219 114.933594 C 193.113281 114.039062 191.996094 113.167969 190.96875 112.207031 C 188.792969 110.164062 186.191406 109.316406 183.269531 109.253906 C 182.234375 109.261719 181.207031 109.375 180.183594 109.492188 C 177.597656 109.785156 175.523438 110.949219 174.148438 113.171875 C 172.769531 115.398438 172.71875 118.117188 174.960938 120.0625 Z M 247.414062 244.316406 C 247.246094 243.128906 246.574219 242.164062 245.449219 241.664062 C 244.460938 241.226562 243.570312 241.644531 242.773438 242.234375 C 238.300781 245.546875 233.464844 248.269531 228.546875 250.832031 C 225.75 252.289062 222.875 253.613281 219.886719 254.660156 C 219.382812 254.839844 219.417969 255.046875 219.609375 255.441406 C 220.269531 256.765625 221.484375 256.925781 222.671875 257.011719 C 225.957031 256.824219 229.042969 256.117188 231.980469 254.847656 C 236.234375 253.011719 240.3125 250.832031 244.113281 248.164062 C 245.003906 247.535156 245.875 246.871094 246.609375 246.054688 C 247.0625 245.558594 247.507812 244.960938 247.414062 244.316406 Z M 163.441406 254.179688 C 160.738281 252.550781 158.066406 250.890625 155.664062 248.804688 C 153.324219 246.773438 151.183594 244.582031 149.359375 242.078125 C 147.183594 239.09375 145.484375 235.867188 144.464844 232.304688 C 144.398438 232.070312 144.3125 232.023438 144.117188 232.144531 C 142.324219 233.285156 141.691406 233.5 141.714844 235.796875 C 141.675781 236.296875 141.773438 236.890625 141.890625 237.480469 C 142.378906 239.898438 143.417969 242.070312 144.796875 244.09375 C 145.898438 245.707031 147 247.335938 148.472656 248.644531 C 150.085938 250.078125 151.71875 251.496094 153.371094 252.890625 C 154.976562 254.25 156.613281 255.566406 158.472656 256.585938 C 160.632812 257.769531 162.421875 256.835938 163.652344 255.152344 C 163.972656 254.71875 163.917969 254.464844 163.441406 254.179688 Z M 223.40625 136.621094 C 223.980469 136.949219 224.597656 137.175781 225.21875 137.382812 C 226.675781 137.867188 227.988281 138.5625 228.878906 139.875 C 228.996094 140.046875 229.152344 140.121094 229.363281 140.109375 C 229.988281 139.996094 230.625 139.910156 231.242188 139.761719 C 234.007812 139.117188 236.761719 138.429688 239.242188 136.972656 C 240.480469 136.246094 241.667969 135.4375 242.375 134.128906 C 242.847656 133.25 242.449219 132.398438 241.464844 132.210938 C 240.65625 132.058594 239.832031 131.917969 239.015625 131.878906 C 236.5 131.761719 233.984375 131.699219 231.46875 131.613281 C 230.121094 131.5625 228.777344 131.402344 227.441406 131.214844 C 226.441406 131.070312 225.445312 130.871094 224.445312 130.734375 C 224.210938 130.699219 223.867188 130.539062 223.824219 131.035156 C 223.675781 132.679688 223.382812 134.304688 223.070312 135.925781 C 223.011719 136.246094 223.121094 136.457031 223.40625 136.621094 Z M 200.914062 162.082031 C 201.089844 160.824219 201.28125 159.558594 201.472656 158.300781 C 201.53125 157.9375 201.421875 157.800781 201.03125 157.8125 C 200.167969 157.84375 199.304688 157.875 198.441406 157.941406 C 197.652344 158 197.199219 157.335938 197.496094 156.589844 C 197.597656 156.332031 197.746094 156.085938 197.886719 155.84375 C 198.8125 154.285156 199.542969 152.636719 200.214844 150.960938 C 200.265625 150.828125 200.457031 150.628906 200.246094 150.519531 C 200.074219 150.433594 199.890625 150.582031 199.757812 150.722656 C 199.707031 150.777344 199.671875 150.847656 199.636719 150.914062 C 199.398438 151.300781 199.167969 151.6875 198.933594 152.070312 C 197.292969 154.730469 195.835938 157.488281 194.273438 160.191406 C 192.167969 163.84375 190.132812 167.519531 188.46875 171.402344 C 188.019531 172.441406 187.691406 173.457031 187.8125 174.601562 C 187.894531 175.402344 187.917969 176.214844 187.917969 177.019531 C 187.917969 177.441406 188.089844 177.535156 188.460938 177.492188 C 189.691406 177.347656 190.925781 177.191406 192.101562 176.789062 C 193.378906 176.351562 194.5 175.652344 195.503906 174.707031 C 195.339844 174.523438 195.199219 174.566406 195.078125 174.570312 C 194.101562 174.59375 193.21875 174.289062 192.410156 173.785156 C 191.140625 172.996094 190.277344 171.851562 190.464844 170.34375 C 190.769531 167.90625 191.859375 165.71875 193.085938 163.613281 C 193.34375 163.175781 193.753906 162.96875 194.257812 162.941406 C 196.265625 162.824219 198.257812 162.519531 200.273438 162.597656 C 200.675781 162.609375 200.859375 162.472656 200.914062 162.082031 Z M 198.558594 164.5 C 197.699219 164.574219 196.300781 164.707031 194.898438 164.820312 C 194.644531 164.84375 194.476562 164.945312 194.367188 165.167969 C 193.628906 166.652344 192.949219 168.160156 192.488281 169.753906 C 192.152344 170.914062 192.542969 171.683594 193.617188 172.265625 C 194.515625 172.746094 195.464844 172.628906 196.425781 172.582031 C 197.417969 172.539062 197.902344 171.996094 198.292969 171.160156 C 199.097656 169.429688 199.640625 167.613281 200.121094 165.777344 C 200.460938 164.480469 200.445312 164.476562 198.558594 164.5 Z M 148.929688 232.992188 C 148.207031 232.535156 147.445312 232.179688 146.644531 231.933594 C 146.410156 231.894531 146.363281 231.996094 146.425781 232.191406 C 146.46875 232.332031 146.492188 232.484375 146.542969 232.625 C 147.773438 236.199219 149.609375 239.4375 151.992188 242.371094 C 152.285156 242.730469 152.476562 242.675781 152.730469 242.355469 C 153.679688 241.136719 154.574219 239.882812 155.097656 238.40625 C 155.171875 238.199219 155.226562 238.015625 155.050781 237.835938 C 154.644531 237.414062 154.257812 236.980469 153.84375 236.570312 C 152.386719 235.128906 150.640625 234.082031 148.929688 232.992188 Z M 228.902344 248.503906 C 229.171875 248.367188 229.402344 248.261719 229.148438 247.878906 C 228.308594 246.632812 227.300781 245.570312 226.039062 244.742188 C 225.808594 244.59375 225.636719 244.585938 225.441406 244.757812 C 224.386719 245.667969 223.222656 246.429688 222.085938 247.226562 C 220.246094 248.511719 219.34375 250.351562 218.988281 252.507812 C 218.933594 252.847656 219.007812 252.96875 219.371094 252.820312 C 220.117188 252.511719 220.878906 252.242188 221.621094 251.933594 C 224.097656 250.902344 226.507812 249.71875 228.902344 248.503906 Z M 228.902344 248.503906 " fill-opacity="1" fill-rule="nonzero"/><path fill="#a293dd" d="M 216.527344 158.269531 C 216.617188 162.414062 216.242188 166.554688 215.859375 170.691406 C 215.855469 170.730469 215.855469 170.769531 215.855469 170.804688 C 215.757812 172.136719 215.757812 172.136719 214.460938 171.90625 C 212.925781 171.628906 212.933594 171.632812 213.269531 170.09375 C 214.058594 166.476562 214.683594 162.820312 215.566406 159.222656 C 215.621094 159.007812 215.636719 158.773438 215.621094 158.550781 C 215.589844 158.085938 215.328125 157.777344 214.871094 157.6875 C 214.398438 157.59375 214.0625 157.820312 213.875 158.242188 C 213.773438 158.460938 213.738281 158.707031 213.683594 158.945312 C 212.589844 163.535156 211.808594 168.191406 210.742188 172.789062 C 210.296875 174.699219 209.726562 176.566406 208.910156 178.355469 C 208.742188 178.722656 208.640625 178.875 208.296875 178.46875 C 206.878906 176.808594 205.113281 175.597656 203.152344 174.683594 C 202.042969 174.167969 200.941406 173.640625 199.78125 173.242188 C 199.601562 173.179688 199.355469 173.175781 199.539062 172.839844 C 201.132812 169.972656 201.867188 166.832031 202.542969 163.65625 C 203.085938 161.097656 203.28125 158.480469 203.746094 155.914062 C 204.183594 153.492188 205.027344 151.234375 206.542969 149.273438 C 207.710938 147.757812 209.222656 146.769531 211.109375 146.367188 C 212.878906 145.992188 214.320312 146.636719 215.171875 148.242188 C 216.082031 149.957031 216.445312 151.8125 216.492188 153.730469 C 216.523438 155.242188 216.632812 156.742188 216.527344 158.269531 Z M 156.578125 157.988281 C 157.609375 157.214844 157.648438 157.160156 157.117188 155.96875 C 157.007812 155.726562 156.886719 155.492188 156.746094 155.269531 C 155.304688 152.992188 153.207031 152.0625 150.554688 152.273438 C 150.203125 152.300781 149.730469 152.257812 149.566406 152.527344 C 149.417969 152.777344 149.835938 153.042969 150.007812 153.300781 C 150.351562 153.8125 150.332031 154.28125 149.945312 154.621094 C 149.558594 154.964844 149.082031 154.941406 148.625 154.542969 C 148.308594 154.269531 148.074219 153.921875 147.878906 153.558594 C 147.707031 153.238281 147.539062 153.242188 147.261719 153.429688 C 145.933594 154.316406 145.027344 155.53125 144.460938 157.015625 C 144.316406 157.382812 144.351562 157.585938 144.792969 157.765625 C 147.359375 158.832031 149.007812 160.699219 149.664062 163.429688 C 149.761719 163.835938 149.546875 164.417969 149.9375 164.617188 C 150.277344 164.792969 150.78125 164.652344 151.210938 164.652344 C 151.210938 164.640625 151.210938 164.628906 151.210938 164.613281 C 151.664062 164.59375 152.113281 164.558594 152.5625 164.546875 C 152.808594 164.542969 152.921875 164.464844 152.9375 164.191406 C 153.117188 161.527344 154.5 159.546875 156.578125 157.988281 Z M 178.410156 156.867188 C 178 157.230469 177.578125 157.578125 177.070312 157.792969 C 176.515625 158.03125 176 157.875 175.75 157.414062 C 175.519531 156.976562 175.683594 156.492188 176.175781 156.15625 C 176.484375 155.941406 176.785156 155.71875 177.09375 155.507812 C 177.351562 155.332031 177.332031 155.199219 177.082031 155.007812 C 176.035156 154.203125 174.851562 153.867188 173.542969 153.988281 C 173.277344 153.988281 173.011719 153.96875 172.75 153.992188 C 170.605469 154.195312 168.90625 155.1875 167.640625 156.929688 C 167.492188 157.136719 167.390625 157.300781 167.652344 157.550781 C 169.347656 159.171875 170.257812 161.148438 170.277344 163.511719 C 170.28125 163.84375 170.394531 163.921875 170.707031 163.90625 C 173.449219 163.792969 176.195312 163.6875 178.933594 163.59375 C 179.277344 163.582031 179.476562 163.492188 179.601562 163.148438 C 180.445312 160.929688 180.03125 158.875 178.835938 156.910156 C 178.695312 156.664062 178.585938 156.710938 178.410156 156.867188 Z M 162.464844 157.726562 C 160.519531 157.90625 158.363281 158.679688 156.652344 160.425781 C 155.683594 161.410156 155.019531 162.578125 154.839844 163.980469 C 154.792969 164.367188 154.890625 164.5 155.3125 164.480469 C 158.167969 164.351562 161.023438 164.25 163.878906 164.136719 C 165.25 164.082031 166.621094 164.019531 167.992188 163.972656 C 168.261719 163.960938 168.375 163.898438 168.398438 163.59375 C 168.601562 160.460938 166.003906 157.667969 162.464844 157.726562 Z M 141.660156 159.097656 C 140.132812 159.214844 138.441406 159.695312 136.972656 160.757812 C 135.597656 161.753906 134.730469 163.113281 134.429688 164.8125 C 134.367188 165.171875 134.425781 165.265625 134.804688 165.246094 C 136.570312 165.160156 138.339844 165.109375 140.105469 165.039062 C 142.566406 164.945312 145.027344 164.839844 147.492188 164.75 C 147.816406 164.738281 147.925781 164.695312 147.878906 164.3125 C 147.5 161.375 144.875 159.050781 141.660156 159.097656 Z M 159.140625 155.984375 C 159.265625 156.4375 159.429688 156.566406 159.863281 156.363281 C 160.152344 156.234375 160.546875 156.253906 160.753906 156.058594 C 161 155.824219 160.691406 155.46875 160.6875 155.160156 C 160.683594 154.644531 160.867188 154.265625 161.375 154.128906 C 161.859375 154.003906 162.214844 154.234375 162.445312 154.660156 C 162.578125 154.890625 162.628906 155.152344 162.664062 155.414062 C 162.699219 155.703125 162.839844 155.808594 163.148438 155.8125 C 163.921875 155.824219 164.679688 155.953125 165.402344 156.246094 C 165.664062 156.347656 165.804688 156.304688 165.949219 156.0625 C 166.246094 155.5625 166.605469 155.101562 167.035156 154.703125 C 167.210938 154.539062 167.242188 154.398438 167.160156 154.160156 C 166.382812 151.976562 164.714844 150.753906 162.390625 150.695312 C 161.066406 150.664062 158.566406 151.648438 157.53125 152.582031 C 157.3125 152.78125 157.300781 152.902344 157.5 153.121094 C 158.253906 153.957031 158.84375 154.898438 159.140625 155.984375 Z M 195.910156 152.628906 C 195.054688 153.316406 194.335938 154.136719 193.628906 154.964844 C 191.285156 157.695312 189.445312 160.796875 187.265625 163.652344 C 187.019531 163.976562 186.964844 164.230469 187.222656 164.582031 C 187.457031 164.902344 187.503906 165.308594 187.503906 165.710938 C 187.496094 166.621094 187.5 167.523438 187.5 168.554688 C 187.691406 168.410156 187.734375 168.398438 187.746094 168.367188 C 189.65625 164.105469 192.1875 160.175781 194.390625 156.074219 C 195.078125 154.800781 195.800781 153.554688 196.507812 152.296875 C 196.230469 152.257812 196.089844 152.492188 195.910156 152.628906 Z M 196.511719 152.296875 C 196.511719 152.296875 196.515625 152.296875 196.511719 152.296875 C 196.515625 152.296875 196.515625 152.292969 196.515625 152.292969 C 196.515625 152.292969 196.515625 152.296875 196.511719 152.296875 Z M 201.601562 155.988281 C 201.832031 156.050781 201.816406 155.84375 201.839844 155.703125 C 202.039062 154.394531 202.460938 153.148438 202.9375 151.871094 C 201.941406 151.980469 201.871094 151.976562 201.777344 152.195312 C 201.257812 153.457031 200.671875 154.695312 200.015625 155.941406 C 200.59375 155.992188 201.101562 155.863281 201.601562 155.988281 Z M 196.523438 152.214844 C 196.523438 152.238281 196.519531 152.269531 196.515625 152.292969 C 196.535156 152.269531 196.558594 152.25 196.574219 152.226562 C 196.558594 152.222656 196.539062 152.214844 196.523438 152.214844 Z M 196.523438 152.214844 " fill-opacity="1" fill-rule="nonzero"/><path fill="#2c2b29" d="M 244.445312 239.605469 C 244.152344 239.640625 244.058594 239.554688 244.035156 239.253906 C 243.953125 238.1875 243.613281 237.199219 243.082031 236.269531 C 241.84375 234.109375 240.378906 232.105469 238.773438 230.207031 C 238.339844 229.695312 238.269531 229.300781 238.625 228.691406 C 239.167969 227.746094 239.296875 226.621094 238.640625 225.734375 C 237.730469 224.515625 236.984375 223.183594 235.945312 222.054688 C 234.925781 220.949219 233.9375 219.8125 232.878906 218.742188 C 231.175781 217.023438 230.355469 214.898438 230.273438 212.484375 C 230.191406 210.136719 229.34375 208.132812 227.609375 206.519531 C 227.074219 206.019531 226.554688 205.5 226.011719 205.007812 C 223.828125 203.03125 222.84375 200.605469 223.101562 197.644531 C 223.253906 195.816406 222.929688 194.046875 222.070312 192.394531 C 221.714844 191.707031 221.378906 191.015625 221.035156 190.328125 C 219.640625 187.539062 219.734375 184.519531 219.726562 181.53125 C 219.722656 179.089844 219.890625 176.644531 220.214844 174.21875 C 220.3125 173.492188 219.898438 172.933594 219.195312 172.734375 C 218.835938 172.632812 218.464844 172.558594 218.09375 172.5 C 217.765625 172.449219 217.628906 172.335938 217.660156 171.957031 C 217.832031 170.179688 217.972656 168.398438 218.105469 166.617188 C 218.472656 161.621094 218.695312 156.621094 218.183594 151.625 C 217.992188 149.738281 217.480469 147.855469 216.175781 146.441406 C 215.351562 145.550781 215.476562 144.871094 215.949219 144.003906 C 216.222656 143.507812 216.488281 143.003906 217.03125 142.625 C 217.167969 143.894531 217.316406 145.082031 217.625 146.242188 C 218.035156 147.800781 218.910156 148.988281 220.363281 149.71875 C 220.90625 149.992188 221.476562 150.183594 222.066406 150.308594 C 222.34375 150.371094 222.425781 150.476562 222.367188 150.769531 C 222.117188 152.011719 222.121094 153.277344 222.144531 154.539062 C 222.179688 156.207031 222.601562 157.726562 223.847656 158.945312 C 224.84375 159.917969 226.070312 160.410156 227.386719 160.707031 C 227.8125 160.804688 227.917969 160.988281 227.894531 161.398438 C 227.835938 162.378906 227.941406 163.355469 228.144531 164.316406 C 228.585938 166.382812 229.589844 167.980469 231.730469 168.636719 C 232.378906 168.835938 233.050781 168.941406 233.730469 168.976562 C 234.152344 169 234.246094 169.167969 234.253906 169.566406 C 234.265625 170.679688 234.292969 171.789062 234.390625 172.894531 C 234.503906 174.25 234.679688 175.601562 235.523438 176.742188 C 236.53125 178.101562 238.078125 178.0625 239.023438 176.660156 C 239.234375 176.339844 239.40625 175.996094 239.621094 175.625 C 239.78125 175.878906 239.902344 176.089844 240.039062 176.289062 C 240.675781 177.210938 241.398438 178.054688 242.511719 178.429688 C 243.878906 178.894531 245.03125 178.214844 245.285156 176.796875 C 245.375 176.277344 245.371094 175.746094 245.261719 175.226562 C 245.152344 174.707031 245.027344 174.1875 244.898438 173.628906 C 245.207031 173.699219 245.460938 173.769531 245.71875 173.816406 C 247.480469 174.113281 248.972656 173.234375 249.300781 171.691406 C 249.503906 170.726562 249.128906 169.914062 248.558594 169.179688 C 247.90625 168.34375 247.039062 167.777344 246.113281 167.304688 C 244.21875 166.339844 242.308594 165.402344 240.207031 164.957031 C 239.910156 164.894531 239.789062 164.769531 239.832031 164.460938 C 239.933594 163.785156 239.816406 163.109375 239.730469 162.4375 C 239.425781 160.074219 237.9375 158.503906 235.597656 158.050781 C 235.160156 157.964844 234.523438 158.035156 234.324219 157.773438 C 234.082031 157.449219 234.460938 156.90625 234.558594 156.453125 C 235.328125 152.886719 233.960938 150.28125 230.578125 148.917969 C 230.160156 148.75 229.742188 148.558594 229.304688 148.46875 C 228.765625 148.359375 228.757812 148.128906 228.90625 147.660156 C 229.46875 145.90625 230.054688 144.144531 229.8125 142.253906 C 229.78125 141.988281 229.933594 141.953125 230.144531 141.921875 C 231.226562 141.769531 232.285156 141.496094 233.34375 141.234375 C 236.054688 140.550781 238.691406 139.683594 241.042969 138.117188 C 242.164062 137.367188 243.175781 136.5 243.90625 135.347656 C 244.378906 134.601562 244.671875 133.785156 244.472656 132.886719 C 244.132812 131.351562 243.050781 130.558594 241.601562 130.285156 C 239.847656 129.960938 238.070312 129.757812 236.304688 129.488281 C 234.539062 129.21875 232.742188 129.109375 231.015625 128.636719 C 228.53125 127.960938 226.054688 127.25 223.636719 126.34375 C 223.277344 126.207031 223.140625 126.066406 223.148438 125.675781 C 223.1875 123.28125 222.914062 120.921875 222.414062 118.566406 C 221.589844 114.730469 219.730469 111.632812 216.308594 109.617188 C 214.390625 108.488281 212.332031 107.644531 210.148438 107.160156 C 208.914062 106.886719 207.660156 106.703125 206.394531 106.859375 C 202.410156 107.339844 198.835938 108.792969 195.796875 111.457031 C 195.402344 111.800781 194.972656 112.128906 194.734375 112.617188 C 194.589844 112.917969 194.464844 112.6875 194.355469 112.597656 C 193.636719 111.992188 192.910156 111.390625 192.210938 110.765625 C 190.917969 109.613281 189.5 108.699219 187.847656 108.125 C 185.019531 107.144531 182.15625 107.261719 179.265625 107.734375 C 177.046875 108.09375 175.167969 109.066406 173.652344 110.726562 C 171.683594 112.882812 170.859375 115.375 171.550781 118.269531 C 171.867188 119.582031 172.75 120.554688 173.703125 121.453125 C 176.800781 124.375 180.417969 126.386719 184.511719 127.539062 C 184.96875 127.667969 185.058594 127.8125 184.925781 128.269531 C 184.6875 129.082031 184.527344 129.917969 184.550781 130.769531 C 184.582031 131.972656 185.371094 132.636719 186.558594 132.472656 C 187.367188 132.363281 188.046875 131.980469 188.65625 131.457031 C 188.761719 131.367188 188.824219 131.191406 189.015625 131.230469 C 189.472656 132.621094 189.507812 133.988281 188.902344 135.351562 C 188.691406 135.832031 188.488281 136.324219 188.347656 136.828125 C 187.878906 138.480469 188.460938 140.058594 189.875 140.8125 C 190.398438 141.09375 190.691406 141.480469 190.929688 141.984375 C 191.605469 143.398438 192.359375 144.757812 193.398438 145.949219 C 195.199219 148.007812 197.417969 148.601562 200.027344 147.929688 C 200.164062 147.894531 200.359375 147.6875 200.464844 147.925781 C 200.574219 148.152344 200.398438 148.332031 200.207031 148.421875 C 199.832031 148.597656 199.449219 148.769531 199.054688 148.882812 C 196.710938 149.570312 194.773438 150.878906 193.152344 152.679688 C 191.195312 154.851562 189.480469 157.207031 187.851562 159.632812 C 187.140625 160.691406 186.425781 161.757812 185.574219 162.71875 C 185.339844 162.988281 185.09375 163.332031 184.734375 163.347656 C 183.691406 163.390625 182.640625 163.363281 181.605469 163.363281 C 182.304688 160.722656 181.949219 158.167969 180.382812 155.832031 C 180.039062 155.316406 180 154.96875 180.347656 154.453125 C 180.867188 153.683594 180.785156 153.09375 180.25 152.773438 C 179.730469 152.46875 179.277344 152.667969 178.773438 153.464844 C 178.636719 153.679688 178.550781 153.753906 178.304688 153.574219 C 175.40625 151.460938 172.371094 151.691406 169.289062 153.09375 C 168.890625 153.273438 168.796875 153.167969 168.648438 152.84375 C 167.898438 151.203125 166.730469 149.964844 165.023438 149.316406 C 164.574219 149.144531 164.410156 149.011719 164.609375 148.503906 C 164.820312 147.980469 164.539062 147.488281 164.058594 147.3125 C 163.605469 147.152344 163.148438 147.359375 162.890625 147.847656 C 162.796875 148.035156 162.714844 148.222656 162.660156 148.421875 C 162.574219 148.714844 162.40625 148.808594 162.089844 148.832031 C 159.820312 149.003906 157.84375 149.910156 156.125 151.371094 C 155.867188 151.59375 155.714844 151.582031 155.453125 151.433594 C 153.628906 150.390625 151.664062 150.113281 149.621094 150.53125 C 149 150.660156 148.652344 150.683594 148.511719 149.929688 C 148.414062 149.40625 147.863281 149.160156 147.417969 149.28125 C 146.96875 149.40625 146.6875 149.855469 146.746094 150.386719 C 146.769531 150.570312 146.800781 150.761719 146.875 150.933594 C 147.015625 151.273438 146.929688 151.460938 146.601562 151.652344 C 144.992188 152.589844 143.804688 153.921875 143.023438 155.609375 C 142.789062 156.117188 142.765625 156.855469 142.382812 157.121094 C 141.972656 157.410156 141.25 157.191406 140.683594 157.339844 C 140.414062 157.410156 140.269531 157.328125 140.160156 157.074219 C 139.980469 156.660156 139.816406 156.238281 139.5 155.898438 C 139.121094 155.488281 138.632812 155.402344 138.234375 155.667969 C 137.832031 155.933594 137.726562 156.417969 137.964844 156.917969 C 138.03125 157.054688 138.101562 157.191406 138.1875 157.3125 C 138.484375 157.734375 138.390625 157.941406 137.894531 158.144531 C 135.074219 159.308594 133.25 161.34375 132.609375 164.363281 C 132.402344 165.316406 132.425781 165.320312 131.472656 165.382812 C 130.113281 165.472656 129.167969 166.484375 129.21875 167.847656 C 129.335938 171.289062 129.46875 174.730469 129.597656 178.171875 C 129.851562 184.808594 130.101562 191.445312 130.355469 198.085938 C 130.429688 200.136719 130.496094 202.1875 130.589844 204.234375 C 130.65625 205.734375 131.671875 206.679688 133.15625 206.632812 C 135.582031 206.554688 138.007812 206.464844 140.433594 206.371094 C 146.753906 206.125 153.070312 205.871094 159.390625 205.625 C 163.128906 205.476562 166.875 205.335938 170.617188 205.199219 C 171.433594 205.171875 172.253906 205.199219 173.113281 205.199219 C 172.414062 206.523438 171.929688 207.902344 171.609375 209.335938 C 171.09375 211.625 169.972656 213.566406 168.300781 215.199219 C 167.65625 215.828125 167.023438 216.472656 166.453125 217.179688 C 165.007812 218.964844 164.246094 221.066406 163.644531 223.230469 C 162.773438 226.394531 161.164062 229.058594 158.589844 231.121094 C 157.980469 231.613281 157.828125 232.269531 157.9375 233 C 158.042969 233.722656 158.359375 234.359375 158.851562 234.90625 C 159.203125 235.300781 159.628906 235.617188 160.058594 235.960938 C 159.53125 236.609375 158.949219 237.167969 158.1875 237.492188 C 157.753906 237.675781 157.242188 237.933594 157.070312 237.152344 C 157.054688 237.070312 156.960938 237.003906 156.898438 236.9375 C 154.894531 234.824219 152.652344 233.015625 150.148438 231.507812 C 148.636719 230.601562 147.027344 230.039062 145.347656 229.605469 C 145.117188 229.542969 144.898438 229.613281 144.695312 229.71875 C 143.570312 230.292969 142.457031 230.882812 141.460938 231.671875 C 140.753906 232.226562 140.285156 232.925781 140.046875 233.789062 C 139.679688 235.109375 139.757812 236.441406 140.027344 237.757812 C 141.015625 242.582031 143.679688 246.476562 147.070312 249.878906 C 149.003906 251.816406 151.175781 253.527344 153.285156 255.289062 C 154.703125 256.46875 156.171875 257.589844 157.847656 258.394531 C 160.839844 259.835938 164.230469 258.597656 165.621094 255.570312 C 165.5 254.402344 166.5 254.195312 167.199219 253.722656 C 168.535156 252.820312 169.550781 251.621094 170.417969 250.28125 C 171.351562 248.847656 172.234375 247.378906 173.214844 245.976562 C 173.394531 245.722656 173.5 245.660156 173.773438 245.875 C 174.445312 246.394531 175.183594 246.804688 175.980469 247.113281 C 177.34375 247.636719 178.640625 247.519531 179.863281 246.734375 C 181.101562 245.9375 182.246094 245.03125 183.183594 243.867188 C 184.636719 242.054688 185.730469 240.058594 186.472656 237.863281 C 187.105469 236.011719 187.753906 234.167969 188.382812 232.316406 C 188.6875 231.433594 189.128906 230.636719 189.722656 229.917969 C 190.574219 228.886719 191.402344 227.835938 192.253906 226.804688 C 193.804688 224.933594 195.09375 222.917969 195.726562 220.535156 C 195.839844 220.105469 196.023438 219.6875 196.191406 219.265625 C 197.011719 217.191406 198.382812 215.527344 200.089844 214.042969 C 200.164062 214.242188 200.222656 214.394531 200.273438 214.550781 C 200.679688 215.746094 201.128906 216.921875 201.796875 218 C 202.78125 219.585938 204.054688 220.914062 205.464844 222.113281 C 207.242188 223.621094 208.375 225.488281 208.75 227.800781 C 209.125 230.132812 210.105469 232.171875 211.722656 233.894531 C 211.96875 234.15625 212.1875 234.4375 212.429688 234.703125 C 213.558594 235.96875 214.394531 237.40625 214.980469 238.992188 C 215.144531 239.4375 215.304688 239.875 215.488281 240.3125 C 216.015625 241.59375 216.988281 242.210938 218.308594 242.101562 C 218.660156 242.070312 219.019531 242.015625 219.367188 241.925781 C 221.402344 241.402344 223.289062 240.515625 225.097656 239.457031 C 225.492188 239.226562 225.597656 239.257812 225.683594 239.726562 C 225.953125 241.210938 225.488281 242.359375 224.304688 243.292969 C 223.136719 244.21875 221.84375 244.976562 220.71875 245.945312 C 217.9375 248.332031 216.410156 251.210938 217.4375 254.996094 C 217.996094 257.042969 219.195312 258.417969 221.363281 258.792969 C 222.066406 258.914062 222.78125 258.96875 223.496094 258.894531 C 225.6875 258.664062 227.871094 258.351562 229.960938 257.628906 C 235.660156 255.664062 240.890625 252.804688 245.785156 249.304688 C 246.765625 248.605469 247.703125 247.847656 248.425781 246.859375 C 248.949219 246.148438 249.355469 245.332031 249.347656 244.480469 C 249.300781 242.035156 246.882812 239.316406 244.445312 239.605469 Z M 237.703125 234.59375 C 237.152344 235.21875 235.929688 235.464844 235.09375 235.117188 C 235.007812 235.082031 234.925781 235.035156 234.835938 235.003906 C 234.308594 234.816406 233.835938 234.96875 233.617188 235.398438 C 233.40625 235.820312 233.546875 236.339844 233.988281 236.632812 C 234.839844 237.203125 235.785156 237.265625 236.753906 237.085938 C 238.160156 236.828125 239.230469 236.117188 239.816406 234.667969 C 240.5625 235.726562 241.242188 236.71875 241.742188 237.820312 C 241.84375 238.042969 241.929688 238.269531 241.996094 238.507812 C 242.386719 239.898438 242.257812 240.273438 241.101562 241.113281 C 238.007812 243.363281 234.699219 245.265625 231.386719 247.164062 C 231.113281 247.320312 230.988281 247.285156 230.820312 247.011719 C 229.90625 245.542969 228.734375 244.304688 227.304688 243.320312 C 227.15625 243.21875 227.003906 243.15625 227.125 242.890625 C 227.949219 241.039062 227.648438 239.214844 226.945312 237.414062 C 226.800781 237.046875 226.632812 236.683594 226.429688 236.351562 C 226.269531 236.085938 226.339844 235.96875 226.578125 235.820312 C 229.695312 233.90625 232.609375 231.722656 235.34375 229.292969 C 235.546875 229.113281 235.648438 229.152344 235.789062 229.339844 C 236.449219 230.230469 237.148438 231.09375 237.769531 232.015625 C 238.335938 232.839844 238.265625 233.960938 237.703125 234.59375 Z M 216.488281 153.738281 C 216.523438 155.242188 216.628906 156.746094 216.523438 158.269531 C 216.613281 162.414062 216.238281 166.554688 215.855469 170.691406 C 215.855469 170.730469 215.851562 170.769531 215.851562 170.804688 C 215.753906 172.136719 215.753906 172.136719 214.460938 171.90625 C 212.921875 171.628906 212.929688 171.632812 213.265625 170.09375 C 214.054688 166.476562 214.679688 162.820312 215.5625 159.222656 C 215.617188 159.007812 215.632812 158.773438 215.617188 158.550781 C 215.585938 158.085938 215.324219 157.777344 214.867188 157.6875 C 214.394531 157.59375 214.058594 157.820312 213.871094 158.242188 C 213.769531 158.460938 213.734375 158.707031 213.679688 158.945312 C 212.585938 163.535156 211.808594 168.191406 210.738281 172.789062 C 210.292969 174.699219 209.722656 176.566406 208.90625 178.355469 C 208.738281 178.722656 208.640625 178.875 208.292969 178.46875 C 206.875 176.808594 205.113281 175.597656 203.148438 174.683594 C 202.039062 174.167969 200.9375 173.640625 199.777344 173.242188 C 199.597656 173.179688 199.351562 173.175781 199.535156 172.839844 C 201.128906 169.972656 201.863281 166.832031 202.539062 163.65625 C 203.082031 161.097656 203.277344 158.480469 203.742188 155.914062 C 204.183594 153.492188 205.027344 151.234375 206.542969 149.273438 C 207.710938 147.757812 209.21875 146.769531 211.105469 146.367188 C 212.875 145.992188 214.316406 146.636719 215.167969 148.242188 C 216.078125 149.960938 216.445312 151.816406 216.488281 153.738281 Z M 162.113281 192.328125 C 161.683594 191.980469 161.21875 192.015625 160.765625 192.496094 C 159.304688 194.046875 157.789062 195.535156 155.953125 196.65625 C 153.886719 197.917969 151.734375 198.964844 149.308594 199.347656 C 147.984375 199.554688 146.75 198.996094 146.140625 197.886719 C 146.015625 197.660156 145.867188 197.453125 146.285156 197.351562 C 149.015625 196.71875 151.4375 195.386719 153.796875 193.933594 C 155.15625 193.097656 156.507812 192.238281 157.765625 191.25 C 158.0625 191.015625 158.339844 190.757812 158.589844 190.480469 C 158.957031 190.074219 158.957031 189.632812 158.636719 189.261719 C 158.289062 188.855469 157.835938 188.773438 157.378906 189.117188 C 156.617188 189.691406 155.882812 190.316406 155.082031 190.84375 C 152.75 192.367188 150.390625 193.84375 147.796875 194.890625 C 146.347656 195.476562 144.851562 195.765625 143.28125 195.671875 C 141.734375 195.578125 140.910156 194.71875 140.917969 193.113281 C 140.890625 192.695312 140.976562 192.238281 141.226562 191.824219 C 141.492188 191.382812 141.800781 191.101562 142.414062 191.210938 C 143.269531 191.363281 144.144531 191.238281 144.976562 190.980469 C 148.859375 189.777344 152.425781 187.960938 155.695312 185.554688 C 156.210938 185.175781 156.34375 184.550781 156.035156 184.117188 C 155.726562 183.6875 155.199219 183.597656 154.632812 183.976562 C 153.382812 184.816406 152.164062 185.695312 150.835938 186.40625 C 148.757812 187.523438 146.628906 188.503906 144.359375 189.160156 C 143.550781 189.398438 142.738281 189.40625 141.921875 189.136719 C 140.390625 188.632812 140.289062 187.082031 140.890625 186.167969 C 141.625 185.058594 142.703125 184.425781 143.914062 184.011719 C 145.867188 183.339844 147.835938 182.703125 149.753906 181.929688 C 150.632812 181.582031 151.480469 181.183594 152.28125 180.679688 C 152.507812 180.535156 152.746094 180.457031 153.007812 180.398438 C 155.125 179.933594 157.121094 179.199219 158.816406 177.792969 C 159.003906 177.636719 159.1875 177.472656 159.355469 177.296875 C 159.785156 176.835938 159.808594 176.324219 159.441406 175.9375 C 159.085938 175.558594 158.511719 175.53125 158.070312 175.914062 C 157.585938 176.332031 157.105469 176.753906 156.546875 177.074219 C 154.917969 178.003906 153.160156 178.519531 151.308594 178.703125 C 150.476562 178.785156 149.664062 178.621094 148.945312 178.125 C 147.90625 177.414062 147.863281 176.023438 148.871094 175.265625 C 149.253906 174.976562 149.695312 174.796875 150.171875 174.777344 C 152.316406 174.691406 154.308594 174.003906 156.246094 173.191406 C 158.394531 172.292969 160.476562 171.234375 162.710938 170.53125 C 163.75 170.203125 164.808594 169.941406 165.894531 169.816406 C 168.234375 169.550781 169.867188 170.773438 170.304688 173.097656 C 170.394531 173.59375 170.460938 174.097656 170.507812 174.605469 C 170.546875 175.023438 170.769531 175.257812 171.121094 175.472656 C 173.527344 176.945312 176.21875 177.558594 178.921875 178.15625 C 180.078125 178.410156 180.078125 178.382812 179.78125 179.496094 C 178.757812 183.378906 177.664062 187.246094 177.066406 191.230469 C 177.007812 191.613281 176.882812 191.757812 176.4375 191.628906 C 174.761719 191.125 173.058594 190.914062 171.328125 191.382812 C 170.164062 191.695312 169.1875 192.378906 168.179688 192.996094 C 166.3125 194.132812 164.660156 195.578125 162.785156 196.695312 C 160.949219 197.796875 159.03125 198.679688 156.890625 199.003906 C 156.777344 199.019531 156.667969 199.046875 156.554688 199.054688 C 156.417969 199.066406 156.273438 199.027344 156.21875 198.898438 C 156.148438 198.734375 156.304688 198.675781 156.414062 198.609375 C 158.121094 197.632812 159.628906 196.386719 161.027344 195.011719 C 161.441406 194.605469 161.832031 194.164062 162.183594 193.703125 C 162.546875 193.242188 162.488281 192.632812 162.113281 192.328125 Z M 178.84375 191.929688 C 179.535156 187.695312 180.65625 183.5625 181.765625 179.417969 C 181.886719 178.964844 182.035156 178.828125 182.5625 178.894531 C 184.738281 179.175781 186.910156 179.535156 189.128906 179.328125 C 192.597656 179 195.546875 177.679688 197.871094 175.050781 C 198.082031 174.816406 198.273438 174.710938 198.597656 174.828125 C 200.601562 175.542969 202.546875 176.382812 204.355469 177.519531 C 205.535156 178.261719 206.488281 179.246094 207.402344 180.273438 C 207.699219 180.613281 207.589844 181.007812 207.394531 181.375 C 206.074219 183.867188 204.285156 185.972656 202.195312 187.851562 C 198.679688 191.015625 194.457031 192.511719 189.871094 193.199219 C 188.972656 193.332031 188.074219 193.367188 187.167969 193.402344 C 184.453125 193.339844 181.773438 192.988281 179.128906 192.378906 C 178.875 192.324219 178.789062 192.25 178.84375 191.929688 Z M 196.425781 172.585938 C 195.464844 172.632812 194.515625 172.75 193.617188 172.269531 C 192.539062 171.691406 192.152344 170.921875 192.488281 169.757812 C 192.949219 168.164062 193.632812 166.652344 194.367188 165.171875 C 194.476562 164.945312 194.644531 164.84375 194.898438 164.824219 C 196.300781 164.707031 197.703125 164.578125 198.558594 164.503906 C 200.441406 164.476562 200.457031 164.484375 200.117188 165.78125 C 199.636719 167.621094 199.097656 169.433594 198.289062 171.167969 C 197.902344 171.996094 197.417969 172.542969 196.425781 172.585938 Z M 230.492188 150.933594 C 231.726562 151.542969 232.574219 152.464844 232.820312 153.863281 C 232.914062 154.386719 232.886719 154.90625 232.800781 155.433594 C 232.644531 156.382812 232.402344 157.308594 232.035156 158.199219 C 231.742188 158.914062 232.035156 159.480469 232.808594 159.59375 C 233.441406 159.6875 234.082031 159.730469 234.714844 159.8125 C 237.121094 160.128906 237.859375 161.375 237.957031 163.539062 C 237.980469 164.117188 237.933594 164.703125 237.917969 165.285156 C 237.886719 166.367188 238.121094 166.578125 239.179688 166.679688 C 239.75 166.734375 240.316406 166.917969 240.871094 167.089844 C 242.640625 167.636719 244.296875 168.441406 245.894531 169.363281 C 246.453125 169.6875 246.960938 170.085938 247.285156 170.660156 C 247.632812 171.289062 247.371094 171.824219 246.667969 171.953125 C 246.144531 172.046875 245.652344 171.90625 245.191406 171.675781 C 244.601562 171.386719 244.027344 171.0625 243.4375 170.773438 C 242.71875 170.417969 242.183594 170.476562 241.847656 170.910156 C 241.523438 171.324219 241.589844 171.851562 242.070312 172.445312 C 242.945312 173.527344 243.363281 174.765625 243.421875 176.140625 C 243.445312 176.703125 243.285156 176.785156 242.796875 176.484375 C 242.121094 176.0625 241.660156 175.441406 241.328125 174.738281 C 241.011719 174.078125 240.746094 173.390625 240.457031 172.71875 C 240.363281 172.496094 240.269531 172.269531 240.152344 172.054688 C 239.910156 171.632812 239.566406 171.339844 239.050781 171.445312 C 238.488281 171.558594 238.242188 171.972656 238.203125 172.507812 C 238.152344 173.257812 238.117188 174.011719 237.863281 174.730469 C 237.726562 175.109375 237.632812 175.710938 237.238281 175.710938 C 236.839844 175.710938 236.71875 175.121094 236.613281 174.726562 C 236.140625 172.945312 236.058594 171.121094 236.109375 169.292969 C 236.152344 167.609375 235.910156 167.277344 234.226562 167.128906 C 233.609375 167.074219 232.992188 167.019531 232.390625 166.855469 C 231.398438 166.589844 230.679688 165.988281 230.328125 165.019531 C 229.792969 163.546875 229.589844 162.027344 229.8125 160.46875 C 229.933594 159.636719 229.492188 159.121094 228.65625 159.027344 C 227.601562 158.914062 226.585938 158.609375 225.691406 158.015625 C 224.910156 157.5 224.382812 156.765625 224.195312 155.839844 C 223.820312 153.984375 223.945312 152.128906 224.410156 150.308594 C 224.648438 149.375 224.390625 148.878906 223.433594 148.671875 C 223.25 148.636719 223.066406 148.601562 222.878906 148.566406 C 220.550781 148.128906 219.589844 147.128906 219.214844 144.769531 C 219.03125 143.617188 218.867188 142.46875 218.859375 141.292969 C 218.851562 140.292969 218.246094 139.910156 217.316406 140.234375 C 216.816406 140.414062 216.355469 140.652344 215.9375 140.984375 C 215.785156 141.101562 215.597656 141.488281 215.390625 141.0625 C 215.265625 140.804688 214.925781 140.519531 215.472656 140.253906 C 216.800781 139.59375 217.722656 138.511719 218.363281 137.1875 C 219.390625 135.058594 219.089844 132.765625 217.589844 131.082031 C 215.59375 128.851562 212.230469 128.910156 210.511719 130.949219 C 210.371094 131.113281 210.265625 131.195312 210.050781 131.0625 C 207.964844 129.839844 206.589844 128.09375 206.105469 125.691406 C 206.089844 125.605469 206.101562 125.515625 206.101562 125.410156 C 206.191406 125.425781 206.25 125.421875 206.296875 125.445312 C 211.15625 127.726562 216.316406 129.082031 221.527344 130.25 C 221.851562 130.320312 221.957031 130.40625 221.929688 130.75 C 221.816406 132.367188 221.5 133.953125 221.21875 135.542969 C 220.988281 136.839844 221.328125 137.628906 222.46875 138.285156 C 223.4375 138.839844 224.519531 139.128906 225.542969 139.558594 C 226.707031 140.046875 227.480469 140.882812 227.851562 142.09375 C 228.074219 142.800781 228.003906 143.507812 227.875 144.214844 C 227.695312 145.238281 227.375 146.222656 227.0625 147.207031 C 226.933594 147.621094 226.800781 148.035156 226.699219 148.453125 C 226.5 149.269531 226.75 149.707031 227.570312 149.929688 C 228.5625 150.195312 229.558594 150.476562 230.492188 150.933594 Z M 223.824219 131.03125 C 223.867188 130.535156 224.210938 130.699219 224.445312 130.730469 C 225.445312 130.871094 226.441406 131.070312 227.441406 131.210938 C 228.78125 131.402344 230.121094 131.558594 231.46875 131.609375 C 233.984375 131.699219 236.5 131.757812 239.015625 131.875 C 239.835938 131.914062 240.65625 132.054688 241.464844 132.207031 C 242.445312 132.390625 242.84375 133.246094 242.375 134.125 C 241.667969 135.4375 240.480469 136.242188 239.242188 136.96875 C 236.761719 138.425781 234.007812 139.117188 231.242188 139.757812 C 230.621094 139.902344 229.988281 139.992188 229.363281 140.105469 C 229.152344 140.117188 228.996094 140.046875 228.878906 139.871094 C 227.988281 138.558594 226.675781 137.867188 225.21875 137.378906 C 224.597656 137.171875 223.980469 136.945312 223.40625 136.617188 C 223.121094 136.453125 223.011719 136.242188 223.074219 135.917969 C 223.382812 134.300781 223.675781 132.679688 223.824219 131.03125 Z M 196.800781 113.085938 C 198.605469 111.355469 200.761719 110.25 203.117188 109.492188 C 204.40625 109.078125 205.714844 108.71875 207.078125 108.714844 C 209.226562 108.699219 211.222656 109.3125 213.164062 110.175781 C 214.476562 110.757812 215.738281 111.390625 216.84375 112.332031 C 218.613281 113.839844 219.675781 115.75 220.269531 117.972656 C 220.882812 120.269531 221.25 122.59375 221.242188 124.976562 C 221.242188 125.242188 221.242188 125.5 221.242188 125.765625 C 221.238281 127.222656 221.515625 127.617188 222.871094 128.089844 C 223.097656 128.167969 223.53125 128.167969 223.445312 128.476562 C 223.375 128.742188 222.996094 128.539062 222.75 128.507812 C 219.222656 128.066406 215.917969 126.773438 212.519531 125.832031 C 209.898438 125.109375 207.480469 123.988281 205.132812 122.664062 C 203.914062 121.976562 202.925781 120.984375 201.878906 120.078125 C 200.53125 118.902344 199.394531 117.515625 198.226562 116.164062 C 197.78125 115.652344 197.277344 115.195312 196.816406 114.703125 C 196.550781 114.417969 196.035156 114.210938 196.050781 113.871094 C 196.058594 113.597656 196.53125 113.34375 196.800781 113.085938 Z M 185.835938 125.363281 C 185.710938 125.792969 185.441406 125.828125 185.101562 125.730469 C 183.582031 125.292969 182.109375 124.738281 180.691406 124.03125 C 178.585938 122.984375 176.730469 121.597656 174.960938 120.0625 C 172.71875 118.117188 172.769531 115.398438 174.148438 113.175781 C 175.523438 110.953125 177.597656 109.785156 180.183594 109.492188 C 181.207031 109.378906 182.234375 109.261719 183.269531 109.257812 C 186.191406 109.320312 188.792969 110.167969 190.96875 112.210938 C 191.996094 113.171875 193.113281 114.042969 194.199219 114.933594 C 194.519531 115.195312 194.519531 115.3125 194.132812 115.496094 C 190.363281 117.277344 187.953125 120.300781 186.367188 124.0625 C 186.183594 124.492188 185.972656 124.917969 185.835938 125.363281 Z M 188.90625 127.242188 C 188.679688 128.019531 188.339844 128.753906 187.886719 129.433594 C 187.613281 129.847656 187.269531 130.1875 186.820312 130.414062 C 186.558594 130.542969 186.375 130.570312 186.4375 130.273438 C 186.589844 129.117188 186.867188 128.082031 187.226562 127.074219 C 188.175781 124.445312 189.265625 121.894531 191.273438 119.855469 C 192.390625 118.71875 193.625 117.753906 195.113281 117.144531 C 195.21875 117.101562 195.351562 117.074219 195.414062 116.996094 C 195.957031 116.355469 196.257812 116.832031 196.609375 117.222656 C 197.382812 118.078125 197.394531 118.078125 196.382812 118.59375 C 192.71875 120.460938 190.078125 123.210938 188.90625 127.242188 Z M 200.363281 145.832031 C 199.582031 146.097656 198.789062 146.3125 197.945312 146.300781 C 196.777344 146.28125 195.855469 145.757812 195.058594 144.953125 C 194.542969 144.425781 194.113281 143.832031 193.710938 143.21875 C 193.546875 142.972656 193.578125 142.878906 193.871094 142.816406 C 194.445312 142.6875 194.972656 142.433594 195.464844 142.113281 C 196.082031 141.710938 196.261719 141.175781 195.953125 140.6875 C 195.652344 140.222656 195.113281 140.132812 194.507812 140.496094 C 194.035156 140.78125 193.527344 140.953125 193.003906 141.121094 C 192.730469 141.210938 192.582031 141.195312 192.488281 140.917969 C 192.214844 140.109375 191.539062 139.683594 190.882812 139.246094 C 190.148438 138.753906 189.890625 138.171875 190.152344 137.316406 C 190.363281 136.617188 190.660156 135.941406 190.902344 135.25 C 191.527344 133.460938 191.316406 131.667969 190.535156 130.039062 C 190.195312 129.328125 190.285156 128.886719 190.523438 128.292969 C 190.769531 127.683594 190.957031 127.050781 191.203125 126.441406 C 192.566406 123.097656 195.210938 121.128906 198.402344 119.746094 C 198.691406 119.621094 198.855469 119.726562 199.035156 119.925781 C 200.171875 121.214844 201.550781 122.234375 202.800781 123.402344 C 202.894531 123.492188 202.996094 123.59375 203.117188 123.640625 C 203.945312 123.957031 204.070312 124.644531 204.175781 125.425781 C 204.683594 129.195312 206.855469 131.699219 210.242188 133.238281 C 210.773438 133.476562 211.207031 133.3125 211.550781 132.707031 C 212.054688 131.832031 212.789062 131.355469 213.789062 131.300781 C 215.792969 131.195312 217.4375 133.222656 217.023438 135.273438 C 216.605469 137.3125 215.085938 138.753906 213.039062 139.039062 C 212.527344 139.109375 212.03125 138.972656 211.539062 138.84375 C 210.863281 138.667969 210.367188 138.890625 210.210938 139.425781 C 210.070312 139.921875 210.375 140.414062 210.980469 140.632812 C 211.566406 140.84375 212.1875 140.941406 212.808594 140.890625 C 213.167969 140.859375 213.34375 140.96875 213.460938 141.3125 C 213.597656 141.699219 213.804688 142.0625 213.972656 142.4375 C 214.066406 142.660156 214.351562 142.820312 214.261719 143.085938 C 214.101562 143.566406 213.894531 144.03125 213.699219 144.496094 C 213.636719 144.640625 213.511719 144.558594 213.40625 144.539062 C 210.5 144.003906 208.140625 145.121094 206.046875 146.996094 C 205.246094 147.714844 204.625 148.601562 204.082031 149.53125 C 203.910156 149.824219 203.757812 150.007812 203.390625 149.875 C 203.113281 149.78125 202.730469 150.082031 202.558594 149.824219 C 202.433594 149.636719 202.566406 149.28125 202.585938 149 C 202.691406 147.902344 202.289062 146.976562 201.632812 146.132812 C 201.289062 145.691406 200.851562 145.664062 200.363281 145.832031 Z M 201.777344 152.195312 C 201.871094 151.972656 201.941406 151.980469 202.9375 151.871094 C 202.460938 153.148438 202.039062 154.394531 201.839844 155.703125 C 201.816406 155.84375 201.832031 156.050781 201.601562 155.988281 C 201.101562 155.863281 200.59375 155.992188 200.015625 155.941406 C 200.671875 154.695312 201.257812 153.457031 201.777344 152.195312 Z M 199.640625 150.910156 C 199.675781 150.847656 199.707031 150.773438 199.757812 150.71875 C 199.894531 150.582031 200.078125 150.429688 200.25 150.515625 C 200.460938 150.625 200.269531 150.828125 200.21875 150.957031 C 199.546875 152.632812 198.8125 154.28125 197.890625 155.839844 C 197.746094 156.082031 197.601562 156.328125 197.5 156.589844 C 197.203125 157.332031 197.652344 158 198.445312 157.9375 C 199.308594 157.871094 200.171875 157.839844 201.035156 157.8125 C 201.425781 157.796875 201.53125 157.933594 201.476562 158.296875 C 201.28125 159.558594 201.09375 160.820312 200.914062 162.078125 C 200.859375 162.46875 200.679688 162.601562 200.277344 162.585938 C 198.261719 162.511719 196.269531 162.8125 194.265625 162.929688 C 193.765625 162.957031 193.351562 163.164062 193.09375 163.605469 C 191.863281 165.710938 190.773438 167.898438 190.472656 170.332031 C 190.285156 171.839844 191.148438 172.988281 192.414062 173.777344 C 193.222656 174.285156 194.109375 174.585938 195.082031 174.558594 C 195.207031 174.558594 195.347656 174.515625 195.507812 174.699219 C 194.507812 175.644531 193.386719 176.34375 192.109375 176.78125 C 190.929688 177.183594 189.699219 177.339844 188.46875 177.484375 C 188.09375 177.527344 187.925781 177.433594 187.925781 177.011719 C 187.921875 176.207031 187.898438 175.394531 187.816406 174.59375 C 187.695312 173.445312 188.027344 172.425781 188.472656 171.390625 C 190.136719 167.511719 192.171875 163.835938 194.28125 160.183594 C 195.839844 157.480469 197.296875 154.71875 198.9375 152.0625 C 199.175781 151.683594 199.402344 151.296875 199.640625 150.910156 Z M 196.574219 152.226562 C 196.558594 152.25 196.535156 152.269531 196.515625 152.292969 C 196.519531 152.269531 196.523438 152.238281 196.523438 152.214844 C 196.539062 152.214844 196.558594 152.222656 196.574219 152.226562 Z M 187.265625 163.652344 C 189.445312 160.800781 191.285156 157.699219 193.628906 154.964844 C 194.335938 154.136719 195.054688 153.316406 195.910156 152.628906 C 196.089844 152.492188 196.230469 152.257812 196.511719 152.296875 C 195.804688 153.554688 195.078125 154.800781 194.394531 156.074219 C 192.1875 160.171875 189.65625 164.101562 187.75 168.367188 C 187.738281 168.398438 187.695312 168.410156 187.503906 168.554688 C 187.503906 167.527344 187.5 166.621094 187.503906 165.710938 C 187.507812 165.308594 187.460938 164.902344 187.226562 164.582031 C 186.964844 164.230469 187.019531 163.976562 187.265625 163.652344 Z M 167.644531 156.925781 C 168.910156 155.183594 170.609375 154.195312 172.753906 153.988281 C 173.015625 153.964844 173.28125 153.988281 173.542969 153.988281 C 174.855469 153.863281 176.035156 154.199219 177.085938 155.003906 C 177.335938 155.195312 177.359375 155.328125 177.097656 155.503906 C 176.789062 155.71875 176.488281 155.941406 176.175781 156.152344 C 175.6875 156.488281 175.523438 156.96875 175.753906 157.410156 C 176 157.875 176.519531 158.03125 177.070312 157.792969 C 177.582031 157.574219 178.003906 157.226562 178.414062 156.863281 C 178.585938 156.710938 178.699219 156.660156 178.84375 156.902344 C 180.039062 158.871094 180.453125 160.925781 179.609375 163.144531 C 179.480469 163.484375 179.285156 163.578125 178.941406 163.589844 C 176.195312 163.679688 173.457031 163.785156 170.714844 163.902344 C 170.398438 163.914062 170.289062 163.835938 170.285156 163.507812 C 170.265625 161.144531 169.355469 159.164062 167.65625 157.542969 C 167.394531 157.296875 167.496094 157.132812 167.644531 156.925781 Z M 168.394531 163.59375 C 168.375 163.902344 168.257812 163.964844 167.988281 163.972656 C 166.617188 164.019531 165.246094 164.082031 163.875 164.136719 C 161.019531 164.25 158.164062 164.351562 155.308594 164.480469 C 154.886719 164.5 154.789062 164.367188 154.835938 163.980469 C 155.015625 162.578125 155.679688 161.410156 156.648438 160.425781 C 158.363281 158.679688 160.519531 157.90625 162.460938 157.726562 C 166.003906 157.667969 168.601562 160.460938 168.394531 163.59375 Z M 157.535156 152.585938 C 158.570312 151.648438 161.070312 150.667969 162.390625 150.699219 C 164.714844 150.753906 166.382812 151.976562 167.164062 154.164062 C 167.246094 154.402344 167.214844 154.542969 167.039062 154.707031 C 166.609375 155.105469 166.253906 155.566406 165.953125 156.066406 C 165.804688 156.308594 165.667969 156.351562 165.40625 156.246094 C 164.6875 155.957031 163.921875 155.828125 163.148438 155.8125 C 162.84375 155.808594 162.703125 155.707031 162.664062 155.417969 C 162.628906 155.15625 162.578125 154.898438 162.449219 154.660156 C 162.214844 154.238281 161.863281 154.007812 161.378906 154.132812 C 160.871094 154.265625 160.683594 154.644531 160.691406 155.160156 C 160.695312 155.472656 161.003906 155.832031 160.753906 156.0625 C 160.546875 156.257812 160.152344 156.238281 159.867188 156.367188 C 159.429688 156.570312 159.265625 156.441406 159.144531 155.988281 C 158.847656 154.902344 158.257812 153.960938 157.507812 153.128906 C 157.308594 152.902344 157.3125 152.785156 157.535156 152.585938 Z M 144.460938 157.019531 C 145.027344 155.535156 145.933594 154.320312 147.261719 153.433594 C 147.539062 153.25 147.707031 153.246094 147.878906 153.5625 C 148.070312 153.925781 148.308594 154.273438 148.625 154.546875 C 149.082031 154.945312 149.558594 154.96875 149.945312 154.625 C 150.332031 154.28125 150.351562 153.8125 150.007812 153.304688 C 149.835938 153.050781 149.414062 152.785156 149.566406 152.53125 C 149.730469 152.265625 150.203125 152.304688 150.554688 152.277344 C 153.207031 152.0625 155.304688 152.992188 156.746094 155.273438 C 156.886719 155.496094 157.007812 155.730469 157.117188 155.96875 C 157.648438 157.160156 157.609375 157.21875 156.578125 157.992188 C 154.5 159.550781 153.117188 161.527344 152.9375 164.195312 C 152.917969 164.472656 152.808594 164.546875 152.558594 164.554688 C 152.109375 164.566406 151.660156 164.597656 151.207031 164.621094 C 151.207031 164.632812 151.207031 164.644531 151.207031 164.660156 C 150.777344 164.660156 150.273438 164.796875 149.933594 164.625 C 149.539062 164.421875 149.753906 163.839844 149.660156 163.4375 C 149.003906 160.703125 147.355469 158.835938 144.789062 157.773438 C 144.351562 157.585938 144.316406 157.386719 144.460938 157.019531 Z M 134.425781 164.816406 C 134.730469 163.117188 135.59375 161.757812 136.96875 160.761719 C 138.4375 159.699219 140.128906 159.214844 141.65625 159.101562 C 144.875 159.054688 147.5 161.375 147.871094 164.3125 C 147.917969 164.699219 147.808594 164.742188 147.484375 164.75 C 145.023438 164.839844 142.5625 164.945312 140.097656 165.039062 C 138.332031 165.109375 136.566406 165.160156 134.796875 165.246094 C 134.421875 165.269531 134.363281 165.171875 134.425781 164.816406 Z M 168 203.546875 C 164.613281 203.671875 161.226562 203.789062 157.84375 203.917969 C 154.304688 204.050781 150.769531 204.199219 147.234375 204.332031 C 143.882812 204.460938 140.539062 204.582031 137.1875 204.703125 C 135.855469 204.753906 134.519531 204.796875 133.183594 204.835938 C 132.503906 204.855469 132.371094 204.714844 132.34375 204.027344 C 132.09375 197.691406 131.839844 191.355469 131.59375 185.015625 C 131.46875 181.6875 131.351562 178.359375 131.234375 175.027344 C 131.148438 172.695312 131.058594 170.363281 130.976562 168.03125 C 130.953125 167.277344 131.085938 167.140625 131.839844 167.113281 C 137.273438 166.910156 142.714844 166.714844 148.148438 166.503906 C 154.410156 166.261719 160.671875 166 166.933594 165.761719 C 171.542969 165.585938 176.152344 165.429688 180.757812 165.269531 C 182.1875 165.222656 183.613281 165.09375 185.042969 165.144531 C 185.570312 165.164062 185.730469 165.390625 185.746094 165.867188 C 185.828125 168.085938 185.921875 170.304688 186.003906 172.523438 C 186.058594 173.972656 186.089844 175.421875 186.152344 176.867188 C 186.167969 177.226562 186.109375 177.34375 185.707031 177.332031 C 184.5 177.292969 183.304688 177.160156 182.128906 176.90625 C 179.941406 176.433594 177.75 175.988281 175.601562 175.351562 C 174.714844 175.089844 173.871094 174.734375 173.027344 174.351562 C 172.507812 174.113281 172.285156 173.765625 172.234375 173.199219 C 172.136719 172.09375 171.714844 171.09375 171.101562 170.167969 C 169.824219 168.226562 167.902344 167.765625 165.769531 167.949219 C 162.738281 168.203125 159.984375 169.40625 157.269531 170.660156 C 155.28125 171.582031 153.261719 172.378906 151.097656 172.769531 C 150.726562 172.839844 150.347656 172.851562 149.976562 172.878906 C 147.742188 173.0625 146.09375 174.871094 146.242188 177.039062 C 146.328125 178.304688 147.054688 179.191406 148.101562 179.839844 C 148.308594 179.964844 148.523438 180.074219 148.832031 180.246094 C 147.207031 180.863281 145.675781 181.425781 144.113281 181.914062 C 142.328125 182.476562 140.679688 183.253906 139.515625 184.816406 C 138.242188 186.527344 138.316406 188.433594 139.769531 189.992188 C 140.011719 190.253906 139.890625 190.378906 139.753906 190.601562 C 138.738281 192.277344 138.703125 193.992188 139.703125 195.675781 C 140.480469 196.988281 141.746094 197.523438 143.222656 197.550781 C 143.769531 197.558594 144.042969 197.675781 144.25 198.261719 C 145.046875 200.496094 147.394531 201.640625 149.964844 201.171875 C 151.046875 200.972656 152.078125 200.640625 153.097656 200.253906 C 153.289062 200.179688 153.472656 200.0625 153.683594 200.199219 C 155.449219 201.359375 157.285156 200.980469 159.117188 200.4375 C 161.699219 199.675781 163.972656 198.332031 166.113281 196.730469 C 167.382812 195.785156 168.710938 194.933594 170.03125 194.0625 C 171.628906 193.011719 173.335938 192.800781 175.160156 193.257812 C 177.421875 193.824219 179.644531 194.550781 181.972656 194.820312 C 183.484375 194.996094 184.988281 195.300781 186.519531 195.21875 C 186.792969 195.207031 186.882812 195.304688 186.894531 195.566406 C 186.96875 197.746094 187.054688 199.933594 187.132812 202.113281 C 187.148438 202.582031 186.921875 202.789062 186.453125 202.808594 C 183.972656 202.90625 181.492188 203.019531 179.007812 203.117188 C 175.332031 203.269531 171.667969 203.410156 168 203.546875 Z M 146.640625 231.933594 C 147.445312 232.179688 148.207031 232.535156 148.925781 232.992188 C 150.636719 234.082031 152.382812 235.132812 153.835938 236.574219 C 154.25 236.984375 154.640625 237.417969 155.042969 237.835938 C 155.21875 238.019531 155.164062 238.203125 155.089844 238.410156 C 154.570312 239.886719 153.671875 241.140625 152.722656 242.359375 C 152.472656 242.679688 152.277344 242.734375 151.984375 242.375 C 149.601562 239.4375 147.769531 236.199219 146.535156 232.628906 C 146.488281 232.488281 146.464844 232.335938 146.417969 232.191406 C 146.363281 231.996094 146.410156 231.894531 146.640625 231.933594 Z M 163.65625 255.152344 C 162.421875 256.832031 160.632812 257.769531 158.476562 256.582031 C 156.617188 255.566406 154.980469 254.246094 153.371094 252.886719 C 151.722656 251.492188 150.089844 250.074219 148.476562 248.640625 C 147 247.328125 145.902344 245.703125 144.796875 244.089844 C 143.417969 242.070312 142.378906 239.890625 141.894531 237.476562 C 141.777344 236.890625 141.679688 236.296875 141.714844 235.792969 C 141.695312 233.496094 142.328125 233.277344 144.121094 232.140625 C 144.316406 232.019531 144.402344 232.070312 144.46875 232.300781 C 145.484375 235.863281 147.1875 239.089844 149.363281 242.074219 C 151.1875 244.578125 153.328125 246.769531 155.667969 248.800781 C 158.070312 250.886719 160.742188 252.550781 163.445312 254.175781 C 163.917969 254.464844 163.972656 254.71875 163.65625 255.152344 Z M 172.542969 243.605469 C 171.324219 245.347656 170.152344 247.117188 169.03125 248.925781 C 168.253906 250.183594 167.339844 251.320312 166.101562 252.171875 C 165.355469 252.679688 164.71875 252.769531 163.847656 252.25 C 160.582031 250.3125 157.53125 248.101562 154.785156 245.472656 C 154.390625 245.09375 153.8125 244.746094 153.699219 244.292969 C 153.59375 243.847656 154.28125 243.519531 154.574219 243.101562 C 155.296875 242.046875 156.101562 241.039062 156.5625 239.832031 C 156.742188 239.363281 157.097656 239.539062 157.40625 239.511719 C 158.566406 239.53125 159.507812 239.023438 160.367188 238.304688 C 161.066406 237.722656 161.636719 237.023438 162.203125 236.320312 C 162.40625 236.0625 162.542969 236.0625 162.773438 236.28125 C 165.589844 238.925781 168.980469 240.695312 172.308594 242.5625 C 173 242.949219 173.011719 242.929688 172.542969 243.605469 Z M 198.21875 213.140625 C 196.007812 215.15625 194.507812 217.625 193.699219 220.496094 C 193.121094 222.566406 191.871094 224.222656 190.554688 225.855469 C 189.691406 226.921875 188.8125 227.972656 187.957031 229.046875 C 187.347656 229.820312 186.90625 230.691406 186.582031 231.621094 C 185.792969 233.894531 185.039062 236.183594 184.183594 238.433594 C 183.464844 240.332031 182.359375 242.015625 180.945312 243.480469 C 180.152344 244.308594 180.007812 244.324219 178.957031 243.832031 C 174.714844 241.839844 170.589844 239.609375 166.695312 237 C 164.585938 235.582031 162.75 233.816406 161 231.964844 C 160.796875 231.75 160.800781 231.605469 161.015625 231.414062 C 163.28125 229.382812 164.53125 226.769531 165.390625 223.910156 C 165.953125 222.042969 166.519531 220.160156 167.75 218.578125 C 168.214844 217.984375 168.695312 217.40625 169.25 216.894531 C 171.460938 214.855469 172.898438 212.382812 173.53125 209.433594 C 173.738281 208.480469 174.070312 207.558594 174.492188 206.667969 C 174.628906 206.390625 174.792969 206.300781 175.101562 206.292969 C 178.015625 206.21875 180.929688 206.140625 183.839844 206.03125 C 186.453125 205.9375 189.058594 205.800781 191.667969 205.6875 C 191.667969 205.695312 191.667969 205.699219 191.667969 205.707031 C 191.875 205.707031 192.089844 205.738281 192.289062 205.699219 C 193.335938 205.507812 194.09375 206.039062 194.816406 206.664062 C 196.585938 208.199219 197.761719 210.105469 198.417969 212.351562 C 198.519531 212.6875 198.480469 212.902344 198.21875 213.140625 Z M 217.476562 238.523438 C 217.011719 238.695312 216.871094 238.636719 216.695312 238.164062 C 216.03125 236.367188 215.074219 234.71875 213.746094 233.328125 C 212.03125 231.535156 210.914062 229.492188 210.503906 227.019531 C 210.085938 224.472656 208.773438 222.363281 206.785156 220.742188 C 204.09375 218.554688 202.332031 215.796875 201.613281 212.429688 C 200.894531 209.082031 199.199219 206.371094 196.785156 204.003906 C 194.507812 201.765625 193.339844 198.980469 193.101562 195.800781 C 193.082031 195.523438 193.039062 195.242188 193.003906 194.964844 C 192.917969 194.511719 193.109375 194.367188 193.558594 194.269531 C 197.222656 193.453125 200.496094 191.855469 203.332031 189.363281 C 205.980469 187.035156 208.082031 184.320312 209.652344 181.148438 C 210.777344 178.878906 211.757812 176.570312 212.359375 174.113281 C 212.484375 173.589844 212.691406 173.503906 213.21875 173.613281 C 214.613281 173.894531 216.027344 174.09375 217.4375 174.316406 C 218.234375 174.4375 218.285156 174.492188 218.183594 175.265625 C 217.742188 178.613281 217.769531 181.980469 217.894531 185.347656 C 217.984375 187.777344 218.601562 190.097656 219.855469 192.21875 C 220.929688 194.039062 221.386719 196.007812 221.222656 198.113281 C 221.074219 199.957031 221.34375 201.714844 222.269531 203.332031 C 223.109375 204.800781 224.203125 206.074219 225.5 207.144531 C 227.261719 208.609375 228.296875 210.382812 228.378906 212.714844 C 228.492188 215.875 229.808594 218.488281 232.078125 220.683594 C 233.441406 222 234.765625 223.375 235.761719 225.011719 C 236.378906 226.027344 236.273438 225.851562 235.527344 226.5625 C 233.5625 228.4375 231.5 230.195312 229.269531 231.738281 C 225.539062 234.320312 221.777344 236.894531 217.476562 238.523438 Z M 218.988281 252.511719 C 219.339844 250.355469 220.242188 248.515625 222.082031 247.230469 C 223.21875 246.433594 224.382812 245.671875 225.4375 244.761719 C 225.636719 244.589844 225.804688 244.59375 226.035156 244.746094 C 227.296875 245.574219 228.308594 246.636719 229.144531 247.882812 C 229.402344 248.265625 229.171875 248.371094 228.902344 248.507812 C 226.507812 249.722656 224.097656 250.90625 221.617188 251.9375 C 220.871094 252.246094 220.109375 252.515625 219.367188 252.828125 C 219.003906 252.972656 218.929688 252.847656 218.988281 252.511719 Z M 246.613281 246.054688 C 245.875 246.871094 245.007812 247.535156 244.117188 248.164062 C 240.316406 250.832031 236.238281 253.011719 231.984375 254.847656 C 229.046875 256.117188 225.957031 256.820312 222.675781 257.011719 C 221.488281 256.925781 220.273438 256.765625 219.613281 255.441406 C 219.417969 255.046875 219.382812 254.839844 219.890625 254.660156 C 222.878906 253.613281 225.75 252.289062 228.550781 250.832031 C 233.472656 248.269531 238.300781 245.546875 242.777344 242.234375 C 243.574219 241.644531 244.464844 241.226562 245.453125 241.664062 C 246.582031 242.164062 247.25 243.128906 247.417969 244.316406 C 247.507812 244.960938 247.0625 245.558594 246.613281 246.054688 Z M 198.234375 132.933594 C 198.242188 133.308594 198.246094 133.683594 198.089844 134.039062 C 197.742188 134.859375 196.867188 135.113281 196.132812 134.605469 C 195.765625 134.347656 195.507812 134.003906 195.335938 133.601562 C 195.179688 133.222656 195.027344 132.835938 194.929688 132.4375 C 194.785156 131.835938 194.605469 131.386719 193.824219 131.386719 C 193.210938 131.390625 192.851562 130.910156 192.890625 130.40625 C 192.933594 129.894531 193.335938 129.566406 193.972656 129.582031 C 194.515625 129.589844 195.058594 129.632812 195.597656 129.691406 C 197.292969 129.886719 198.019531 130.628906 198.195312 132.3125 C 198.222656 132.519531 198.222656 132.726562 198.234375 132.933594 Z M 210.742188 137.105469 C 210.476562 136.730469 210.464844 136.328125 210.769531 135.964844 C 211.058594 135.617188 211.433594 135.570312 211.84375 135.722656 C 212.273438 135.882812 212.429688 135.777344 212.398438 135.320312 C 212.390625 135.191406 212.347656 135.0625 212.324219 134.933594 C 212.066406 133.652344 212.503906 132.753906 213.667969 132.144531 C 214.257812 131.839844 214.824219 131.957031 215.105469 132.4375 C 215.375 132.902344 215.226562 133.40625 214.632812 133.746094 C 214.171875 134.007812 214.09375 134.316406 214.199219 134.8125 C 214.484375 136.191406 213.875 137.367188 212.738281 137.75 C 212.566406 137.808594 212.378906 137.832031 212.261719 137.859375 C 211.585938 137.832031 211.089844 137.597656 210.742188 137.105469 Z M 198.917969 125.984375 C 198.710938 126.445312 198.238281 126.628906 197.679688 126.453125 C 197.394531 126.363281 197.121094 126.242188 196.832031 126.15625 C 196.175781 125.949219 195.570312 125.933594 195.007812 126.480469 C 194.5625 126.914062 194.007812 126.859375 193.660156 126.464844 C 193.332031 126.089844 193.355469 125.574219 193.75 125.140625 C 194.359375 124.457031 195.109375 124.089844 195.957031 124.160156 C 196.894531 124.125 197.671875 124.398438 198.417969 124.769531 C 198.941406 125.03125 199.121094 125.53125 198.917969 125.984375 Z M 170.117188 244.574219 C 170.417969 245.027344 170.300781 245.449219 169.941406 245.792969 C 169.179688 246.523438 168.222656 246.761719 167.269531 246.816406 C 165.371094 246.773438 163.84375 245.597656 163.378906 243.867188 C 163.332031 243.6875 163.296875 243.5 163.300781 243.3125 C 163.304688 242.757812 163.667969 242.339844 164.164062 242.300781 C 164.644531 242.261719 165.027344 242.5625 165.140625 243.121094 C 165.316406 244.015625 165.8125 244.617188 166.699219 244.863281 C 167.3125 245.03125 167.890625 244.90625 168.429688 244.59375 C 168.578125 244.507812 168.714844 244.410156 168.863281 244.328125 C 169.347656 244.078125 169.855469 244.175781 170.117188 244.574219 Z M 170.117188 244.574219 " fill-opacity="1" fill-rule="nonzero"/></svg>